<?xml version="1.0" encoding="UTF-8"?>
<svg version="1.1" xmlns="http://www.w3.org/2000/svg" width="1024" height="1024">
<path d="M0 0 C-0.33 0.66 -0.66 1.32 -1 2 C0.10794922 2.22042969 0.10794922 2.22042969 1.23828125 2.4453125 C11.11056542 4.62800303 20.30631247 8.08927837 27 16 C27.680625 16.721875 28.36125 17.44375 29.0625 18.1875 C35.79935516 27.96680588 36.76610007 37.96444327 34.875 49.375 C33.5231133 56.71163455 31.32633705 63.29980681 28 70 C27.56945312 70.89847656 27.13890625 71.79695313 26.6953125 72.72265625 C18.2543241 89.29465325 4.80536553 102.98255693 -10 114 C-11.04671875 114.79019531 -12.0934375 115.58039063 -13.171875 116.39453125 C-20.12801821 121.55354613 -27.25116999 126.0352409 -34.93408203 130.04467773 C-39.00820069 132.06141698 -39.00820069 132.06141698 -41 136 C-41.79792969 136.06574219 -42.59585938 136.13148438 -43.41796875 136.19921875 C-48.20849494 137.27016517 -52.03871351 139.45093735 -56.3125 141.8125 C-62.43942202 145.15847746 -68.5732866 148.26606899 -75 151 C-74.37996094 151.27972656 -73.75992188 151.55945313 -73.12109375 151.84765625 C-71.20421524 152.71541348 -69.28903517 153.58692654 -67.375 154.4609375 C-65.10773955 155.49485025 -62.83682548 156.52078496 -60.5625 157.5390625 C-45.24478285 164.50466233 -31.01649778 172.28868758 -18 183 C-17.10410156 183.69351563 -16.20820312 184.38703125 -15.28515625 185.1015625 C16.3513217 209.90902098 38.96799953 245.8708587 48 285 C48.29390625 286.20011719 48.5878125 287.40023438 48.890625 288.63671875 C53.94609856 311.16331416 53.40319356 334.08097705 51.18359375 356.92578125 C50.95591623 359.15099816 50.95591623 359.15099816 51 362 C50.34697419 363.34006698 49.67876763 364.6727861 49 366 C48.54823359 367.54932494 48.14239155 369.11248791 47.7734375 370.68359375 C38.91809315 407.12982114 21.82854587 438.99917953 1 470 C0.278125 471.07636719 -0.44375 472.15273438 -1.1875 473.26171875 C-21.89159112 503.5947346 -44.98893101 532.47662461 -69.77734375 559.5625 C-74.03940945 564.23654041 -78.24750416 568.90332654 -82 574 C-77.30495391 575.0646471 -72.5810331 575.52133773 -67.80078125 576.015625 C-65.94441728 576.21351183 -64.08813772 576.41219167 -62.23193359 576.61157227 C-61.26439148 576.71543243 -60.29684937 576.8192926 -59.29998779 576.92630005 C-45.42961204 578.42918149 -31.58489006 579.9313613 -17.875 582.5625 C-16.89055908 582.74780273 -15.90611816 582.93310547 -14.8918457 583.12402344 C-6.88185303 584.76196651 2.14831636 586.95955237 8 593 C9.125 594.9375 9.125 594.9375 9 597 C3.58941897 603.98139488 -4.65637387 606.51432335 -12.9375 608.5 C-13.77635742 608.7064917 -14.61521484 608.9129834 -15.47949219 609.12573242 C-26.52935499 611.73968925 -37.77106818 613.36556659 -49 615 C-49 615.33 -49 615.66 -49 616 C-49.83015625 615.97679687 -50.6603125 615.95359375 -51.515625 615.9296875 C-61.73197752 615.78007564 -71.82305321 616.39323157 -82.00683594 617.20068359 C-99.34527404 618.555797 -116.6721691 619.20938508 -134.0625 619.1875 C-135.42355362 619.18659363 -135.42355362 619.18659363 -136.81210327 619.18566895 C-267.02073296 618.95485498 -267.02073296 618.95485498 -291 598 C-290.92320026 595.3120091 -290.5770688 593.57263298 -288.63427734 591.64477539 C-284.61260739 588.63955282 -280.46231209 586.77008959 -275.625 585.4375 C-274.89788818 585.23334473 -274.17077637 585.02918945 -273.42163086 584.81884766 C-255.37767951 580.0118657 -236.72604292 578.42529862 -218.17211914 576.95068359 C-217.10391434 576.86488792 -217.10391434 576.86488792 -216.01412964 576.77735901 C-214.06921488 576.62281614 -212.12385214 576.47394119 -210.1784668 576.32543945 C-207.66293574 576.06787721 -205.4158491 575.71236093 -203 575 C-202.20707277 573.20932615 -202.20707277 573.20932615 -202 571 C-203.23186722 568.90180741 -203.23186722 568.90180741 -205.125 567 C-205.77210938 566.30390625 -206.41921875 565.6078125 -207.0859375 564.890625 C-209.2611086 562.74208865 -211.58819972 560.87584466 -214 559 C-217 555.48275862 -217 555.48275862 -217 553 C-217.66 553 -218.32 553 -219 553 C-220.4453125 551.56640625 -220.4453125 551.56640625 -222.125 549.5625 C-225.49378571 545.58378677 -228.9703982 541.7229439 -232.49609375 537.8828125 C-234 536 -234 536 -234 534 C-234.66 534 -235.32 534 -236 534 C-237.39599396 532.47162731 -238.71587649 530.87349901 -240 529.25 C-240.79664063 528.25613281 -241.59328125 527.26226563 -242.4140625 526.23828125 C-242.83461914 525.71057129 -243.25517578 525.18286133 -243.68847656 524.63916016 C-245.89242567 521.88463403 -248.12928595 519.15801265 -250.375 516.4375 C-251.18710937 515.44621094 -251.99921875 514.45492187 -252.8359375 513.43359375 C-254.94771113 510.85201666 -254.94771113 510.85201666 -258 509 C-257.67 508.34 -257.34 507.68 -257 507 C-264.67846322 507.56565481 -272.34343208 508.1876779 -280 509 C-280 509.66 -280 510.32 -280 511 C-280.66 511 -281.32 511 -282 511 C-282 510.34 -282 509.68 -282 509 C-282.91064209 509.06058594 -283.82128418 509.12117188 -284.75952148 509.18359375 C-288.22784822 509.4116433 -291.69643146 509.63462749 -295.1652832 509.85449219 C-296.64978378 509.94955637 -298.13416671 510.04648084 -299.6184082 510.14550781 C-301.78566491 510.28974629 -303.95329624 510.42665729 -306.12109375 510.5625 C-308.06133423 510.68818359 -308.06133423 510.68818359 -310.04077148 510.81640625 C-317.35049973 511.17520142 -324.6837888 511.03303281 -332 511 C-331.99111755 511.88425659 -331.98223511 512.76851318 -331.9730835 513.67956543 C-331.89274808 522.03578961 -331.83193954 530.39188303 -331.79275131 538.74840546 C-331.77192647 543.04402721 -331.74370305 547.33932835 -331.69824219 551.63476562 C-331.65460102 555.78450141 -331.63082455 559.9339299 -331.62049103 564.08387756 C-331.61313227 565.66265191 -331.59876248 567.24141051 -331.57707977 568.8200531 C-331.37282109 584.31559953 -331.37282109 584.31559953 -336 591 C-341.82761403 595.83567972 -346.75879553 596.125116 -354.125 596 C-359.15484145 595.88707076 -359.15484145 595.88707076 -364 597 C-364.99 596.67 -365.98 596.34 -367 596 C-370.30519282 596.1723699 -373.57815966 596.51408197 -376.87109375 596.84375 C-379.64034151 596.98203953 -381.39522055 596.77857144 -384 596 C-384.99 596 -385.98 596 -387 596 C-387.33 596.66 -387.66 597.32 -388 598 C-388.33 597.34 -388.66 596.68 -389 596 C-389.99 595.67 -390.98 595.34 -392 595 C-392.33 595.66 -392.66 596.32 -393 597 C-393.56842621 596.92894547 -394.13685242 596.85789093 -394.72250366 596.78468323 C-401.9065363 595.96809428 -409.00189444 595.87056332 -416.2265625 595.90234375 C-418.06980606 595.90446617 -418.06980606 595.90446617 -419.95028687 595.90663147 C-423.84188358 595.91219041 -427.73342093 595.9247352 -431.625 595.9375 C-434.27734291 595.94252031 -436.92968674 595.94708228 -439.58203125 595.95117188 C-446.05470746 595.96214636 -452.52734949 595.97884316 -459 596 C-459.33 596.66 -459.66 597.32 -460 598 C-461.98 597.67 -463.96 597.34 -466 597 C-465.67 596.34 -465.34 595.68 -465 595 C-465.9075 594.46375 -466.815 593.9275 -467.75 593.375 C-471.27090841 591.29446321 -473.04373582 588.55875574 -475 585 C-475.55106773 581.85849387 -475.50690615 578.78067506 -475.45410156 575.59814453 C-475.45468567 574.67067917 -475.45526978 573.74321381 -475.45587158 572.78764343 C-475.45309476 569.7356465 -475.4220214 566.68463788 -475.390625 563.6328125 C-475.38316119 561.51146986 -475.37746892 559.39012032 -475.37347412 557.26876831 C-475.3582289 551.69552449 -475.31895629 546.12270011 -475.2746582 540.54962158 C-475.23368174 534.8586596 -475.21545801 529.1676296 -475.1953125 523.4765625 C-475.15246127 512.31752443 -475.0842231 501.15879714 -475 490 C-476.97796027 489.77046649 -478.95592054 489.54093297 -480.93388081 489.31139946 C-486.39538857 488.48825694 -491.55609583 486.10212349 -496.6875 484.125 C-497.32495148 483.88145782 -497.96240295 483.63791565 -498.61917114 483.38699341 C-519.96986143 475.1888914 -539.23431988 464.84677805 -555.79296875 448.93359375 C-557.93248107 446.80733739 -557.93248107 446.80733739 -561 446 C-562.04549801 444.36149102 -563.03985996 442.68994345 -564 441 C-565.22717782 439.46069216 -566.47850422 437.94040802 -567.75 436.4375 C-582.32887176 418.32759875 -588.80679071 395.9727949 -586.5 372.875 C-582.60133897 340.77515699 -562.85057687 313.63539257 -541 291 C-540.43200684 290.41009277 -539.86401367 289.82018555 -539.27880859 289.21240234 C-531.91147081 281.60077594 -524.40224185 274.47740395 -516 268 C-515.36690918 267.5064502 -514.73381836 267.01290039 -514.08154297 266.50439453 C-491.5347726 248.93047775 -491.5347726 248.93047775 -483.64697266 244.75415039 C-478.99916777 242.24856714 -478.99916777 242.24856714 -476.26464844 237.96362305 C-476.06145148 235.36231334 -476.17387315 232.91447969 -476.375 230.3125 C-476.45752376 228.19793583 -476.53950692 226.08335053 -476.62109375 223.96875 C-476.68409668 222.74929688 -476.74709961 221.52984375 -476.81201172 220.2734375 C-477.0568481 215.19494426 -477.13567409 210.11448429 -477.22265625 205.03125 C-477.3608077 197.370712 -477.49948233 189.710375 -477.68359375 182.05078125 C-477.7003566 181.21208496 -477.71711945 180.37338867 -477.73439026 179.50927734 C-477.75428513 178.72544678 -477.77417999 177.94161621 -477.79467773 177.1340332 C-477.81799416 176.11343559 -477.81799416 176.11343559 -477.84178162 175.07221985 C-478.02597261 172.65983116 -478.48662489 170.36221372 -479 168 C-480.13488358 168.00333092 -480.13488358 168.00333092 -481.29269409 168.00672913 C-488.55436921 168.02707918 -495.8160298 168.04214612 -503.07772636 168.05181217 C-506.80768969 168.05694915 -510.53762876 168.06387097 -514.26757812 168.07543945 C-529.07677566 168.11976499 -543.89005653 168.12433312 -558.6953125 167.74609375 C-559.74516327 167.73224136 -560.79501404 167.71838898 -561.87667847 167.70411682 C-568.05565693 167.5012043 -572.11926619 166.93442115 -577 163 C-581.13463725 157.18138788 -581.57350821 151.57443245 -581.50170898 144.62426758 C-581.50711197 143.61675949 -581.51251495 142.6092514 -581.51808167 141.57121277 C-581.53052498 138.26201435 -581.51411014 134.9536932 -581.49609375 131.64453125 C-581.4962488 129.33623713 -581.49773882 127.02794274 -581.50050354 124.71965027 C-581.50188544 119.89216545 -581.48936111 115.06497849 -581.46655273 110.23754883 C-581.43812124 104.0501832 -581.44092135 97.86331047 -581.45364285 91.67590809 C-581.46059596 86.91383146 -581.45281567 82.15186882 -581.44038582 77.38980675 C-581.43587114 75.10804367 -581.43553466 72.82626835 -581.43945122 70.54450417 C-581.44236097 67.35859673 -581.42586871 64.17337022 -581.40405273 60.98754883 C-581.40855438 60.04561676 -581.41305603 59.10368469 -581.41769409 58.13320923 C-581.36249306 53.28233803 -581.20991672 49.90299007 -578 46 C-572.77990469 42.00162913 -568.3688489 41.47131131 -561.8671875 41.17578125 C-559.03092684 41.07962803 -559.03092684 41.07962803 -556.4453125 40.41796875 C-553.6334599 39.93734858 -551.77636904 40.39680077 -549 41 C-546.66809953 41.0917646 -544.33369991 41.13002953 -542 41.125 C-540.80375 41.12757813 -539.6075 41.13015625 -538.375 41.1328125 C-535.07378662 41.09306684 -535.07378662 41.09306684 -532.1875 40.4296875 C-530 40 -530 40 -528 41 C-526.4833426 41.06192149 -524.96377807 41.05793697 -523.44628906 41.02172852 C-522.4795224 41.0016423 -521.51275574 40.98155609 -520.51669312 40.96086121 C-518.9074144 40.9202935 -518.9074144 40.9202935 -517.265625 40.87890625 C-514.89046993 40.82954402 -512.51530667 40.78057475 -510.14013672 40.73193359 C-508.85943298 40.70411804 -507.57872925 40.67630249 -506.25921631 40.64764404 C-478.42717896 40.0486857 -450.59775208 39.88105167 -422.7598114 39.87617111 C-419.88304227 39.87500326 -417.00628316 39.87164967 -414.1295166 39.8677063 C-409.54835364 39.86183422 -404.96722337 39.86156505 -400.38605881 39.86574364 C-398.69325144 39.86669049 -397.00044236 39.86610446 -395.30763626 39.86382484 C-380.8130034 39.84786559 -380.8130034 39.84786559 -374.33349609 40.48901367 C-364.54755016 41.42293736 -354.68106749 41.25038772 -344.859375 41.30859375 C-343.75399635 41.31516558 -342.64861771 41.3217374 -341.50974274 41.32850838 C-335.66226987 41.36093375 -329.81481398 41.38542926 -323.96728516 41.4050293 C-319.16265161 41.42284141 -314.35860497 41.4576866 -309.55419922 41.50756836 C-303.71122463 41.56812332 -297.86879367 41.59855083 -292.02552032 41.60820198 C-289.81697481 41.61669186 -287.6084413 41.63534694 -285.40007782 41.6649456 C-273.4152701 41.81698671 -263.41586417 41.40414365 -252.394104 36.4188385 C-247.75748227 34.48058987 -243.36994072 33.89374784 -238.37890625 33.32421875 C-236.04940534 33.25111921 -236.04940534 33.25111921 -235 32 C-232.32941149 31.85884839 -229.67567762 31.95752893 -227 32 C-227.66 32.66 -228.32 33.32 -229 34 C-228.04867188 34.28230469 -227.09734375 34.56460938 -226.1171875 34.85546875 C-215.99559094 37.98719081 -206.26527294 41.88767977 -196.5625 46.125 C-195.92834167 46.4016449 -195.29418335 46.67828979 -194.64080811 46.96331787 C-188.13188484 49.8089544 -181.64350248 52.69812493 -175.17967224 55.64477539 C-173.3097615 56.49694509 -171.4381531 57.34528255 -169.56616211 58.19287109 C-167.24055458 59.24908252 -164.91948387 60.31535827 -162.60375977 61.39306641 C-161.55889404 61.8679248 -160.51402832 62.3427832 -159.4375 62.83203125 C-158.52871094 63.25202393 -157.61992188 63.6720166 -156.68359375 64.10473633 C-152.9626538 65.34606518 -149.55884934 65.76590863 -145.97265625 64.00390625 C-145.34230469 63.52824219 -144.71195313 63.05257812 -144.0625 62.5625 C-140.15263319 59.76880552 -136.13919238 57.24807776 -132 54.8125 C-126.57075223 51.58960901 -121.22861261 48.25732276 -115.9375 44.8125 C-114.89323853 44.13356689 -114.89323853 44.13356689 -113.82788086 43.44091797 C-112.34837243 42.47866571 -110.86896505 41.51625806 -109.38964844 40.55371094 C-75.14674256 18.28952489 -42.06398136 -1.31449942 0 0 Z M-331 243 C-332.20587804 246.61763412 -332.14332385 249.9301055 -332.1328125 253.6953125 C-332.13376923 254.44336151 -332.13472595 255.19141052 -332.13571167 255.96212769 C-332.13639143 257.54067062 -332.13455137 259.11921636 -332.13037109 260.69775391 C-332.1250049 263.12278455 -332.13033064 265.54763125 -332.13671875 267.97265625 C-332.13605823 269.50520874 -332.1347776 271.03776112 -332.1328125 272.5703125 C-332.13483673 273.29944855 -332.13686096 274.02858459 -332.13894653 274.77981567 C-332.42582087 278.17682425 -332.42582087 278.17682425 -331 281 C-331.28730055 283.33944736 -331.61936779 285.6739143 -332 288 C-329.70661827 285.70661827 -329.27024971 284.22135134 -328.30078125 281.15234375 C-327.98173828 280.16177979 -327.66269531 279.17121582 -327.33398438 278.15063477 C-326.82834961 276.56013306 -326.82834961 276.56013306 -326.3125 274.9375 C-323.33696501 265.76270461 -320.05034306 256.8349271 -316.25 247.97265625 C-314.93539604 245.38382651 -314.93539604 245.38382651 -315 244 C-320.28 243.67 -325.56 243.34 -331 243 Z M-475 332 C-484.79846014 344.8372231 -490.60372045 358.7105249 -489 375 C-486.78126217 385.52960324 -482.3195614 392.34435088 -474 399 C-474 376.89 -474 354.78 -474 332 C-474.33 332 -474.66 332 -475 332 Z M-332 375 C-332.02314265 383.44040261 -332.04092492 391.88079202 -332.05181217 400.32121849 C-332.05703678 404.2401987 -332.0641268 408.15915726 -332.07543945 412.078125 C-332.08628329 415.85822386 -332.09228002 419.63830186 -332.09487724 423.41841507 C-332.09672878 424.86254836 -332.10034424 426.30668047 -332.10573006 427.7508049 C-332.1129602 429.76924277 -332.11340823 431.78770153 -332.11352539 433.80615234 C-332.115746 434.95642914 -332.11796661 436.10670593 -332.12025452 437.2918396 C-332.18552097 439.96820459 -332.18552097 439.96820459 -331 442 C-328.53132958 442.32186847 -326.16776271 442.51675699 -323.6875 442.625 C-322.97142578 442.66294678 -322.25535156 442.70089355 -321.51757812 442.73999023 C-315.3450133 443.04298457 -309.17911348 443.1053258 -303 443 C-304.40478952 439.35293436 -306.00810172 435.87278522 -307.7578125 432.37890625 C-315.30905079 417.12425514 -321.74037979 401.83906727 -327.10546875 385.66796875 C-327.89955125 383.29959168 -328.73919398 380.96030679 -329.625 378.625 C-330.07875 377.42875 -330.5325 376.2325 -331 375 C-331.33 375 -331.66 375 -332 375 Z " fill="#4333AF" transform="translate(771,176)"/>
<path d="M0 0 C-0.03029297 1.25321045 -0.06058594 2.5064209 -0.09179688 3.79760742 C-0.20613804 8.55585044 -0.31713569 13.31416712 -0.42724609 18.07250977 C-0.47487105 20.11159295 -0.52334071 22.15065663 -0.57275391 24.18969727 C-0.71662238 30.13968646 -0.84289374 36.08962173 -0.94580078 42.04046631 C-0.98207848 44.02140047 -1.02346021 46.00224743 -1.06982422 47.98297119 C-1.13468936 50.83887205 -1.1791196 53.69443249 -1.21875 56.55078125 C-1.24199341 57.40165817 -1.26523682 58.2525351 -1.28918457 59.12919617 C-1.34264116 65.21152463 -0.45723631 70.05131642 3.5625 74.875 C6.97599794 77.54643317 9.74034389 77.33806795 14 77 C33.34563599 70.95221172 47.13090195 54.81974836 56.32617188 37.50244141 C61.69683686 26.96962419 66.40203779 16.2673027 70 5 C92.0864363 9.57947707 110.66850532 23.06615361 127 38 C127.89460937 38.81082031 128.78921875 39.62164062 129.7109375 40.45703125 C146.97792614 56.87973496 157.6848543 77.76198041 163.25 100.75 C163.49508301 101.75909424 163.49508301 101.75909424 163.74511719 102.78857422 C171.26535231 135.76376299 163.30254069 170.46484863 146 199 C140.81641251 206.97663162 134.51617833 214.09707008 128 221 C127.04867187 222.03060547 127.04867187 222.03060547 126.078125 223.08203125 C104.88384766 245.28347466 72.74887446 259.45857018 42.1171875 260.30078125 C39.70319912 260.32009712 37.28904026 260.32357358 34.875 260.3125 C33.60253418 260.30758545 32.33006836 260.3026709 31.01904297 260.29760742 C5.79597515 259.98548036 -19.30223731 252.7584047 -40 238 C-41.01320313 237.28328125 -42.02640625 236.5665625 -43.0703125 235.828125 C-55.48825889 226.78900642 -66.66190062 215.94507447 -75 203 C-75.35900391 202.4529541 -75.71800781 201.9059082 -76.08789062 201.34228516 C-94.60961733 172.90496625 -101.85184753 137.23038791 -96.09375 103.65625 C-95.03697681 98.66801299 -93.61497146 93.83311845 -92 89 C-91.77538086 88.2879541 -91.55076172 87.5759082 -91.31933594 86.84228516 C-86.8124222 72.70815758 -79.75667479 59.22336446 -70 48 C-69.33613281 47.21625 -68.67226563 46.4325 -67.98828125 45.625 C-54.24853832 29.83786271 -22.31798755 0 0 0 Z " fill="#14A898" transform="translate(594,379)"/>
<path d="M0 0 C30.10060528 7.89524073 57.502721 24.79261558 80 46 C80.71285156 46.64839844 81.42570312 47.29679687 82.16015625 47.96484375 C104.44303015 69.03449402 118.23040129 97.4143464 125 127 C125.31904297 128.38058594 125.31904297 128.38058594 125.64453125 129.7890625 C137.1476285 183.2495001 116.32882322 237.65840919 87.78416443 282.0519104 C75.83039762 300.48488722 63.07480827 318.26773323 49.09375 335.21875 C46.09400253 338.86183484 43.20038749 342.58062623 40.3125 346.3125 C36.18599081 351.61992889 31.84189702 356.61838668 27.26953125 361.55078125 C25.28619538 363.69114544 23.35039811 365.85936908 21.4375 368.0625 C9.73246266 381.50968243 -2.38417197 394.59265221 -14.9465332 407.24169922 C-16.11700607 408.42382593 -17.28296351 409.61043904 -18.44458008 410.80126953 C-32.68916727 425.4010289 -32.68916727 425.4010289 -41.8984375 427.734375 C-51.91446232 427.79756759 -58.34418866 422.77043335 -65.27709961 415.92919922 C-66.68189968 414.50567497 -68.06759258 413.0633782 -69.453125 411.62109375 C-71.54498191 409.46827782 -73.64845915 407.49683411 -75.9375 405.5625 C-83.60905787 398.99589903 -90.68824783 391.67869401 -97.2265625 383.9921875 C-99.39113418 381.56062019 -101.68429453 379.28788919 -104 377 C-107.57083512 373.46686601 -110.96551225 369.86626905 -114.23046875 366.05078125 C-116.23786023 363.72433417 -118.30466638 361.45807314 -120.375 359.1875 C-124.22900618 354.91824736 -127.87378482 350.51535613 -131.48828125 346.04296875 C-134.40480071 342.50958048 -137.41744132 339.06973389 -140.4375 335.625 C-145.78975722 329.49357274 -150.85026745 323.20871311 -155.72558594 316.69091797 C-157.05391899 314.92845921 -158.40394479 313.18431099 -159.7578125 311.44140625 C-172.70689048 294.65281417 -184.17114077 276.78423815 -194 258 C-194.53463867 256.98631348 -194.53463867 256.98631348 -195.08007812 255.95214844 C-217.40865446 213.37159448 -227.65007534 164.95537777 -213.53125 117.99609375 C-200.97580382 77.98386921 -200.97580382 77.98386921 -189 70 C-186.8038735 69.43110342 -184.58746713 68.9389672 -182.36328125 68.4921875 C-181.40412056 68.29666794 -181.40412056 68.29666794 -180.42558289 68.09719849 C-178.38909197 67.68355741 -176.35088954 67.27916966 -174.3125 66.875 C-172.92891341 66.59566084 -171.54544819 66.31571982 -170.16210938 66.03515625 C-166.77611844 65.34978919 -163.38853167 64.67270691 -160 64 C-161.60084715 67.36217473 -163.45890325 69.77015683 -165.9375 72.5625 C-187.03062253 98.09806474 -197.49951016 131.77126905 -197.3125 164.5625 C-197.31001251 165.26243073 -197.30752502 165.96236145 -197.30496216 166.6835022 C-197.08027208 207.72008051 -181.2230546 244.26691053 -152.46386719 273.5546875 C-133.2520497 292.52299296 -108.01501613 305.32464296 -82 312 C-81.01290039 312.26466064 -81.01290039 312.26466064 -80.00585938 312.53466797 C-56.18870958 318.6216751 -27.36308749 316.82187484 -4 310 C-2.85724609 309.67902344 -2.85724609 309.67902344 -1.69140625 309.3515625 C20.28910669 303.0042486 40.47431714 290.6208489 56.890625 274.8359375 C59 273 59 273 61 273 C61.38671875 272.11441406 61.38671875 272.11441406 61.78125 271.2109375 C63.1017075 268.81549217 64.47878247 267.45569293 66.5 265.625 C91.16558427 241.45005123 104.74046781 203.05418941 105.23657227 169.14746094 C105.3834149 134.72754635 95.2569514 103.18782443 74 76 C73.56961426 75.44860352 73.13922852 74.89720703 72.69580078 74.32910156 C54.4594117 51.27159813 30.46608599 35.33913184 3.09716797 25.00537109 C2.1898291 24.65555176 1.28249023 24.30573242 0.34765625 23.9453125 C-0.46695068 23.64125488 -1.28155762 23.33719727 -2.12084961 23.02392578 C-4 22 -4 22 -5 19 C-4.76220703 17.13061523 -4.76220703 17.13061523 -4.2578125 15.05859375 C-4.07863281 14.31029297 -3.89945313 13.56199219 -3.71484375 12.79101562 C-3.52019531 12.01435547 -3.32554687 11.23769531 -3.125 10.4375 C-2.93808594 9.65697266 -2.75117187 8.87644531 -2.55859375 8.07226562 C-1.15803571 2.31607143 -1.15803571 2.31607143 0 0 Z " fill="#EA7556" transform="translate(675,343)"/>
<path d="M0 0 C4.27638529 3.26507796 6.49133979 6.47401937 8.1875 11.5625 C8.80179477 28.08379628 -1.29128806 44.15280884 -11.98046875 55.828125 C-31.85008681 76.89800481 -58.39995994 91.26884384 -83.70605469 104.75439453 C-85.83304321 105.90934296 -87.92181444 107.11288099 -90.0078125 108.33984375 C-93 110 -93 110 -95 110 C-94.50388315 103.74892766 -93.62683252 97.66173124 -92.5 91.5 C-91.38935373 85.34144645 -90.31349712 79.26072183 -90 73 C-89.93554688 71.74316406 -89.87109375 70.48632812 -89.8046875 69.19140625 C-89.53358269 61.48259999 -89.26322362 53.52946406 -94 47 C-96.86103604 45.25878378 -96.86103604 45.25878378 -100 46 C-105.65641353 50.11375529 -106.62396893 55.47339672 -107.72680664 62.05957031 C-107.95853557 63.5651532 -108.18609377 65.07138211 -108.41015625 66.578125 C-108.67495696 68.29201315 -108.94045108 70.00579426 -109.20654297 71.71948242 C-109.41461578 73.06917618 -109.41461578 73.06917618 -109.62689209 74.44613647 C-129.64087591 203.26950706 -129.64087591 203.26950706 -162 229 C-163.6569096 229.69055976 -165.32294258 230.35992137 -167 231 C-167.1887462 200.78028166 -167.1887462 200.78028166 -166.5 186.375 C-166.09771668 177.47392888 -165.80562635 168.57459886 -165.71289062 159.66485596 C-165.68796381 157.66226233 -165.64299918 155.65995025 -165.59765625 153.65771484 C-165.58992187 152.44293457 -165.5821875 151.2281543 -165.57421875 149.9765625 C-165.55963623 148.89455566 -165.54505371 147.81254883 -165.5300293 146.69775391 C-165.75469367 143.8939678 -165.75469367 143.8939678 -167.84301758 142.13037109 C-170.02796456 140.78132954 -170.02796456 140.78132954 -172.9375 140.9375 C-176.84450076 142.29299006 -178.97133355 144.49393515 -181 148 C-181.23976563 148.98484375 -181.47953125 149.9696875 -181.7265625 150.984375 C-183.42493651 155.00629138 -185.7962289 155.95801438 -189.625 157.5625 C-190.34502197 157.88275146 -191.06504395 158.20300293 -191.80688477 158.53295898 C-194.52461597 159.72249682 -197.2593591 160.86419967 -200 162 C-201.20350098 162.50015625 -202.40700195 163.0003125 -203.64697266 163.515625 C-211.87961223 166.92592724 -220.14118578 170.26146066 -228.41699219 173.56542969 C-231.27596201 174.71010853 -234.12830546 175.86812601 -236.9765625 177.0390625 C-306.17180819 205.18232537 -306.17180819 205.18232537 -329.8125 196.625 C-333 195 -333 195 -335 193 C-335.41776929 189.3097046 -335.51836328 186.90228075 -333.64453125 183.640625 C-329.7521787 179.75402186 -325.17146332 177.57066282 -320.3125 175.0625 C-313.8827609 171.70238685 -307.69631058 168.29332847 -301.76635742 164.09936523 C-300 163 -300 163 -298 163 C-297.94577053 161.5629191 -297.90710277 160.12524538 -297.875 158.6875 C-297.85179687 157.88699219 -297.82859375 157.08648437 -297.8046875 156.26171875 C-297.84182678 153.71611424 -297.84182678 153.71611424 -300 151 C-306.79024406 151.6016672 -311.16182324 154.14475363 -316.9140625 157.6015625 C-320.45649003 159.2068651 -321.38511993 159.18404855 -325 158 C-327.32069397 156.17378235 -327.32069397 156.17378235 -329.72680664 153.7590332 C-330.63447281 152.85752029 -331.54213898 151.95600739 -332.47731018 151.0271759 C-333.45528565 150.03539933 -334.43289199 149.04325864 -335.41015625 148.05078125 C-336.42402795 147.03452312 -337.43864254 146.01900564 -338.45396423 145.00419617 C-340.5791707 142.87586415 -342.69750047 140.74099305 -344.81079102 138.60083008 C-347.5095024 135.86822625 -350.22110479 133.14888559 -352.93756962 130.43394184 C-355.03406207 128.33690323 -357.12528367 126.23467387 -359.21481133 124.13069725 C-360.21230112 123.12687587 -361.21097786 122.12423241 -362.21089363 121.12282753 C-363.61315241 119.71619204 -365.00800994 118.30219029 -366.40258789 116.88793945 C-367.19580948 116.08709427 -367.98903107 115.28624908 -368.80628967 114.46113586 C-374.98901113 107.52470614 -374.98901113 107.52470614 -375.015625 103.83203125 C-372.69980617 99.65465036 -367.94419304 97.46256612 -364 95 C-362.94296875 94.33742188 -361.8859375 93.67484375 -360.796875 92.9921875 C-359.70890625 92.35539062 -358.6209375 91.71859375 -357.5 91.0625 C-356.4996875 90.47597656 -355.499375 89.88945312 -354.46875 89.28515625 C-349.38323951 87.40099752 -344.27638369 86.86374156 -339.06054688 88.67260742 C-337.1083022 89.68757107 -335.3217223 90.8282312 -333.5 92.0625 C-332.41682495 92.75835205 -332.41682495 92.75835205 -331.31176758 93.46826172 C-328.5199196 95.28161277 -325.76040598 97.13910489 -323 99 C-321.68825855 99.87817077 -320.37622738 100.75590887 -319.06396484 101.63330078 C-311.71420506 106.55188904 -304.38477828 111.49991114 -297.07421875 116.4765625 C-296.38629242 116.942332 -295.69836609 117.4081015 -294.98959351 117.88798523 C-291.72004729 120.10898246 -288.4865098 122.35994404 -285.31103516 124.71386719 C-284.73215042 125.13606537 -284.15326569 125.55826355 -283.55683899 125.99325562 C-282.00910005 127.127013 -280.4743254 128.27841018 -278.94067383 129.43115234 C-275.34716768 131.34828564 -273.0207739 131.39776921 -269 131 C-265.76655274 129.55467306 -265.76655274 129.55467306 -262.5625 127.375 C-261.24627222 126.54322541 -259.92844681 125.71397572 -258.609375 124.88671875 C-257.88298828 124.42700684 -257.15660156 123.96729492 -256.40820312 123.49365234 C-251.77275678 120.61858536 -247.03351829 117.91883142 -242.3125 115.1875 C-234.21313738 110.47777996 -226.14820379 105.71732617 -218.12426758 100.88037109 C-212.96942183 97.77547915 -207.80267226 94.69161877 -202.625 91.625 C-201.97016632 91.23715332 -201.31533264 90.84930664 -200.64065552 90.44970703 C-199.97436127 90.05509277 -199.30806702 89.66047852 -198.62158203 89.25390625 C-182.34534936 79.61418431 -166.13993977 69.86626775 -150 60 C-148.84555479 59.29506101 -147.69109508 58.59014576 -146.53662109 57.88525391 C-135.41487341 51.09155452 -124.31823983 44.27269548 -113.40307617 37.15087891 C-31.41995211 -16.25799847 -31.41995211 -16.25799847 0 0 Z " fill="#FBF2E9" transform="translate(778,202)"/>
<path d="M0 0 C-0.969375 0.59425781 -1.93875 1.18851562 -2.9375 1.80078125 C-12.83881257 7.90704825 -22.49728581 14.29115496 -32 21 C-33.07121094 21.75603516 -33.07121094 21.75603516 -34.1640625 22.52734375 C-53.38635564 36.14596486 -71.9429319 50.53879253 -89.26953125 66.515625 C-91.35684117 68.41480828 -93.4676436 70.25805851 -95.609375 72.09375 C-100.5866994 76.43874538 -105.2663496 81.08028501 -109.93579102 85.75048828 C-111.42641615 87.23893237 -112.92487017 88.71917277 -114.42382812 90.19921875 C-120.72998705 96.46819697 -126.51851962 102.98337033 -132 110 C-132.50233154 110.63776367 -133.00466309 111.27552734 -133.5222168 111.93261719 C-140.08569884 120.41070533 -144.95581792 129.0917539 -149 139 C-149.3609375 139.84820313 -149.721875 140.69640625 -150.09375 141.5703125 C-154.87543991 154.63140994 -152.3760126 169.05744196 -146.9375 181.4140625 C-132.9993009 208.80649546 -100.46187289 221.77032139 -72.99072266 231.02685547 C-31.80822676 244.42713536 11.45650838 250.02443641 54.59375 251.22973633 C55.5135968 251.26029114 56.4334436 251.29084595 57.38116455 251.32232666 C59.10961168 251.37927538 60.83848215 251.42493455 62.56756592 251.45721436 C67.17561336 251.61822607 70.25705045 252.03556308 74 255 C75.43798828 256.56225586 75.43798828 256.56225586 76.5703125 258.21484375 C76.99183594 258.81876953 77.41335938 259.42269531 77.84765625 260.04492188 C78.26917969 260.66947266 78.69070313 261.29402344 79.125 261.9375 C79.98150744 263.17596345 80.83827166 264.41424936 81.6953125 265.65234375 C82.09137695 266.2335498 82.48744141 266.81475586 82.89550781 267.41357422 C83.82262033 268.74522256 84.80746286 270.03641878 85.8046875 271.31640625 C87 273 87 273 87 275 C6.04233736 279.93321992 -103.28299891 279.69127399 -168.48046875 224.23046875 C-169.31191406 223.49441406 -170.14335937 222.75835938 -171 222 C-171.77988281 221.31550781 -172.55976563 220.63101563 -173.36328125 219.92578125 C-187.22532405 206.97350983 -195.58259843 189.25345363 -196.375 170.3125 C-195.74577344 141.62717146 -177.03214868 117.76811851 -158.4375 97.75 C-157.82430908 97.08814697 -157.21111816 96.42629395 -156.5793457 95.74438477 C-152.29197934 91.18980739 -147.75689055 87.05661922 -143 83 C-141.90493319 82.03925927 -140.81110985 81.07709868 -139.71875 80.11328125 C-103.05996263 48.08905877 -58.96883906 20.77721569 -13.625 3.1875 C-12.49473389 2.74833252 -11.36446777 2.30916504 -10.19995117 1.85668945 C-2.25920246 -1.12960123 -2.25920246 -1.12960123 0 0 Z " fill="#FAF2E9" transform="translate(411,389)"/>
<path d="M0 0 C10.78824282 7.66064215 13.88721484 18.57487952 16.81640625 30.94921875 C17.21859375 32.53863281 17.21859375 32.53863281 17.62890625 34.16015625 C20.35529089 45.51081883 21.03610826 56.3449543 15.3125 66.8828125 C6.99502186 79.95961056 -4.17753557 89.1504334 -17.87109375 96.13671875 C-18.54527344 96.48355713 -19.21945312 96.83039551 -19.9140625 97.18774414 C-23.49948266 98.936981 -26.4307308 100.30137022 -30.43359375 99.57421875 C-32.21875 98.57421875 -32.21875 98.57421875 -33.43359375 96.57421875 C-33.7701829 93.80872948 -33.90631616 91.33947131 -33.87109375 88.57421875 C-33.86787109 87.78619873 -33.86464844 86.99817871 -33.86132812 86.1862793 C-33.70310649 79.27158471 -32.49927945 72.73793016 -30.85717773 66.03320312 C-29.74028682 61.44833362 -29.09069351 57.33872733 -29.43359375 52.57421875 C-32.271958 48.37343966 -35.67727853 47.78263217 -40.43359375 46.57421875 C-42.39827889 46.23398799 -44.36321781 45.89417589 -46.33325195 45.58642578 C-54.47792683 44.288664 -60.74988601 42.60327409 -66.43359375 36.38671875 C-68.66303482 30.11641573 -68.17385412 24.45249097 -65.37109375 18.44921875 C-58.97416976 7.06305042 -49.07705844 -0.65573069 -36.640625 -4.765625 C-24.45702607 -7.27357654 -10.86175208 -6.36362682 0 0 Z " fill="#3CD7B1" transform="translate(678.43359375,508.42578125)"/>
<path d="M0 0 C3.3936784 4.04303828 3.38483147 8.07610459 3.4375 13.125 C3.86279543 24.53142355 7.51145656 32.41952553 13.38671875 42.14453125 C20.65846649 55.01534868 20.77484935 71.00203741 17 85 C14.45671083 93.85628325 10.62536975 104.37463025 4 111 C2.0625 111.0625 2.0625 111.0625 0 110 C-6.58656257 98.67111238 -6.70352619 83.58179628 -7.58129883 70.77734375 C-7.72459028 68.74322304 -7.89014731 66.71185736 -8.05859375 64.6796875 C-8.14423584 63.49101074 -8.22987793 62.30233398 -8.31811523 61.07763672 C-9.11459894 57.48276612 -10.11631731 56.2284957 -13 54 C-15.6776618 53.10744607 -17.27471715 52.86343661 -20.02490234 52.82641602 C-20.82938812 52.81292618 -21.6338739 52.79943634 -22.46273804 52.78553772 C-23.32839386 52.77509933 -24.19404968 52.76466095 -25.0859375 52.75390625 C-26.92187978 52.72096829 -28.75781716 52.68775663 -30.59375 52.65429688 C-33.48596846 52.60689554 -36.37816699 52.56245701 -39.27050781 52.52319336 C-42.06335999 52.48341118 -44.85580877 52.43188316 -47.6484375 52.37890625 C-48.51004486 52.3704921 -49.37165222 52.36207794 -50.2593689 52.35340881 C-55.44868684 52.24689466 -59.37531477 51.71962136 -63.8125 48.8125 C-65.27165671 46.58536607 -65.803312 44.73551406 -65.625 42.06640625 C-62.23805729 30.86832693 -47.60753222 24.18771398 -38.42382812 18.50585938 C-35.68147415 16.80210843 -32.97054095 15.05455835 -30.26513672 13.29296875 C-28.59784895 12.21045097 -26.92010323 11.144095 -25.2421875 10.078125 C-22.99275469 8.63631987 -20.77731808 7.17488957 -18.5703125 5.671875 C-12.32577145 1.49633531 -7.65196335 -1.60444393 0 0 Z " fill="#3DD8B1" transform="translate(715,432)"/>
<path d="M0 0 C1.8871875 0.0309375 1.8871875 0.0309375 3.8125 0.0625 C4.28370462 15.61225241 -4.0200539 27.9309952 -14.203125 38.9609375 C-34.19942188 59.93297256 -60.55790672 74.31559501 -85.89355469 87.81689453 C-88.02054321 88.97184296 -90.10931444 90.17538099 -92.1953125 91.40234375 C-95.1875 93.0625 -95.1875 93.0625 -97.1875 93.0625 C-96.63107054 86.05148885 -95.55806222 79.23704061 -94.27197266 72.33129883 C-93.40584969 67.59821639 -92.82142219 62.95988235 -92.69140625 58.140625 C-89.84217715 46.39031583 -70.70017612 35.87399646 -61.27197266 29.48388672 C-59.35692548 28.17803 -57.46342213 26.84674551 -55.57421875 25.50390625 C-40.82056852 15.15580283 -24.47610278 6.2862036 -7.1875 1.0625 C-4.43671116 0.14557039 -2.82801087 -0.04636083 0 0 Z " fill="#A69EF9" transform="translate(780.1875,218.9375)"/>
<path d="M0 0 C2.03600217 3.05400326 2.45263123 4.60234094 3.03735352 8.14233398 C3.21416153 9.19029648 3.39096954 10.23825897 3.57313538 11.31797791 C3.75653976 12.44925613 3.93994415 13.58053436 4.12890625 14.74609375 C4.32346909 15.90875259 4.51803192 17.07141144 4.7184906 18.26930237 C5.33998805 21.99093675 5.95157798 25.71411635 6.5625 29.4375 C7.17892904 33.15696609 7.79738116 36.87608683 8.41722107 40.59498596 C8.80250285 42.91061474 9.18544111 45.2266349 9.56581116 47.54307556 C9.82629494 49.11974754 9.82629494 49.11974754 10.09204102 50.72827148 C10.24367203 51.65187973 10.39530304 52.57548798 10.55152893 53.52708435 C10.94877145 55.71752049 11.44704558 57.84504106 12 60 C12.55350279 63.79044314 12.77019876 67.31053175 11.15234375 70.859375 C6.43904654 77.14377128 -1.15534032 80.50046253 -8 84 C-9.09320557 84.56098389 -9.09320557 84.56098389 -10.20849609 85.13330078 C-12.4627738 86.27618518 -14.72769934 87.39342596 -17 88.5 C-17.70552002 88.85054443 -18.41104004 89.20108887 -19.13793945 89.56225586 C-23.23432458 91.49895063 -26.3673548 92.54623727 -31 92 C-32.875 90.5625 -32.875 90.5625 -34 88 C-34.9929033 78.84543162 -31.69905593 70.62943928 -28.875 62.0625 C-28.36126367 60.47766073 -27.84840913 58.89253535 -27.33642578 57.30712891 C-26.33912288 54.22512044 -25.33440967 51.14567738 -24.32421875 48.06787109 C-23.2622709 44.82297861 -22.24111351 41.56812747 -21.25 38.30078125 C-17.13114635 24.89262813 -11.17519555 11.74169235 -2 1 C-1.34 0.67 -0.68 0.34 0 0 Z " fill="#3ED8B2" transform="translate(562,415)"/>
<path d="M0 0 C2.4085209 1.11488032 4.8200842 2.22295195 7.23217773 3.33007812 C16.57208984 7.62967009 25.81867723 12.07565888 34.98022461 16.74414062 C31.44637399 19.71606577 27.87695405 22.05518959 23.83178711 24.27539062 C22.96836197 24.75208191 22.96836197 24.75208191 22.0874939 25.23840332 C20.26248911 26.24478685 18.43400852 27.24464397 16.60522461 28.24414062 C14.78812149 29.24306407 12.9717521 30.2433066 11.15570068 31.24414062 C9.43691303 32.18944703 7.71495328 33.12897856 5.99291992 34.06835938 C3.57529522 35.41313863 1.22763944 36.8171455 -1.12133789 38.27539062 C-4.01977539 39.74414062 -4.01977539 39.74414062 -6.07836914 39.80664062 C-9.07001816 38.16935987 -11.54269771 35.99171767 -14.08227539 33.74414062 C-15.24568725 32.73687822 -16.40976017 31.73037887 -17.57446289 30.72460938 C-18.44409668 29.96929932 -18.44409668 29.96929932 -19.33129883 29.19873047 C-25.05519818 24.26770208 -30.9784591 19.56599076 -36.89477539 14.86914062 C-38.60448766 13.49585561 -40.31267709 12.12067365 -42.01977539 10.74414062 C-42.58116211 10.2971582 -43.14254883 9.85017578 -43.72094727 9.38964844 C-45.53902468 7.93655643 -47.34272032 6.46703533 -49.14477539 4.99414062 C-50.01658447 4.30408936 -50.01658447 4.30408936 -50.90600586 3.60009766 C-52.52758789 2.25976562 -52.52758789 2.25976562 -55.01977539 -0.25585938 C-55.01977539 -1.57585937 -55.01977539 -2.89585937 -55.01977539 -4.25585938 C-52.75015939 -5.40415915 -50.47916761 -6.54957915 -48.20727539 -7.69335938 C-47.56467773 -8.01884766 -46.92208008 -8.34433594 -46.26000977 -8.6796875 C-29.89444599 -16.90486722 -15.13141048 -7.00661764 0 0 Z " fill="#FAF2E9" transform="translate(567.019775390625,240.255859375)"/>
<path d="M0 0 C0.42667969 0.32871094 0.85335937 0.65742187 1.29296875 0.99609375 C3.51334758 2.6854129 5.75374257 4.34522284 8 6 C8.89847656 6.66515625 9.79695312 7.3303125 10.72265625 8.015625 C18.21177643 13.38846477 25.96481952 17.85908358 34.19628906 22.01831055 C39.16587353 24.61931909 42.58944419 26.69143526 45 32 C45.70567858 37.90916712 44.20936966 43.47293968 42.8125 49.1875 C42.47955933 50.57328247 42.47955933 50.57328247 42.13989258 51.98706055 C40.39351128 58.99284253 38.16566081 65.49355671 35 72 C23.60380529 68.25439754 16.20843762 54.0865834 10.89257812 43.87207031 C3.98013032 29.94244064 -1.07601202 15.78150963 0 0 Z " fill="#3DD9B2" transform="translate(537,527)"/>
<path d="M0 0 C-5.7580669 3.7823553 -11.32204301 3.42181263 -18.05012512 3.38526917 C-19.27396729 3.39050486 -20.49780945 3.39574056 -21.75873774 3.40113491 C-25.14844619 3.41267807 -28.53767093 3.4108602 -31.92735922 3.40342176 C-35.5859711 3.39867926 -39.24452791 3.41124778 -42.90312195 3.42178345 C-49.24145294 3.43775638 -55.57972003 3.44303458 -61.91806984 3.44125557 C-71.09202759 3.43887089 -80.26588333 3.45486878 -89.43981441 3.47570812 C-104.33722885 3.50923456 -119.23463416 3.53089531 -134.13208008 3.54370117 C-135.02351071 3.54447066 -135.91494134 3.54524015 -136.83338501 3.54603296 C-140.44510271 3.5491351 -144.05682043 3.55221792 -147.66853817 3.555273 C-157.60462992 3.56379921 -167.54071849 3.57470137 -177.47680664 3.58666992 C-178.36624034 3.58773794 -179.25567405 3.58880596 -180.17206029 3.58990634 C-195.01050081 3.60800871 -209.84891964 3.6340073 -224.68733901 3.66480106 C-233.8360709 3.68333911 -242.98475406 3.69426983 -252.13350501 3.69532298 C-258.40452055 3.69642782 -264.67550272 3.70439108 -270.94650415 3.71770663 C-274.56278391 3.72511311 -278.17899062 3.72923016 -281.79527664 3.72458839 C-285.71987122 3.71959921 -289.64434194 3.72997224 -293.56892395 3.74171448 C-294.70590015 3.73773338 -295.84287634 3.73375229 -297.01430637 3.72965056 C-305.890487 3.77670634 -313.94752913 4.18171153 -321 10 C-321.9087998 12.72639941 -322.13078619 14.3360716 -322.14717102 17.14128113 C-322.15432632 17.9836734 -322.16148163 18.82606567 -322.16885376 19.69398499 C-322.17154266 20.61505539 -322.17423157 21.53612579 -322.17700195 22.48510742 C-322.18357315 23.45780579 -322.19014435 24.43050415 -322.19691467 25.43267822 C-322.21665076 28.6569425 -322.22831175 31.88116017 -322.23828125 35.10546875 C-322.24235678 36.20702112 -322.2464323 37.30857349 -322.25063133 38.44350624 C-322.2714946 44.27524249 -322.28579455 50.1069552 -322.29516602 55.9387207 C-322.30622359 61.95667796 -322.3406156 67.97426477 -322.38033772 73.99209118 C-322.40650922 78.62387266 -322.41485841 83.25556601 -322.41844749 87.88741493 C-322.42331299 90.10532441 -322.43492586 92.32322996 -322.45348549 94.54106712 C-322.47788484 97.65031466 -322.47691 100.75860556 -322.4699707 103.86791992 C-322.48278076 104.77886917 -322.49559082 105.68981842 -322.50878906 106.62837219 C-322.46131712 112.48384156 -321.62234295 117.25365077 -318 122 C-313.31196834 125.42246904 -308.82761859 125.44237899 -303.24072266 125.43237305 C-302.38153229 125.4425647 -301.52234192 125.45275635 -300.63711548 125.46325684 C-297.81269757 125.49331893 -294.9886192 125.50264239 -292.1640625 125.51171875 C-290.19964476 125.52857046 -288.23523778 125.54672137 -286.27084351 125.56611633 C-281.11211506 125.61356889 -275.95343022 125.64340901 -270.79455566 125.66955566 C-265.52570996 125.69938506 -260.25701438 125.74590725 -254.98828125 125.79101562 C-244.65893278 125.87699482 -234.32955336 125.94436412 -224 126 C-224 126.33 -224 126.66 -224 127 C-230.96148295 127.90941342 -237.76112898 128.14629793 -244.77734375 128.1328125 C-245.90153214 128.13376923 -247.02572052 128.13472595 -248.18397522 128.13571167 C-250.56332454 128.13638994 -252.94267575 128.13456037 -255.32202148 128.13037109 C-258.86772115 128.12510366 -262.41328907 128.13028328 -265.95898438 128.13671875 C-272.97341812 128.14050608 -279.98613921 128.08738731 -287 128 C-288.20585754 127.98674683 -289.41171509 127.97349365 -290.65411377 127.95983887 C-294.20912849 127.91051236 -297.76219029 127.8313804 -301.31640625 127.7421875 C-302.92575294 127.72177902 -302.92575294 127.72177902 -304.56761169 127.70095825 C-310.85197305 127.50306277 -315.04798033 127.02359105 -320 123 C-324.13018009 117.17590918 -324.57354535 111.57802778 -324.50170898 104.62426758 C-324.50711197 103.61675949 -324.51251495 102.6092514 -324.51808167 101.57121277 C-324.53052498 98.26201435 -324.51411014 94.9536932 -324.49609375 91.64453125 C-324.4962488 89.33623713 -324.49773882 87.02794274 -324.50050354 84.71965027 C-324.50188544 79.89216545 -324.48936111 75.06497849 -324.46655273 70.23754883 C-324.43812124 64.0501832 -324.44092135 57.86331047 -324.45364285 51.67590809 C-324.46059596 46.91383146 -324.45281567 42.15186882 -324.44038582 37.38980675 C-324.43587114 35.10804367 -324.43553466 32.82626835 -324.43945122 30.54450417 C-324.44236097 27.35859673 -324.42586871 24.17337022 -324.40405273 20.98754883 C-324.40855438 20.04561676 -324.41305603 19.10368469 -324.41769409 18.13320923 C-324.36249306 13.28233803 -324.20991672 9.90299007 -321 6 C-315.77990469 2.00162913 -311.3688489 1.47131131 -304.8671875 1.17578125 C-302.03092684 1.07962803 -302.03092684 1.07962803 -299.4453125 0.41796875 C-296.6334599 -0.06265142 -294.77636904 0.39680077 -292 1 C-289.66809953 1.0917646 -287.33369991 1.13002953 -285 1.125 C-283.80375 1.12757813 -282.6075 1.13015625 -281.375 1.1328125 C-278.07378662 1.09306684 -278.07378662 1.09306684 -275.1875 0.4296875 C-273 0 -273 0 -271 1 C-269.4833426 1.06192149 -267.96377807 1.05793697 -266.44628906 1.02172852 C-265.4795224 1.0016423 -264.51275574 0.98155609 -263.51669312 0.96086121 C-261.9074144 0.9202935 -261.9074144 0.9202935 -260.265625 0.87890625 C-257.89046993 0.82954402 -255.51530667 0.78057475 -253.14013672 0.73193359 C-251.85943298 0.70411804 -250.57872925 0.67630249 -249.25921631 0.64764404 C-221.42717896 0.0486857 -193.59775208 -0.11894833 -165.7598114 -0.12382889 C-162.88304227 -0.12499674 -160.00628316 -0.12835033 -157.1295166 -0.1322937 C-152.54835364 -0.13816578 -147.96722337 -0.13843495 -143.38605881 -0.13425636 C-141.69325144 -0.13330951 -140.00044236 -0.13389554 -138.30763626 -0.13617516 C-123.80801601 -0.1521399 -123.80801601 -0.1521399 -117.35766602 0.49780273 C-107.43812945 1.4450101 -97.42713234 1.16466225 -87.47265625 1.16796875 C-85.19249959 1.17118639 -82.91234313 1.17455084 -80.63218689 1.17805481 C-75.87579875 1.18401492 -71.11942871 1.18589763 -66.36303711 1.18530273 C-60.26781322 1.1852006 -54.17270447 1.19891948 -48.07750797 1.21607494 C-43.37895675 1.22718064 -38.68043366 1.22922248 -33.98187065 1.22869301 C-31.73359208 1.22987271 -29.48531278 1.23429393 -27.2370472 1.24202538 C-24.10203984 1.25180811 -20.96728672 1.24895532 -17.83227539 1.24291992 C-16.90597824 1.24853943 -15.97968109 1.25415894 -15.02531433 1.25994873 C-9.97609219 1.23521249 -4.43226292 -1.47742097 0 0 Z " fill="#42399B" transform="translate(514,216)"/>
<path d="M0 0 C0.33 0 0.66 0 1 0 C1.00364563 1.08914703 1.00729126 2.17829407 1.01104736 3.30044556 C1.04800774 13.57062381 1.10579195 23.84050252 1.18390274 34.11045265 C1.22339176 39.39021666 1.25557334 44.66981352 1.27099609 49.94970703 C1.28615316 55.04626601 1.32058214 60.14236553 1.36830902 65.23871994 C1.38313256 67.18189879 1.39104157 69.12514324 1.39188385 71.06837845 C1.39425232 73.79298998 1.421322 76.51633052 1.45410156 79.24072266 C1.4490712 80.04201599 1.44404083 80.84330933 1.43885803 81.66888428 C1.5355648 86.87298919 2.48376948 89.92561298 6 94 C10.65773734 98.24887657 16.56195446 97.40639144 22.50390625 97.35644531 C23.66703339 97.35848969 24.83016052 97.36053406 26.02853394 97.36264038 C29.8733492 97.36564847 33.71773569 97.34716897 37.5625 97.328125 C40.23381211 97.32506718 42.90510441 97.32309116 45.57641602 97.32244873 C51.17502363 97.31875941 56.7735084 97.30380976 62.37207031 97.28125 C69.55147343 97.2523785 76.73077767 97.24202575 83.91023254 97.2375679 C89.42632061 97.23401125 94.94239032 97.2237891 100.45846558 97.21169281 C103.10586361 97.20599233 105.75326385 97.20123289 108.40066528 97.19742584 C112.09918085 97.19055619 115.79760683 97.17692011 119.49609375 97.16113281 C120.59235077 97.16001495 121.68860779 97.15889709 122.81808472 97.15774536 C123.82743073 97.15203522 124.83677673 97.14632507 125.87670898 97.14044189 C126.75052719 97.13746723 127.6243454 97.13449257 128.52464294 97.13142776 C131.09896804 96.99474534 133.48796842 96.56609292 136 96 C133.54929048 98.96664837 131.76180524 99.46556422 128 100 C125.62539069 100.04307681 123.24965749 100.04033389 120.875 100 C115.84515855 99.88707076 115.84515855 99.88707076 111 101 C109.515 100.505 109.515 100.505 108 100 C104.69480718 100.1723699 101.42184034 100.51408197 98.12890625 100.84375 C95.35965849 100.98203953 93.60477945 100.77857144 91 100 C90.01 100 89.02 100 88 100 C87.67 100.66 87.34 101.32 87 102 C86.67 101.34 86.34 100.68 86 100 C84.515 99.505 84.515 99.505 83 99 C82.67 99.66 82.34 100.32 82 101 C81.43157379 100.92894547 80.86314758 100.85789093 80.27749634 100.78468323 C73.0934637 99.96809428 65.99810556 99.87056332 58.7734375 99.90234375 C57.54460846 99.9037587 56.31577942 99.90517365 55.04971313 99.90663147 C51.15811642 99.91219041 47.26657907 99.9247352 43.375 99.9375 C40.72265709 99.94252031 38.07031326 99.94708228 35.41796875 99.95117188 C28.94529254 99.96214636 22.47265051 99.97884316 16 100 C15.505 100.99 15.505 100.99 15 102 C13.02 101.67 11.04 101.34 9 101 C9.495 100.01 9.495 100.01 10 99 C9.0925 98.46375 8.185 97.9275 7.25 97.375 C3.73642424 95.29879614 1.96586453 92.54100966 0 89 C-0.54449288 86.04003011 -0.5073679 83.15148003 -0.45410156 80.14892578 C-0.45468567 79.27998184 -0.45526978 78.4110379 -0.45587158 77.51576233 C-0.45309645 74.65853196 -0.42203176 71.80235945 -0.390625 68.9453125 C-0.38316057 66.95849172 -0.37746859 64.97166355 -0.37347412 62.98483276 C-0.35823372 57.76667803 -0.31896546 52.54897174 -0.2746582 47.33099365 C-0.23367121 42.00197414 -0.21545577 36.67288185 -0.1953125 31.34375 C-0.15246982 20.89563678 -0.08423765 10.44785575 0 0 Z " fill="#423798" transform="translate(296,672)"/>
<path d="M0 0 C2.63016161 2.1727422 4.47336894 3.94673788 6 7 C6.0407792 11.22472472 5.64803461 14.89294087 3.5 18.5625 C-0.30794079 20.75206595 -3.73030264 20.98765241 -8 20 C-11.16664776 17.41498142 -12.5764456 15.94003044 -13.4375 11.99609375 C-13.66167019 8.30429097 -13.10710782 6.16780225 -11.125 3.0625 C-7.53138797 -0.42541756 -4.95990361 -0.50439698 0 0 Z " fill="#392BA5" transform="translate(576,317)"/>
<path d="M0 0 C2.25726011 1.89121793 3.68646424 3.37292849 5 6 C5.3751455 10.97067782 5.15878799 14.05151502 2 18 C-0.65499724 20.08606926 -2.06750504 19.99879455 -5.5 19.9375 C-9 19 -9 19 -11.4375 17 C-13.5586395 12.92741216 -13.97043452 9.5015114 -13 5 C-8.89664813 -0.18318131 -6.41129517 -1.66693674 0 0 Z " fill="#3B2CA6" transform="translate(645,277)"/>
<path d="M0 0 C2.75329021 1.79562405 4.52627461 3.05254922 6 6 C6.45690679 10.56906789 6.69691391 13.70015133 3.9375 17.5 C1 20 1 20 -2.5625 20.5 C-5.62083399 20.05515142 -7.50220603 19.75770687 -10 18 C-12.83131825 13.75302262 -12.7619332 9.98431301 -12 5 C-8.71154166 0.01748736 -5.83923052 -0.93844776 0 0 Z " fill="#3E2EA7" transform="translate(609,297)"/>
<path d="M0 0 C68.93357906 5.12421539 68.93357906 5.12421539 86 14 C86.495 14.99 86.495 14.99 87 16 C85.75734375 15.5565625 84.5146875 15.113125 83.234375 14.65625 C77.65791546 12.80178336 72.01245457 11.62076358 66.25 10.5 C65.15018799 10.28496826 64.05037598 10.06993652 62.91723633 9.84838867 C46.38674576 6.67546047 30.04522931 4.68747329 13.23901367 3.64575195 C12.0966626 3.57445068 10.95431152 3.50314941 9.77734375 3.4296875 C8.75890381 3.37022949 7.74046387 3.31077148 6.69116211 3.24951172 C4.34853 3.03231404 2.25460703 2.65089057 0 2 C0 1.34 0 0.68 0 0 Z " fill="#433997" transform="translate(688,751)"/>
<path d="M0 0 C7.15973205 10.73959807 4.19834541 29.71936739 4 42 C2.515 42.495 2.515 42.495 1 43 C1.00523682 42.12375977 1.01047363 41.24751953 1.01586914 40.34472656 C1.03310452 37.03466102 1.0455429 33.72464447 1.05493164 30.41455078 C1.05990212 28.99299356 1.06668084 27.57144128 1.07543945 26.14990234 C1.12801256 17.38565643 0.92025062 8.72733736 0 0 Z " fill="#3724B5" transform="translate(777,479)"/>
<path d="M0 0 C-1.4562545 0.67119549 -2.91507867 1.33681807 -4.375 2 C-5.59316406 2.556875 -5.59316406 2.556875 -6.8359375 3.125 C-9 4 -9 4 -11 4 C-11.33 4.99 -11.66 5.98 -12 7 C-15.78537456 9.7374919 -19.8631045 11.70524931 -24.375 12.875 C-29.06430278 14.33030086 -32.61974162 16.8665532 -36.64453125 19.63671875 C-37.42183594 20.08660156 -38.19914063 20.53648437 -39 21 C-39.66 20.67 -40.32 20.34 -41 20 C-32.86945556 14.46576387 -24.53430411 9.55256121 -15.8125 5 C-14.43155151 4.27913208 -14.43155151 4.27913208 -13.02270508 3.54370117 C-3.73968468 -1.24656156 -3.73968468 -1.24656156 0 0 Z " fill="#4538A1" transform="translate(718,187)"/>
<path d="M0 0 C-3.34109139 3.02153961 -5.82386071 3.45720247 -10.26953125 3.73046875 C-12.09774414 3.85131836 -12.09774414 3.85131836 -13.96289062 3.97460938 C-15.23326172 4.04486328 -16.50363281 4.11511719 -17.8125 4.1875 C-19.07126953 4.26935547 -20.33003906 4.35121094 -21.62695312 4.43554688 C-27.42986128 4.79956694 -33.18415485 5.03914378 -39 5 C-39 4.67 -39 4.34 -39 4 C-25.83221769 1.05555388 -13.49598747 -0.59323022 0 0 Z " fill="#493F9B" transform="translate(771,176)"/>
<path d="M0 0 C0.33 0 0.66 0 1 0 C1.33 13.53 1.66 27.06 2 41 C1.01 41 0.02 41 -1 41 C-1.12661845 27.29209146 -0.88467593 13.68088132 0 0 Z " fill="#4E3BAD" transform="translate(609,392)"/>
<path d="M0 0 C0.1598655 9.37877608 -0.33566818 18.65190221 -1 28 C-1.33 28 -1.66 28 -2 28 C-2.33 20.08 -2.66 12.16 -3 4 C-9.93 6.97 -9.93 6.97 -17 10 C-16 7 -16 7 -12.65625 5.17578125 C-11.27566866 4.54401233 -9.88997514 3.92332394 -8.5 3.3125 C-7.79746094 2.99216797 -7.09492187 2.67183594 -6.37109375 2.34179688 C-1.18818297 0 -1.18818297 0 0 0 Z " fill="#0CCF90" transform="translate(594,379)"/>
<path d="M0 0 C6.52663125 0.49257594 6.52663125 0.49257594 8.62890625 2.74609375 C11.59683978 7.62500443 12.89864281 13.42553718 13.5625 19.0625 C13.706875 20.031875 13.85125 21.00125 14 22 C14.66 22.33 15.32 22.66 16 23 C15.2884375 23.556875 15.2884375 23.556875 14.5625 24.125 C12.47794198 26.62646962 12.35378509 28.81593418 12 32 C11.67 32 11.34 32 11 32 C10.96132813 30.11667969 10.96132813 30.11667969 10.921875 28.1953125 C10.9564582 14.9337905 10.9564582 14.9337905 6 3 C2.93630876 1.24995493 2.93630876 1.24995493 0 1 C0 0.67 0 0.34 0 0 Z " fill="#F5F2F5" transform="translate(678,246)"/>
<path d="M0 0 C3.95911594 0.08189714 7.91680421 0.19464361 11.875 0.3125 C13.53789063 0.34633789 13.53789063 0.34633789 15.234375 0.38085938 C22.08299123 0.60243225 28.68050558 1.13296297 35 4 C35.495 4.99 35.495 4.99 36 6 C35.02740234 5.67515625 35.02740234 5.67515625 34.03515625 5.34375 C22.21355637 1.98834189 10.1795442 2.72238327 -2 3 C-1.34 2.67 -0.68 2.34 0 2 C0 1.34 0 0.68 0 0 Z " fill="#1A1191" transform="translate(742,196)"/>
<path d="M0 0 C0.66 0.33 1.32 0.66 2 1 C0.265786 3.80176678 -1.48996353 6.58939521 -3.25 9.375 C-3.74113281 10.1690625 -4.23226562 10.963125 -4.73828125 11.78125 C-5.22167969 12.54179688 -5.70507812 13.30234375 -6.203125 14.0859375 C-6.64301758 14.7876709 -7.08291016 15.4894043 -7.53613281 16.21240234 C-9.17746771 18.21671423 -10.62674972 19.01781215 -13 20 C-10.85458651 13.92132843 -7.51025345 9.51025345 -3 5 C-1.95650161 3.36021682 -0.94392019 1.69905634 0 0 Z " fill="#4738A1" transform="translate(781,628)"/>
<path d="M0 0 C5.12583611 -0.10251672 9.94997778 -0.03590199 15 1 C15 1.66 15 2.32 15 3 C17.97 3 20.94 3 24 3 C24 3.33 24 3.66 24 4 C8.72384555 4.21249674 8.72384555 4.21249674 2 3 C1.34 2.01 0.68 1.02 0 0 Z " fill="#33279F" transform="translate(416,635)"/>
<path d="M0 0 C1.51400391 0.01740234 1.51400391 0.01740234 3.05859375 0.03515625 C4.07050781 0.04417969 5.08242187 0.05320313 6.125 0.0625 C7.29869141 0.07990234 7.29869141 0.07990234 8.49609375 0.09765625 C8.49609375 0.42765625 8.49609375 0.75765625 8.49609375 1.09765625 C7.62597656 1.24460938 7.62597656 1.24460938 6.73828125 1.39453125 C1.54453081 2.3887145 -2.42956977 3.52019007 -6.50390625 7.09765625 C-7.93169899 10.20700643 -7.93169899 10.20700643 -8.50390625 13.09765625 C-8.83390625 13.09765625 -9.16390625 13.09765625 -9.50390625 13.09765625 C-9.24517523 8.69922891 -8.94283736 6.60242703 -6.00390625 3.22265625 C-4.76640625 2.17078125 -4.76640625 2.17078125 -3.50390625 1.09765625 C-2.50390625 0.09765625 -2.50390625 0.09765625 0 0 Z " fill="#4738A5" transform="translate(199.50390625,218.90234375)"/>
<path d="M0 0 C0.66 0 1.32 0 2 0 C2 0.66 2 1.32 2 2 C2.99 2.33 3.98 2.66 5 3 C9.01544845 6.68987155 12.5014533 10.82819346 16 15 C13 15 13 15 11.46606445 13.83837891 C10.937146 13.30647949 10.40822754 12.77458008 9.86328125 12.2265625 C9.28642578 11.6490625 8.70957031 11.0715625 8.11523438 10.4765625 C7.52033203 9.86554687 6.92542969 9.25453125 6.3125 8.625 C5.70599609 8.02171875 5.09949219 7.4184375 4.47460938 6.796875 C0 2.26689925 0 2.26689925 0 0 Z " fill="#DD7A54" transform="translate(587,735)"/>
<path d="M0 0 C1 2 1 2 0.44140625 4.1640625 C0.15136719 4.97617187 -0.13867188 5.78828125 -0.4375 6.625 C-0.72496094 7.44226563 -1.01242187 8.25953125 -1.30859375 9.1015625 C-1.65083984 10.04128906 -1.65083984 10.04128906 -2 11 C-3.32 11 -4.64 11 -6 11 C-6.33 11.99 -6.66 12.98 -7 14 C-7.33 13.34 -7.66 12.68 -8 12 C-6.6015625 9.43359375 -6.6015625 9.43359375 -4.625 6.4375 C-3.65433594 4.95056641 -3.65433594 4.95056641 -2.6640625 3.43359375 C-1 1 -1 1 0 0 Z " fill="#2D20B9" transform="translate(505,420)"/>
<path d="M0 0 C0.33 0.99 0.66 1.98 1 3 C0.31292969 2.98839844 -0.37414062 2.97679687 -1.08203125 2.96484375 C-1.98308594 2.95582031 -2.88414062 2.94679687 -3.8125 2.9375 C-4.70582031 2.92589844 -5.59914063 2.91429687 -6.51953125 2.90234375 C-9.13413791 2.88990033 -9.13413791 2.88990033 -12 4 C-12.99 3.34 -13.98 2.68 -15 2 C-9.87080814 -0.10428384 -5.4389165 -0.21755666 0 0 Z " fill="#F1EAEC" transform="translate(538,228)"/>
<path d="M0 0 C1.125 3.75 1.125 3.75 0 6 C-0.66 6 -1.32 6 -2 6 C-1.95875 6.928125 -1.9175 7.85625 -1.875 8.8125 C-2 12 -2 12 -4 15 C-4.66 15 -5.32 15 -6 15 C-6.33 15.66 -6.66 16.32 -7 17 C-6.37954537 12.76677156 -4.89476441 9.47709705 -2.9375 5.6875 C-2.38964844 4.61886719 -1.84179688 3.55023438 -1.27734375 2.44921875 C-0.64505859 1.23685547 -0.64505859 1.23685547 0 0 Z " fill="#0FC391" transform="translate(513,443)"/>
<path d="M0 0 C1.32 0.66 2.64 1.32 4 2 C4 2.66 4 3.32 4 4 C1.89611431 4.05402274 -0.20816714 4.09280256 -2.3125 4.125 C-4.07013672 4.15980469 -4.07013672 4.15980469 -5.86328125 4.1953125 C-9 4 -9 4 -12 2 C-6.06 1.505 -6.06 1.505 0 1 C0 0.67 0 0.34 0 0 Z " fill="#F0EBEF" transform="translate(494,660)"/>
<path d="M0 0 C0 3.96130371 -1.34877125 4.82914401 -4 7.6875 C-4.7425 8.49574219 -5.485 9.30398438 -6.25 10.13671875 C-6.8275 10.75160156 -7.405 11.36648438 -8 12 C-8.33 10.68 -8.66 9.36 -9 8 C-7.35 6.68 -5.7 5.36 -4 4 C-4.66 3.34 -5.32 2.68 -6 2 C-4.02 1.34 -2.04 0.68 0 0 Z " fill="#E48350" transform="translate(514,407)"/>
<path d="M0 0 C0.33 0.66 0.66 1.32 1 2 C-0.12104533 3.31587941 -1.24696965 4.62760353 -2.375 5.9375 C-3.00148438 6.66839844 -3.62796875 7.39929688 -4.2734375 8.15234375 C-6 10 -6 10 -8 11 C-7.91433603 8.087425 -7.42089045 6.43201976 -5.375 4.33203125 C-3.61608625 2.83908228 -1.83686981 1.39563738 0 0 Z " fill="#3527B3" transform="translate(713,693)"/>
<path d="M0 0 C0.66 0 1.32 0 2 0 C2.39253254 4.44870215 1.15305957 7.14243493 -1 11 C-1.66 11 -2.32 11 -3 11 C-2.34 8.69 -1.68 6.38 -1 4 C-4.3 3.67 -7.6 3.34 -11 3 C-11 2.67 -11 2.34 -11 2 C-7.37 2 -3.74 2 0 2 C0 1.34 0 0.68 0 0 Z " fill="#4D43A8" transform="translate(456,417)"/>
<path d="M0 0 C0.66 0.33 1.32 0.66 2 1 C0.09134118 2.82162878 -1.82606299 4.6321312 -3.75 6.4375 C-4.28882813 6.95376953 -4.82765625 7.47003906 -5.3828125 8.00195312 C-8.20501951 10.63486577 -10.20982766 12.28129751 -14 13 C-13.236875 12.2575 -12.47375 11.515 -11.6875 10.75 C-9.06657503 8.2135169 -9.06657503 8.2135169 -7.5 5.875 C-5.64317163 3.55396454 -3.58340176 2.4276694 -1 1 C-0.67 0.67 -0.34 0.34 0 0 Z " fill="#453A9D" transform="translate(774,276)"/>
<path d="M0 0 C0.33 0 0.66 0 1 0 C1.33 6.93 1.66 13.86 2 21 C1.01 20.67 0.02 20.34 -1 20 C-0.67 13.4 -0.34 6.8 0 0 Z " fill="#4F3BB9" transform="translate(186,552)"/>
<path d="M0 0 C2.29996485 1.72497364 3.81771456 3.04635934 4.37109375 5.94140625 C4.5413961 11.38106379 4.5413961 11.38106379 2.47265625 13.74609375 C1.98667969 14.15988281 1.50070312 14.57367188 1 15 C1.01160156 14.16855469 1.02320313 13.33710938 1.03515625 12.48046875 C1.04417969 11.39378906 1.05320312 10.30710937 1.0625 9.1875 C1.07410156 8.10855469 1.08570313 7.02960938 1.09765625 5.91796875 C1.13624766 2.93487831 1.13624766 2.93487831 0 0 Z " fill="#221996" transform="translate(611,299)"/>
<path d="M0 0 C0.99 0.33 1.98 0.66 3 1 C2.34 4.3 1.68 7.6 1 11 C0.34 11 -0.32 11 -1 11 C-1.125 3.375 -1.125 3.375 0 0 Z " fill="#F0EAEC" transform="translate(653,339)"/>
<path d="M0 0 C0.90492188 0.02320313 1.80984375 0.04640625 2.7421875 0.0703125 C4.10730469 0.09738281 4.10730469 0.09738281 5.5 0.125 C6.19867188 0.14820313 6.89734375 0.17140625 7.6171875 0.1953125 C6.6271875 0.8553125 5.6371875 1.5153125 4.6171875 2.1953125 C4.9471875 3.1853125 5.2771875 4.1753125 5.6171875 5.1953125 C4.9571875 5.1953125 4.2971875 5.1953125 3.6171875 5.1953125 C3.6171875 4.5353125 3.6171875 3.8753125 3.6171875 3.1953125 C0.9771875 2.8653125 -1.6628125 2.5353125 -4.3828125 2.1953125 C-2.3828125 0.1953125 -2.3828125 0.1953125 0 0 Z " fill="#4E3EB3" transform="translate(485.3828125,681.8046875)"/>
<path d="M0 0 C1.2380014 3.57644848 0.74926071 6.33694766 0 10 C-0.66 10 -1.32 10 -2 10 C-2.33 10.99 -2.66 11.98 -3 13 C-2.88490339 11.58249437 -2.75746342 10.16598831 -2.625 8.75 C-2.55539062 7.96109375 -2.48578125 7.1721875 -2.4140625 6.359375 C-1.98492887 3.914123 -1.21399362 2.15163097 0 0 Z " fill="#0FC091" transform="translate(503,467)"/>
<path d="M0 0 C1.32 0.66 2.64 1.32 4 2 C0.54143152 4.94995547 -2.80021485 7.22675738 -7 9 C-7.66 8.67 -8.32 8.34 -9 8 C-3.25 4 -3.25 4 -1 4 C-0.67 2.68 -0.34 1.36 0 0 Z " fill="#F6F3F5" transform="translate(598,255)"/>
<path d="M0 0 C1.98 0 3.96 0 6 0 C6.33 0.66 6.66 1.32 7 2 C9.11327425 2.90725434 9.11327425 2.90725434 11.5625 3.625 C12.38878906 3.88539063 13.21507812 4.14578125 14.06640625 4.4140625 C15.02353516 4.70410156 15.02353516 4.70410156 16 5 C12.25639086 6.39607277 9.97678466 5.57200275 6.3125 4.1875 C5.33925781 3.83042969 4.36601563 3.47335937 3.36328125 3.10546875 C1 2 1 2 0 0 Z " fill="#1C15C4" transform="translate(571,647)"/>
<path d="M0 0 C1 3 1 3 1 7 C1.66 7.66 2.32 8.32 3 9 C0 9 0 9 -2.1875 7 C-2.785625 6.34 -3.38375 5.68 -4 5 C-2.25 1.125 -2.25 1.125 0 0 Z " fill="#EEE9EF" transform="translate(515,234)"/>
<path d="M0 0 C-2.3125 2.5 -2.3125 2.5 -5 5 C-5.99 5 -6.98 5 -8 5 C-7.625 3.0625 -7.625 3.0625 -7 1 C-4.53721199 -0.231394 -2.7204945 -0.07159196 0 0 Z " fill="#0EBB90" transform="translate(712,608)"/>
<path d="M0 0 C0.99 0.66 1.98 1.32 3 2 C2.67 2.66 2.34 3.32 2 4 C1.01 3.34 0.02 2.68 -1 2 C-3.84120234 2.35515029 -6.28047752 3.09349251 -9 4 C-9.33 4.66 -9.66 5.32 -10 6 C-9.6875 4.125 -9.6875 4.125 -9 2 C-5.53001271 -0.31332486 -4.07490752 -0.33957563 0 0 Z " fill="#4F3BAF" transform="translate(644,278)"/>
<path d="M0 0 C1 2 1 2 0.51171875 3.91015625 C0.23972656 4.62042969 -0.03226563 5.33070313 -0.3125 6.0625 C-0.57675781 6.77535156 -0.84101562 7.48820313 -1.11328125 8.22265625 C-2 10 -2 10 -4 11 C-3.56179109 6.44262737 -3.14958831 3.42346555 0 0 Z " fill="#4838A6" transform="translate(790,611)"/>
<path d="M0 0 C1.921875 0.6796875 1.921875 0.6796875 4 2 C4.828125 4.3828125 4.828125 4.3828125 5.25 7.125 C5.39953125 8.03507813 5.5490625 8.94515625 5.703125 9.8828125 C5.80109375 10.58148437 5.8990625 11.28015625 6 12 C3.12753751 9.29650589 1.58862143 6.63113469 0 3 C0 2.01 0 1.02 0 0 Z " fill="#10BE90" transform="translate(508,560)"/>
<path d="M0 0 C4.29 0.33 8.58 0.66 13 1 C9.54785147 3.30143236 8.76520676 3.13833854 4.8125 2.625 C3.46091797 2.45871094 3.46091797 2.45871094 2.08203125 2.2890625 C1.39496094 2.19367187 0.70789063 2.09828125 0 2 C0 1.34 0 0.68 0 0 Z " fill="#483EA0" transform="translate(688,751)"/>
<path d="M0 0 C3.96 0 7.92 0 12 0 C7.859724 3.105207 6.90248464 3.63945452 2 3 C1.34 2.01 0.68 1.02 0 0 Z " fill="#5343B2" transform="translate(434,637)"/>
<path d="M0 0 C1 3 1 3 0.1875 4.875 C-0.204375 5.57625 -0.59625 6.2775 -1 7 C-1.67966676 8.66140763 -2.34938905 10.32700041 -3 12 C-3.88336837 9.5332355 -4.1312406 8.36140628 -3.22265625 5.859375 C-2.83980469 5.16328125 -2.45695312 4.4671875 -2.0625 3.75 C-1.68222656 3.04359375 -1.30195313 2.3371875 -0.91015625 1.609375 C-0.60980469 1.07828125 -0.30945313 0.5471875 0 0 Z " fill="#F28B43" transform="translate(469,442)"/>
<path d="M0 0 C2.3125 -0.1875 2.3125 -0.1875 5 0 C5.99 0.99 6.98 1.98 8 3 C5.03 3 2.06 3 -1 3 C-0.67 2.01 -0.34 1.02 0 0 Z M-5 3 C-1 4 -1 4 -1 4 Z " fill="#EFE6E6" transform="translate(746,198)"/>
<path d="M0 0 C-2.97 1.65 -5.94 3.3 -9 5 C-9.33 4.01 -9.66 3.02 -10 2 C-8.71211992 1.46987262 -7.41953322 0.9511671 -6.125 0.4375 C-5.40570313 0.14746094 -4.68640625 -0.14257812 -3.9453125 -0.44140625 C-2 -1 -2 -1 0 0 Z " fill="#E9E3EF" transform="translate(411,389)"/>
<path d="M0 0 C0.66 0.33 1.32 0.66 2 1 C0.8125 3.5 0.8125 3.5 -1 6 C-3.6875 6.3125 -3.6875 6.3125 -6 6 C-4 4 -2 2 0 0 Z " fill="#4D17AF" transform="translate(710,610)"/>
<path d="M0 0 C0 3.99904969 -1.72586967 5.80200422 -4 9 C-4.99 8.67 -5.98 8.34 -7 8 C-4.69 5.36 -2.38 2.72 0 0 Z " fill="#25199D" transform="translate(771,251)"/>
<path d="M0 0 C0.66 0.33 1.32 0.66 2 1 C-0.64 2.98 -3.28 4.96 -6 7 C-6 6.01 -6 5.02 -6 4 C-3 1.8125 -3 1.8125 0 0 Z " fill="#FAF8F7" transform="translate(310,440)"/>
<path d="M0 0 C0.66 0.33 1.32 0.66 2 1 C0.35 2.98 -1.3 4.96 -3 7 C-3.66 6.67 -4.32 6.34 -5 6 C-3.86695008 2.60085025 -2.87481525 1.94745549 0 0 Z " fill="#2E239D" transform="translate(349,431)"/>
<path d="M0 0 C-0.99 1.485 -0.99 1.485 -2 3 C-3.32 2.67 -4.64 2.34 -6 2 C-6 1.34 -6 0.68 -6 0 C-3.50907189 -1.24546405 -2.58919267 -0.7767578 0 0 Z " fill="#F8F7F5" transform="translate(402,393)"/>
<path d="M0 0 C2.31 0 4.62 0 7 0 C7 0.33 7 0.66 7 1 C5.02 1.33 3.04 1.66 1 2 C0.67 1.34 0.34 0.68 0 0 Z " fill="#534AA3" transform="translate(625,796)"/>
<path d="M0 0 C2.31 0 4.62 0 7 0 C7 0.33 7 0.66 7 1 C4.69 1 2.38 1 0 1 C0 0.67 0 0.34 0 0 Z " fill="#534AA2" transform="translate(633,796)"/>
<path d="M0 0 C1.98 0 3.96 0 6 0 C4.02 0.99 4.02 0.99 2 2 C1.34 1.34 0.68 0.68 0 0 Z " fill="#5248A5" transform="translate(531,790)"/>
<path d="M0 0 C1.98 0 3.96 0 6 0 C5.34 0.66 4.68 1.32 4 2 C2.68 1.34 1.36 0.68 0 0 Z " fill="#5146A5" transform="translate(525,789)"/>
<path d="M0 0 C2.31 0 4.62 0 7 0 C7 0.33 7 0.66 7 1 C4.69 1 2.38 1 0 1 C0 0.67 0 0.34 0 0 Z " fill="#514AA7" transform="translate(717,752)"/>
<path d="M0 0 C0.99 1.485 0.99 1.485 2 3 C1.67 3.99 1.34 4.98 1 6 C0.67 4.02 0.34 2.04 0 0 Z " fill="#514AA8" transform="translate(185,578)"/>
<path d="M0 0 C1.98 0 3.96 0 6 0 C6 0.33 6 0.66 6 1 C4.02 1 2.04 1 0 1 C0 0.67 0 0.34 0 0 Z " fill="#544AA1" transform="translate(642,796)"/>
<path d="M0 0 C1.98 0 3.96 0 6 0 C6 0.33 6 0.66 6 1 C4.02 1 2.04 1 0 1 C0 0.67 0 0.34 0 0 Z " fill="#544AA1" transform="translate(618,796)"/>
<path d="M0 0 C1.32 0 2.64 0 4 0 C3.67 0.66 3.34 1.32 3 2 C2.01 1.67 1.02 1.34 0 1 C0 0.67 0 0.34 0 0 Z " fill="#5147A5" transform="translate(520,788)"/>
<path d="M0 0 C1.65 0 3.3 0 5 0 C5 0.33 5 0.66 5 1 C3.35 1 1.7 1 0 1 C0 0.67 0 0.34 0 0 Z " fill="#5449A2" transform="translate(598,795)"/>
<path d="M0 0 C1.32 0 2.64 0 4 0 C3.67 0.66 3.34 1.32 3 2 C2.01 1.34 1.02 0.68 0 0 Z " fill="#544BA3" transform="translate(684,794)"/>
<path d="M0 0 C0.66 0 1.32 0 2 0 C1.67 0.99 1.34 1.98 1 3 C0.67 2.01 0.34 1.02 0 0 Z " fill="#5449A4" transform="translate(678,794)"/>
<path d="M0 0 C0.99 0 1.98 0 3 0 C2.67 0.66 2.34 1.32 2 2 C1.34 1.34 0.68 0.68 0 0 Z " fill="#5649AC" transform="translate(505,684)"/>
<path d="M0 0 C0.99 0.33 1.98 0.66 3 1 C2.01 1 1.02 1 0 1 C0 0.67 0 0.34 0 0 Z " fill="#554DB1" transform="translate(464,616)"/>
<path d="M0 0 C1 4 1 4 1 4 Z " fill="#564EA4" transform="translate(820,542)"/>
<path d="M0 0 C3 1 3 1 3 1 Z " fill="#544BA3" transform="translate(670,795)"/>
<path d="M0 0 C3 1 3 1 3 1 Z " fill="#554CA4" transform="translate(662,795)"/>
<path d="M0 0 C3 1 3 1 3 1 Z " fill="#534AA4" transform="translate(731,790)"/>
<path d="M0 0 C3 1 3 1 3 1 Z " fill="#5349A2" transform="translate(737,789)"/>
<path d="M0 0 C3 1 3 1 3 1 Z " fill="#534BA3" transform="translate(743,788)"/>
<path d="M0 0 C3 1 3 1 3 1 Z " fill="#4F45AB" transform="translate(408,773)"/>
<path d="M0 0 C3 1 3 1 3 1 Z " fill="#5144AA" transform="translate(401,773)"/>
<path d="M0 0 C3 1 3 1 3 1 Z " fill="#5246AA" transform="translate(532,753)"/>
<path d="M0 0 C0.66 0.66 1.32 1.32 2 2 C1.34 2 0.68 2 0 2 C0 1.34 0 0.68 0 0 Z " fill="#5649AC" transform="translate(554,732)"/>
<path d="M0 0 C3 1 3 1 3 1 Z " fill="#554AAE" transform="translate(475,687)"/>
<path d="M0 0 C3 1 3 1 3 1 Z " fill="#584AAE" transform="translate(497,685)"/>
<path d="M0 0 C0.66 0 1.32 0 2 0 C1.67 0.66 1.34 1.32 1 2 C0.67 1.34 0.34 0.68 0 0 Z " fill="#5249A7" transform="translate(186,585)"/>
<path d="M0 0 C3 1 3 1 3 1 Z " fill="#574CB3" transform="translate(449,421)"/>
<path d="" fill="#5149AE" transform="translate(0,0)"/>
<path d="M0 0 C0.66 0.66 1.32 1.32 2 2 C1.34 2 0.68 2 0 2 C0 1.34 0 0.68 0 0 Z " fill="#4F48A7" transform="translate(192,338)"/>
<path d="M0 0 C0.66 0 1.32 0 2 0 C1.67 0.66 1.34 1.32 1 2 C0.67 1.34 0.34 0.68 0 0 Z " fill="#544AAA" transform="translate(724,338)"/>
<path d="" fill="#534AA6" transform="translate(0,0)"/>
<path d="M0 0 C0.99 0.495 0.99 0.495 2 1 C1.01 1.495 1.01 1.495 0 2 C0 1.34 0 0.68 0 0 Z " fill="#5349AC" transform="translate(645,224)"/>
<path d="M0 0 C3 1 3 1 3 1 Z " fill="#554CAA" transform="translate(728,179)"/>
<path d="M0 0 C3 1 3 1 3 1 Z " fill="#524EA4" transform="translate(744,176)"/>
<path d="M0 0 C2 1 2 1 2 1 Z " fill="#544CA2" transform="translate(649,796)"/>
<path d="M0 0 C2 1 2 1 2 1 Z " fill="#534AA1" transform="translate(613,796)"/>
<path d="M0 0 C2 1 2 1 2 1 Z " fill="#544AA2" transform="translate(595,795)"/>
<path d="M0 0 C2 1 2 1 2 1 Z " fill="#5449A1" transform="translate(590,795)"/>
<path d="M0 0 C2 1 2 1 2 1 Z " fill="#544BA2" transform="translate(580,794)"/>
<path d="M0 0 C2 1 2 1 2 1 Z " fill="#544BA3" transform="translate(724,791)"/>
<path d="M0 0 C2 1 2 1 2 1 Z " fill="#5148A4" transform="translate(540,791)"/>
<path d="M0 0 C2 1 2 1 2 1 Z " fill="#534CA1" transform="translate(750,787)"/>
<path d="M0 0 C2 1 2 1 2 1 Z " fill="#524BA1" transform="translate(768,782)"/>
<path d="M0 0 C2 1 2 1 2 1 Z " fill="#5046A5" transform="translate(490,781)"/>
<path d="M0 0 C2 1 2 1 2 1 Z " fill="#5045AB" transform="translate(417,773)"/>
<path d="M0 0 C2 1 2 1 2 1 Z " fill="#5145AB" transform="translate(385,773)"/>
<path d="M0 0 C2 1 2 1 2 1 Z " fill="#5046AB" transform="translate(369,773)"/>
<path d="M0 0 C2 1 2 1 2 1 Z " fill="#5046AA" transform="translate(353,773)"/>
<path d="M0 0 C2 1 2 1 2 1 Z " fill="#5046A9" transform="translate(345,773)"/>
<path d="M0 0 C2 1 2 1 2 1 Z " fill="#4E46A3" transform="translate(297,766)"/>
<path d="M0 0 C2 1 2 1 2 1 Z " fill="#4F48A6" transform="translate(726,753)"/>
<path d="M0 0 C2 1 2 1 2 1 Z " fill="#504AA7" transform="translate(545,752)"/>
<path d="" fill="#5447AD" transform="translate(0,0)"/>
<path d="" fill="#5447AB" transform="translate(0,0)"/>
<path d="" fill="#554BB0" transform="translate(0,0)"/>
<path d="M0 0 C2 1 2 1 2 1 Z " fill="#534AAD" transform="translate(472,687)"/>
<path d="M0 0 C2 1 2 1 2 1 Z " fill="#544AAA" transform="translate(468,687)"/>
<path d="M0 0 C2 1 2 1 2 1 Z " fill="#514AAB" transform="translate(461,687)"/>
<path d="" fill="#5449AB" transform="translate(0,0)"/>
<path d="M0 0 C2 1 2 1 2 1 Z " fill="#524DAC" transform="translate(280,663)"/>
<path d="" fill="#554EA6" transform="translate(0,0)"/>
<path d="M0 0 C2 1 2 1 2 1 Z " fill="#5148A7" transform="translate(211,623)"/>
<path d="M0 0 C2 1 2 1 2 1 Z " fill="#554DA3" transform="translate(790,617)"/>
<path d="" fill="#5248A7" transform="translate(0,0)"/>
<path d="" fill="#5448B1" transform="translate(0,0)"/>
<path d="M0 0 C2 1 2 1 2 1 Z " fill="#554BB0" transform="translate(456,600)"/>
<path d="" fill="#5448B0" transform="translate(0,0)"/>
<path d="" fill="#514CA6" transform="translate(0,0)"/>
<path d="" fill="#554AAD" transform="translate(0,0)"/>
<path d="" fill="#5148B0" transform="translate(0,0)"/>
<path d="" fill="#514BA6" transform="translate(0,0)"/>
<path d="" fill="#514AA9" transform="translate(0,0)"/>
<path d="" fill="#534DA2" transform="translate(0,0)"/>
<path d="M0 0 C2 1 2 1 2 1 Z " fill="#4E4AA7" transform="translate(257,440)"/>
<path d="" fill="#544DA4" transform="translate(0,0)"/>
<path d="M0 0 C2 1 2 1 2 1 Z " fill="#544AAE" transform="translate(710,332)"/>
<path d="M0 0 C2 1 2 1 2 1 Z " fill="#534CAF" transform="translate(712,319)"/>
<path d="" fill="#554DAD" transform="translate(0,0)"/>
<path d="M0 0 C2 1 2 1 2 1 Z " fill="#524BA8" transform="translate(798,249)"/>
<path d="M0 0 C2 1 2 1 2 1 Z " fill="#544BAC" transform="translate(641,227)"/>
<path d="M0 0 C2 1 2 1 2 1 Z " fill="#534BAC" transform="translate(589,227)"/>
<path d="M0 0 C2 1 2 1 2 1 Z " fill="#4F4BA2" transform="translate(201,216)"/>
<path d="M0 0 C2 1 2 1 2 1 Z " fill="#5249A3" transform="translate(195,216)"/>
<path d="" fill="#52525F" transform="translate(0,0)"/>
<path d="" fill="#50515F" transform="translate(0,0)"/>
<path d="" fill="#4F525A" transform="translate(0,0)"/>
<path d="" fill="#505358" transform="translate(0,0)"/>
<path d="" fill="#4F5259" transform="translate(0,0)"/>
<path d="" fill="#525362" transform="translate(0,0)"/>
<path d="" fill="#545462" transform="translate(0,0)"/>
<path d="" fill="#525464" transform="translate(0,0)"/>
<path d="" fill="#505363" transform="translate(0,0)"/>
<path d="" fill="#515365" transform="translate(0,0)"/>
<path d="" fill="#4E5157" transform="translate(0,0)"/>
<path d="" fill="#515364" transform="translate(0,0)"/>
<path d="" fill="#515364" transform="translate(0,0)"/>
<path d="" fill="#505359" transform="translate(0,0)"/>
<path d="" fill="#52535D" transform="translate(0,0)"/>
<path d="" fill="#535565" transform="translate(0,0)"/>
<path d="" fill="#525568" transform="translate(0,0)"/>
<path d="" fill="#525266" transform="translate(0,0)"/>
<path d="" fill="#535368" transform="translate(0,0)"/>
<path d="" fill="#53556B" transform="translate(0,0)"/>
<path d="" fill="#51545A" transform="translate(0,0)"/>
<path d="" fill="#52525F" transform="translate(0,0)"/>
<path d="" fill="#515566" transform="translate(0,0)"/>
<path d="" fill="#545274" transform="translate(0,0)"/>
<path d="" fill="#545374" transform="translate(0,0)"/>
<path d="" fill="#535173" transform="translate(0,0)"/>
<path d="" fill="#524F85" transform="translate(0,0)"/>
<path d="" fill="#54528A" transform="translate(0,0)"/>
<path d="" fill="#56528A" transform="translate(0,0)"/>
<path d="" fill="#53508F" transform="translate(0,0)"/>
<path d="" fill="#50535B" transform="translate(0,0)"/>
<path d="" fill="#5449A1" transform="translate(0,0)"/>
<path d="" fill="#534A9F" transform="translate(0,0)"/>
<path d="" fill="#544CA2" transform="translate(0,0)"/>
<path d="" fill="#554BA2" transform="translate(0,0)"/>
<path d="" fill="#544AA2" transform="translate(0,0)"/>
<path d="" fill="#544BA1" transform="translate(0,0)"/>
<path d="" fill="#524BA2" transform="translate(0,0)"/>
<path d="" fill="#544AA1" transform="translate(0,0)"/>
<path d="" fill="#544BA2" transform="translate(0,0)"/>
<path d="" fill="#554DA4" transform="translate(0,0)"/>
<path d="" fill="#5649A4" transform="translate(0,0)"/>
<path d="" fill="#5448A3" transform="translate(0,0)"/>
<path d="" fill="#564E9F" transform="translate(0,0)"/>
<path d="" fill="#514AA3" transform="translate(0,0)"/>
<path d="" fill="#524BA3" transform="translate(0,0)"/>
<path d="" fill="#5247A4" transform="translate(0,0)"/>
<path d="" fill="#5049A4" transform="translate(0,0)"/>
<path d="" fill="#554BA9" transform="translate(0,0)"/>
<path d="" fill="#5048A6" transform="translate(0,0)"/>
<path d="" fill="#544CA1" transform="translate(0,0)"/>
<path d="" fill="#534AA2" transform="translate(0,0)"/>
<path d="" fill="#5048A2" transform="translate(0,0)"/>
<path d="" fill="#5148A6" transform="translate(0,0)"/>
<path d="" fill="#504CA1" transform="translate(0,0)"/>
<path d="" fill="#4D4A9F" transform="translate(0,0)"/>
<path d="" fill="#504AA2" transform="translate(0,0)"/>
<path d="" fill="#504C9D" transform="translate(0,0)"/>
<path d="" fill="#54536B" transform="translate(0,0)"/>
<path d="" fill="#4F43A9" transform="translate(0,0)"/>
<path d="" fill="#5045AB" transform="translate(0,0)"/>
<path d="" fill="#5045A9" transform="translate(0,0)"/>
<path d="" fill="#5247AA" transform="translate(0,0)"/>
<path d="" fill="#5146A8" transform="translate(0,0)"/>
<path d="" fill="#5048A8" transform="translate(0,0)"/>
<path d="" fill="#4F46A7" transform="translate(0,0)"/>
<path d="" fill="#5047A7" transform="translate(0,0)"/>
<path d="" fill="#5146A9" transform="translate(0,0)"/>
<path d="" fill="#4F48A5" transform="translate(0,0)"/>
<path d="" fill="#4E44A1" transform="translate(0,0)"/>
<path d="" fill="#544EA3" transform="translate(0,0)"/>
<path d="" fill="#4F4AA4" transform="translate(0,0)"/>
<path d="" fill="#544CAA" transform="translate(0,0)"/>
<path d="" fill="#5249AA" transform="translate(0,0)"/>
<path d="" fill="#5347AC" transform="translate(0,0)"/>
<path d="" fill="#5149A8" transform="translate(0,0)"/>
<path d="" fill="#4E46A9" transform="translate(0,0)"/>
<path d="" fill="#5447AA" transform="translate(0,0)"/>
<path d="" fill="#5246AC" transform="translate(0,0)"/>
<path d="" fill="#564BAD" transform="translate(0,0)"/>
<path d="" fill="#564BAC" transform="translate(0,0)"/>
<path d="" fill="#5145AC" transform="translate(0,0)"/>
<path d="" fill="#5446B0" transform="translate(0,0)"/>
<path d="" fill="#5349AE" transform="translate(0,0)"/>
<path d="" fill="#5447AF" transform="translate(0,0)"/>
<path d="" fill="#554AA9" transform="translate(0,0)"/>
<path d="" fill="#584DA9" transform="translate(0,0)"/>
<path d="" fill="#5449AD" transform="translate(0,0)"/>
<path d="" fill="#5548AD" transform="translate(0,0)"/>
<path d="" fill="#5448AA" transform="translate(0,0)"/>
<path d="" fill="#5146AC" transform="translate(0,0)"/>
<path d="" fill="#5249AA" transform="translate(0,0)"/>
<path d="" fill="#5448AA" transform="translate(0,0)"/>
<path d="" fill="#544BA8" transform="translate(0,0)"/>
<path d="" fill="#535566" transform="translate(0,0)"/>
<path d="" fill="#5647A9" transform="translate(0,0)"/>
<path d="" fill="#5449AB" transform="translate(0,0)"/>
<path d="" fill="#564AA9" transform="translate(0,0)"/>
<path d="" fill="#544CAB" transform="translate(0,0)"/>
<path d="" fill="#5547AD" transform="translate(0,0)"/>
<path d="" fill="#5349A8" transform="translate(0,0)"/>
<path d="" fill="#5348A9" transform="translate(0,0)"/>
<path d="" fill="#5246A9" transform="translate(0,0)"/>
<path d="" fill="#5449A7" transform="translate(0,0)"/>
<path d="" fill="#534AAB" transform="translate(0,0)"/>
<path d="" fill="#5448AD" transform="translate(0,0)"/>
<path d="" fill="#524AAB" transform="translate(0,0)"/>
<path d="" fill="#4F49AC" transform="translate(0,0)"/>
<path d="" fill="#544BAF" transform="translate(0,0)"/>
<path d="" fill="#554BA5" transform="translate(0,0)"/>
<path d="" fill="#5148AA" transform="translate(0,0)"/>
<path d="" fill="#5246A7" transform="translate(0,0)"/>
<path d="" fill="#5248AA" transform="translate(0,0)"/>
<path d="" fill="#514AA8" transform="translate(0,0)"/>
<path d="" fill="#535660" transform="translate(0,0)"/>
<path d="" fill="#574EA4" transform="translate(0,0)"/>
<path d="" fill="#5248A7" transform="translate(0,0)"/>
<path d="" fill="#5850A6" transform="translate(0,0)"/>
<path d="" fill="#5347A6" transform="translate(0,0)"/>
<path d="" fill="#564CA1" transform="translate(0,0)"/>
<path d="" fill="#5246A7" transform="translate(0,0)"/>
<path d="" fill="#574FA3" transform="translate(0,0)"/>
<path d="" fill="#5447A9" transform="translate(0,0)"/>
<path d="" fill="#5045A7" transform="translate(0,0)"/>
<path d="" fill="#57586E" transform="translate(0,0)"/>
<path d="" fill="#5044A7" transform="translate(0,0)"/>
<path d="" fill="#58529E" transform="translate(0,0)"/>
<path d="" fill="#54565E" transform="translate(0,0)"/>
<path d="" fill="#584DA2" transform="translate(0,0)"/>
<path d="" fill="#554DA1" transform="translate(0,0)"/>
<path d="" fill="#554BAE" transform="translate(0,0)"/>
<path d="" fill="#5448AC" transform="translate(0,0)"/>
<path d="" fill="#5349AE" transform="translate(0,0)"/>
<path d="" fill="#5953A4" transform="translate(0,0)"/>
<path d="" fill="#5048A7" transform="translate(0,0)"/>
<path d="" fill="#5146A8" transform="translate(0,0)"/>
<path d="" fill="#5347AA" transform="translate(0,0)"/>
<path d="" fill="#5247B0" transform="translate(0,0)"/>
<path d="" fill="#544BB2" transform="translate(0,0)"/>
<path d="" fill="#564AAF" transform="translate(0,0)"/>
<path d="" fill="#5148A6" transform="translate(0,0)"/>
<path d="" fill="#524DA9" transform="translate(0,0)"/>
<path d="" fill="#574F9F" transform="translate(0,0)"/>
<path d="" fill="#5047AB" transform="translate(0,0)"/>
<path d="" fill="#5248AE" transform="translate(0,0)"/>
<path d="" fill="#5148A5" transform="translate(0,0)"/>
<path d="" fill="#5248A5" transform="translate(0,0)"/>
<path d="" fill="#544CAE" transform="translate(0,0)"/>
<path d="" fill="#554CAE" transform="translate(0,0)"/>
<path d="" fill="#544AAE" transform="translate(0,0)"/>
<path d="" fill="#554FA4" transform="translate(0,0)"/>
<path d="" fill="#5451A2" transform="translate(0,0)"/>
<path d="" fill="#5349B2" transform="translate(0,0)"/>
<path d="" fill="#574F9F" transform="translate(0,0)"/>
<path d="" fill="#5147B1" transform="translate(0,0)"/>
<path d="" fill="#5447B1" transform="translate(0,0)"/>
<path d="" fill="#544EA1" transform="translate(0,0)"/>
<path d="" fill="#554FA5" transform="translate(0,0)"/>
<path d="" fill="#574EA8" transform="translate(0,0)"/>
<path d="" fill="#5148A7" transform="translate(0,0)"/>
<path d="" fill="#5149A9" transform="translate(0,0)"/>
<path d="" fill="#574CB4" transform="translate(0,0)"/>
<path d="" fill="#5248AA" transform="translate(0,0)"/>
<path d="" fill="#5048A7" transform="translate(0,0)"/>
<path d="" fill="#5449B4" transform="translate(0,0)"/>
<path d="" fill="#544DA5" transform="translate(0,0)"/>
<path d="" fill="#554AB3" transform="translate(0,0)"/>
<path d="" fill="#524CAB" transform="translate(0,0)"/>
<path d="" fill="#534AA7" transform="translate(0,0)"/>
<path d="" fill="#504AA9" transform="translate(0,0)"/>
<path d="" fill="#5449AB" transform="translate(0,0)"/>
<path d="" fill="#4E49A9" transform="translate(0,0)"/>
<path d="" fill="#5148A8" transform="translate(0,0)"/>
<path d="" fill="#4F48A7" transform="translate(0,0)"/>
<path d="" fill="#554EA3" transform="translate(0,0)"/>
<path d="" fill="#5249AA" transform="translate(0,0)"/>
<path d="" fill="#564FA6" transform="translate(0,0)"/>
<path d="" fill="#5148AC" transform="translate(0,0)"/>
<path d="" fill="#575687" transform="translate(0,0)"/>
<path d="" fill="#554EA4" transform="translate(0,0)"/>
<path d="" fill="#564DA6" transform="translate(0,0)"/>
<path d="" fill="#5149AD" transform="translate(0,0)"/>
<path d="" fill="#514AAB" transform="translate(0,0)"/>
<path d="" fill="#5149AA" transform="translate(0,0)"/>
<path d="" fill="#555769" transform="translate(0,0)"/>
<path d="" fill="#5550A6" transform="translate(0,0)"/>
<path d="" fill="#554EA4" transform="translate(0,0)"/>
<path d="" fill="#544DA3" transform="translate(0,0)"/>
<path d="" fill="#5147A8" transform="translate(0,0)"/>
<path d="" fill="#554DA2" transform="translate(0,0)"/>
<path d="" fill="#564CA6" transform="translate(0,0)"/>
<path d="" fill="#544EA4" transform="translate(0,0)"/>
<path d="" fill="#5149AE" transform="translate(0,0)"/>
<path d="" fill="#564FA3" transform="translate(0,0)"/>
<path d="" fill="#5650AF" transform="translate(0,0)"/>
<path d="" fill="#514AAD" transform="translate(0,0)"/>
<path d="" fill="#514AAB" transform="translate(0,0)"/>
<path d="" fill="#5049AC" transform="translate(0,0)"/>
<path d="" fill="#5047B0" transform="translate(0,0)"/>
<path d="" fill="#5147AF" transform="translate(0,0)"/>
<path d="" fill="#5248B1" transform="translate(0,0)"/>
<path d="" fill="#504AAF" transform="translate(0,0)"/>
<path d="" fill="#5249AE" transform="translate(0,0)"/>
<path d="" fill="#52545F" transform="translate(0,0)"/>
<path d="" fill="#4F47AE" transform="translate(0,0)"/>
<path d="" fill="#544AA4" transform="translate(0,0)"/>
<path d="" fill="#544AA3" transform="translate(0,0)"/>
<path d="" fill="#5147B0" transform="translate(0,0)"/>
<path d="" fill="#554EA5" transform="translate(0,0)"/>
<path d="" fill="#544BA2" transform="translate(0,0)"/>
<path d="" fill="#554CA1" transform="translate(0,0)"/>
<path d="" fill="#544AA5" transform="translate(0,0)"/>
<path d="" fill="#544BA5" transform="translate(0,0)"/>
<path d="" fill="#56577E" transform="translate(0,0)"/>
<path d="" fill="#5148AF" transform="translate(0,0)"/>
<path d="" fill="#5047B0" transform="translate(0,0)"/>
<path d="" fill="#555297" transform="translate(0,0)"/>
<path d="" fill="#5149A9" transform="translate(0,0)"/>
<path d="" fill="#534AAB" transform="translate(0,0)"/>
<path d="" fill="#5247B3" transform="translate(0,0)"/>
<path d="" fill="#51555F" transform="translate(0,0)"/>
<path d="" fill="#565878" transform="translate(0,0)"/>
<path d="" fill="#544BAA" transform="translate(0,0)"/>
<path d="" fill="#534DA8" transform="translate(0,0)"/>
<path d="" fill="#534BAA" transform="translate(0,0)"/>
<path d="" fill="#5246B1" transform="translate(0,0)"/>
<path d="" fill="#4F48A8" transform="translate(0,0)"/>
<path d="" fill="#564EAA" transform="translate(0,0)"/>
<path d="" fill="#5047A5" transform="translate(0,0)"/>
<path d="" fill="#514BAA" transform="translate(0,0)"/>
<path d="" fill="#5247A7" transform="translate(0,0)"/>
<path d="" fill="#524AAB" transform="translate(0,0)"/>
<path d="" fill="#564BA9" transform="translate(0,0)"/>
<path d="" fill="#5152A3" transform="translate(0,0)"/>
<path d="" fill="#554BAF" transform="translate(0,0)"/>
<path d="" fill="#514BAC" transform="translate(0,0)"/>
<path d="" fill="#4F47A6" transform="translate(0,0)"/>
<path d="" fill="#5148A5" transform="translate(0,0)"/>
<path d="" fill="#535660" transform="translate(0,0)"/>
<path d="" fill="#554DB0" transform="translate(0,0)"/>
<path d="" fill="#554AB0" transform="translate(0,0)"/>
<path d="" fill="#4F47A7" transform="translate(0,0)"/>
<path d="" fill="#4F49A8" transform="translate(0,0)"/>
<path d="" fill="#544CAA" transform="translate(0,0)"/>
<path d="" fill="#52565F" transform="translate(0,0)"/>
<path d="" fill="#544EAE" transform="translate(0,0)"/>
<path d="" fill="#564DAD" transform="translate(0,0)"/>
<path d="" fill="#554CAD" transform="translate(0,0)"/>
<path d="" fill="#544CAC" transform="translate(0,0)"/>
<path d="" fill="#5048AA" transform="translate(0,0)"/>
<path d="" fill="#4F49A7" transform="translate(0,0)"/>
<path d="" fill="#565773" transform="translate(0,0)"/>
<path d="" fill="#4F49A7" transform="translate(0,0)"/>
<path d="" fill="#5048A9" transform="translate(0,0)"/>
<path d="" fill="#4D49A9" transform="translate(0,0)"/>
<path d="" fill="#554CA8" transform="translate(0,0)"/>
<path d="" fill="#554EAA" transform="translate(0,0)"/>
<path d="" fill="#564DAB" transform="translate(0,0)"/>
<path d="" fill="#534EAA" transform="translate(0,0)"/>
<path d="" fill="#554EA8" transform="translate(0,0)"/>
<path d="" fill="#514FA3" transform="translate(0,0)"/>
<path d="" fill="#565680" transform="translate(0,0)"/>
<path d="" fill="#554BAD" transform="translate(0,0)"/>
<path d="" fill="#544CB0" transform="translate(0,0)"/>
<path d="" fill="#524BAF" transform="translate(0,0)"/>
<path d="" fill="#514CA8" transform="translate(0,0)"/>
<path d="" fill="#5249AE" transform="translate(0,0)"/>
<path d="" fill="#534AAD" transform="translate(0,0)"/>
<path d="" fill="#534CA9" transform="translate(0,0)"/>
<path d="" fill="#524BAE" transform="translate(0,0)"/>
<path d="" fill="#544BAD" transform="translate(0,0)"/>
<path d="" fill="#534CAD" transform="translate(0,0)"/>
<path d="" fill="#534AA4" transform="translate(0,0)"/>
<path d="" fill="#534FA8" transform="translate(0,0)"/>
<path d="" fill="#5149A1" transform="translate(0,0)"/>
<path d="" fill="#544BAC" transform="translate(0,0)"/>
<path d="" fill="#534AA3" transform="translate(0,0)"/>
<path d="" fill="#5448A3" transform="translate(0,0)"/>
<path d="" fill="#524BAA" transform="translate(0,0)"/>
<path d="" fill="#534AA4" transform="translate(0,0)"/>
<path d="" fill="#5449A9" transform="translate(0,0)"/>
<path d="" fill="#5149A3" transform="translate(0,0)"/>
<path d="" fill="#524BAA" transform="translate(0,0)"/>
<path d="" fill="#524AAB" transform="translate(0,0)"/>
<path d="" fill="#554BAB" transform="translate(0,0)"/>
<path d="" fill="#514CA5" transform="translate(0,0)"/>
<path d="" fill="#524CA9" transform="translate(0,0)"/>
<path d="" fill="#5249AA" transform="translate(0,0)"/>
<path d="" fill="#524DAA" transform="translate(0,0)"/>
<path d="" fill="#534CA8" transform="translate(0,0)"/>
<path d="" fill="#5350A8" transform="translate(0,0)"/>
<path d="" fill="#524CA2" transform="translate(0,0)"/>
<path d="" fill="#544DAB" transform="translate(0,0)"/>
<path d="" fill="#54556B" transform="translate(0,0)"/>
<path d="" fill="#544CA8" transform="translate(0,0)"/>
<path d="" fill="#544DA6" transform="translate(0,0)"/>
<path d="" fill="#544CA9" transform="translate(0,0)"/>
<path d="" fill="#524CA6" transform="translate(0,0)"/>
<path d="" fill="#524CA6" transform="translate(0,0)"/>
<path d="" fill="#534BA6" transform="translate(0,0)"/>
<path d="" fill="#575688" transform="translate(0,0)"/>
<path d="" fill="#585788" transform="translate(0,0)"/>
<path d="" fill="#55557E" transform="translate(0,0)"/>
<path d="" fill="#535464" transform="translate(0,0)"/>
<path d="" fill="#50545B" transform="translate(0,0)"/>
<path d="" fill="#555569" transform="translate(0,0)"/>
<path d="" fill="#565568" transform="translate(0,0)"/>
<path d="" fill="#555865" transform="translate(0,0)"/>
<path d="" fill="#555766" transform="translate(0,0)"/>
<path d="" fill="#555766" transform="translate(0,0)"/>
<path d="" fill="#555765" transform="translate(0,0)"/>
<path d="" fill="#545562" transform="translate(0,0)"/>
<path d="" fill="#545562" transform="translate(0,0)"/>
<path d="" fill="#535462" transform="translate(0,0)"/>
<path d="" fill="#545760" transform="translate(0,0)"/>
<path d="" fill="#555761" transform="translate(0,0)"/>
<path d="" fill="#545760" transform="translate(0,0)"/>
<path d="" fill="#555661" transform="translate(0,0)"/>
</svg>
