<?xml version="1.0" encoding="UTF-8"?>
<svg version="1.1" xmlns="http://www.w3.org/2000/svg" width="1024" height="1024">
<path d="M0 0 C2.74987555 3.25911176 3.03404393 6.44223382 2.96484375 10.625 C1.42780596 23.78723907 -7.6581686 33.80489989 -17.56640625 41.82421875 C-31.17936035 51.98600139 -45.86859277 60.80954263 -60.33349609 69.6862793 C-61.15930176 70.19328369 -61.98510742 70.70028809 -62.8359375 71.22265625 C-63.55700684 71.66359619 -64.27807617 72.10453613 -65.02099609 72.55883789 C-67.82093236 74.31976094 -70.5665438 76.15630063 -73.3125 78 C-72.69750491 85.73857294 -72.0802618 93.47696328 -71.4603672 101.21514511 C-71.17240165 104.81066535 -70.88513012 108.40623785 -70.59960938 112.00195312 C-68.95375574 132.93453673 -68.95375574 132.93453673 -66.92849731 153.83306885 C-65.32418385 168.96166105 -65.32418385 168.96166105 -66.3125 174 C-69.63663723 178.01231351 -73.80760087 181.10071619 -77.9375 184.25 C-78.50984375 184.69601562 -79.0821875 185.14203125 -79.671875 185.6015625 C-82.20826491 187.54809429 -84.25631533 188.98127178 -87.3125 190 C-93.10956887 179.08812277 -97.74641452 167.70438076 -102.5 156.3125 C-104.1847359 152.29050369 -105.87286079 148.26993867 -107.5625 144.25 C-107.97344406 143.27182816 -108.38438812 142.29365631 -108.80778503 141.2858429 C-112.54876785 132.40029849 -116.40580923 123.57072255 -120.3659668 114.78051758 C-120.76468994 113.89001709 -121.16341309 112.9995166 -121.57421875 112.08203125 C-121.91412842 111.33155518 -122.25403809 110.5810791 -122.60424805 109.80786133 C-123.3125 108 -123.3125 108 -123.3125 106 C-138.21985149 112.88745856 -153.10468216 119.82163607 -167.95715332 126.82669067 C-169.50991156 127.55898981 -171.0628852 128.29083238 -172.61608887 129.02218628 C-173.36120728 129.37314362 -174.10632568 129.72410095 -174.87402344 130.08569336 C-175.96924568 130.60113205 -175.96924568 130.60113205 -177.08659363 131.12698364 C-178.51548843 131.80421735 -179.94144721 132.48768494 -181.36421204 133.17770386 C-184.50598615 134.70024282 -187.59762636 136.10959759 -190.86108398 137.36401367 C-195.43413416 139.22333201 -198.45259648 140.55848323 -201.03173828 144.88208008 C-202.39560104 148.36865985 -203.42849789 151.81601646 -204.375 155.4375 C-205.07233448 157.83258067 -205.77150054 160.22712896 -206.47265625 162.62109375 C-206.94699097 164.29425659 -206.94699097 164.29425659 -207.4309082 166.0012207 C-209.08104304 171.61423821 -210.44102673 176.03720649 -215.5 179.4375 C-216.21542969 179.93121094 -216.93085937 180.42492187 -217.66796875 180.93359375 C-218.21066406 181.28550781 -218.75335937 181.63742187 -219.3125 182 C-221.3125 181 -221.3125 181 -221.98165894 179.35014343 C-222.27666794 178.27903069 -222.27666794 178.27903069 -222.57763672 177.1862793 C-222.80482391 176.37841476 -223.03201111 175.57055023 -223.26608276 174.73820496 C-223.50569733 173.85908951 -223.74531189 172.97997406 -223.9921875 172.07421875 C-224.51404985 170.22713637 -225.03619419 168.38013364 -225.55859375 166.53320312 C-226.37502243 163.61138995 -227.18722282 160.68850521 -227.99365234 157.76391602 C-228.77347549 154.94735867 -229.56940448 152.13573293 -230.3671875 149.32421875 C-230.6027536 148.45117599 -230.8383197 147.57813324 -231.08102417 146.67863464 C-232.38716139 142.106591 -233.42681768 139.02047227 -237.3125 136 C-237.84979736 135.57340088 -238.38709473 135.14680176 -238.94067383 134.70727539 C-239.46169678 134.34110107 -239.98271973 133.97492676 -240.51953125 133.59765625 C-241.10669922 133.18193359 -241.69386719 132.76621094 -242.29882812 132.33789062 C-242.90146484 131.91701172 -243.50410156 131.49613281 -244.125 131.0625 C-245.31901042 130.22005208 -246.51302083 129.37760417 -247.70703125 128.53515625 C-248.30080566 128.12539551 -248.89458008 127.71563477 -249.50634766 127.29345703 C-250.74982748 126.40295202 -251.96237341 125.46815953 -253.14599609 124.49951172 C-255.13452857 122.84915827 -255.13452857 122.84915827 -258.3125 121 C-260.94104811 121.2783066 -260.94104811 121.2783066 -263.3125 123 C-264.385 123.62390625 -265.4575 124.2478125 -266.5625 124.890625 C-267.81588765 125.67167308 -269.06570039 126.45847776 -270.3125 127.25 C-270.96964996 127.66556656 -271.62679993 128.08113312 -272.30386353 128.5092926 C-277.95005834 132.10060287 -283.526907 135.78726023 -289.0859375 139.51171875 C-296.19860846 144.26527312 -303.3252723 148.99614579 -310.4765625 153.69140625 C-311.31995178 154.24533554 -312.16334106 154.79926483 -313.0322876 155.36997986 C-314.77077794 156.51178183 -316.50928317 157.65356112 -318.24780273 158.7953186 C-339.17780361 172.54672053 -359.9690849 186.4963404 -380.70628357 200.53639221 C-386.06103085 204.15995217 -391.43275523 207.75641802 -396.81787109 211.3347168 C-399.10933641 212.86437866 -401.38758764 214.41120386 -403.66015625 215.96875 C-404.59698242 216.60683594 -404.59698242 216.60683594 -405.55273438 217.2578125 C-406.80613472 218.11222046 -408.05594968 218.97190434 -409.30273438 219.8359375 C-413.97513102 223 -413.97513102 223 -417.3125 223 C-418.39327578 218.62275417 -418.45395633 214.35676614 -418.44189453 209.87670898 C-418.44452301 208.67093201 -418.44452301 208.67093201 -418.44720459 207.4407959 C-418.4515939 204.79253967 -418.44869567 202.14435061 -418.4453125 199.49609375 C-418.44598631 197.65194181 -418.44695698 195.80778995 -418.44821167 193.96363831 C-418.44968463 190.10278476 -418.44754673 186.24195437 -418.44287109 182.38110352 C-418.43717005 177.43239469 -418.44045774 172.48374007 -418.44644356 167.53503323 C-418.45005658 163.72865897 -418.44890723 159.92229757 -418.44631577 156.11592293 C-418.44564876 154.29106706 -418.44646702 152.46621002 -418.44879532 150.64135551 C-418.45133441 148.09217102 -418.44746364 145.54307443 -418.44189453 142.99389648 C-418.44391876 142.24002151 -418.44594299 141.48614655 -418.44802856 140.70942688 C-418.43436354 137.33343353 -418.37049451 134.226985 -417.3125 131 C-418.0590535 131.03225677 -418.80560699 131.06451355 -419.57478333 131.0977478 C-450.51409309 132.35452194 -481.45820074 131.96645547 -512.41244519 131.68318629 C-518.3385823 131.62952416 -524.26476217 131.58444069 -530.19098443 131.54135668 C-536.65812877 131.49416266 -543.12521587 131.44140403 -549.59229469 131.38599777 C-552.32393135 131.36268354 -555.05557293 131.34130296 -557.78723717 131.32149124 C-561.56224021 131.29290566 -565.33712965 131.25796795 -569.11206055 131.22119141 C-570.23945145 131.2138649 -571.36684235 131.20653839 -572.52839661 131.19898987 C-573.54634308 131.18775589 -574.56428955 131.17652191 -575.61308289 131.16494751 C-576.5019453 131.15719614 -577.3908077 131.14944477 -578.30660534 131.14145851 C-580.3125 131 -580.3125 131 -581.3125 130 C-582.58635843 119.58828052 -582.46081961 109.05636417 -582.4453125 98.5859375 C-582.44598807 96.95643092 -582.44696019 95.32692445 -582.44821167 93.69741821 C-582.44967257 90.31405662 -582.44758364 86.93072173 -582.44287109 83.54736328 C-582.43712873 79.21434129 -582.44049118 74.88138065 -582.44644356 70.54836082 C-582.45005393 67.19751521 -582.44890917 63.84668421 -582.44631577 60.49583817 C-582.44565018 58.89706032 -582.44646203 57.29828113 -582.44879532 55.69950485 C-582.45133463 53.4746013 -582.44746526 51.24979839 -582.44189453 49.02490234 C-582.44109894 47.76140961 -582.44030334 46.49791687 -582.43948364 45.19613647 C-582.33540375 42.57647974 -582.24027113 40.44148607 -581.3125 38 C-578.3582204 36.5228602 -575.34669569 36.81225197 -572.10473633 36.77880859 C-571.34999338 36.7673282 -570.59525043 36.7558478 -569.81763649 36.74401951 C-567.25997737 36.70686826 -564.70229598 36.67735654 -562.14453125 36.6484375 C-560.29647155 36.62476621 -558.44841352 36.60096401 -556.60035706 36.57704163 C-551.51174993 36.51365933 -546.42308295 36.45917481 -541.33434296 36.40766525 C-538.13256829 36.37507703 -534.93081806 36.34057321 -531.72906494 36.30593872 C-472.58901809 35.68336086 -413.4497924 36.36317339 -354.3125 37 C-353.9825 36.34 -353.6525 35.68 -353.3125 35 C-353.3125 35.66 -353.3125 36.32 -353.3125 37 C-352.65726349 36.98801669 -352.00202698 36.97603338 -351.32693481 36.96368694 C-335.31557454 36.67543574 -319.30512782 36.46091712 -303.29180908 36.32644176 C-295.54742724 36.25966517 -287.80478668 36.1687896 -280.06152344 36.01928711 C-273.30506951 35.88890059 -266.5498773 35.8056567 -259.79220009 35.77684957 C-256.21975909 35.76003103 -252.65092428 35.72110154 -249.07965088 35.62550926 C-223.3754282 34.96417802 -223.3754282 34.96417802 -213.8984375 43.21606445 C-212.17772641 44.87349907 -210.53637572 46.5694399 -208.92437744 48.33246803 C-206.19489331 51.15619515 -203.0660857 53.45263035 -199.9375 55.8125 C-198.80056356 56.69857423 -197.66492515 57.58631947 -196.53125 58.4765625 C-195.99371094 58.89711914 -195.45617187 59.31767578 -194.90234375 59.75097656 C-191.01563317 62.80447953 -187.16426423 65.90261355 -183.3125 69 C-183.64930039 71.81318368 -184.08789633 72.80942213 -186.28344727 74.67236328 C-187.13994873 75.21618652 -187.9964502 75.76000977 -188.87890625 76.3203125 C-189.83273193 76.93382568 -190.78655762 77.54733887 -191.76928711 78.17944336 C-192.79417236 78.82147705 -193.81905762 79.46351074 -194.875 80.125 C-195.90955322 80.7857251 -196.94410645 81.4464502 -198.01000977 82.12719727 C-201.10287692 84.09773597 -204.20591492 86.05117677 -207.3125 88 C-209.00781682 89.06900356 -210.70312972 90.13801335 -212.3984375 91.20703125 C-216.02644953 93.48776569 -219.6652165 95.75022426 -223.3125 98 C-216.6954517 100.64762899 -210.96918409 102.81609221 -203.97436523 100.08813477 C-198.00602996 97.10064971 -192.90899244 93.65422144 -187.75 89.4375 C-179.17885423 82.59336252 -170.33337896 76.23468343 -161.3125 70 C-170.09569435 62.77721164 -178.95459574 55.68762525 -188.0144043 48.81445312 C-193.38807319 44.72984888 -198.67069112 40.54370526 -203.92773438 36.31054688 C-207.87406775 33.13750993 -211.8538905 30.01516709 -215.875 26.9375 C-220.61451546 23.30485275 -225.34968735 19.66726086 -230.0625 16 C-230.6716626 15.53070068 -231.2808252 15.06140137 -231.90844727 14.57788086 C-236.1979087 11.22918261 -236.1979087 11.22918261 -237.3125 9 C-233.89111586 5.13771584 -230.01186312 2.8560575 -225.5625 0.375 C-224.54542969 -0.21667969 -224.54542969 -0.21667969 -223.5078125 -0.8203125 C-212.71665446 -6.89290333 -212.71665446 -6.89290333 -206.68212891 -5.31005859 C-203.55418302 -4.12009642 -200.53668532 -2.78163586 -197.5 -1.375 C-196.3641748 -0.87154053 -195.22834961 -0.36808105 -194.05810547 0.15063477 C-190.46683523 1.74694674 -186.88998562 3.37307142 -183.3125 5 C-181.07285121 5.99887112 -178.83198869 6.99502585 -176.58984375 7.98828125 C-173.25171412 9.46726459 -169.91440005 10.94781929 -166.58081055 12.43701172 C-157.17975045 16.63620161 -147.75766084 20.79226035 -138.24194336 24.72607422 C-133.01510693 26.89648102 -127.99993511 29.08302056 -123.13671875 31.98828125 C-118.683805 34.5466223 -114.55386089 36.91780351 -109.3125 37 C-101.88936227 34.9696582 -95.59729044 30.34529133 -89.33007812 26.03271484 C-84.32800228 22.66319353 -79.09962859 19.69524405 -73.875 16.6875 C-72.86671143 16.09751221 -71.85842285 15.50752441 -70.81958008 14.8996582 C-62.8159951 10.22558561 -54.719254 5.90012952 -46.3125 2 C-45.62687988 1.67918457 -44.94125977 1.35836914 -44.23486328 1.02783203 C-29.82813435 -5.6637101 -13.86635693 -11.99252491 0 0 Z " fill="#005D65" transform="translate(821.3125,209)"/>
<path d="M0 0 C-1.30097368 3.90292105 -3.05084243 4.74083558 -6.375 7.125 C-7.4753559 7.92777537 -8.5742837 8.73251137 -9.671875 9.5390625 C-10.22939453 9.94801758 -10.78691406 10.35697266 -11.36132812 10.77832031 C-18.54668454 16.1352219 -25.26388827 22.03892034 -31.80859375 28.15234375 C-34 30 -34 30 -36.16015625 31.00390625 C-38.54136749 32.29309705 -38.84292196 33.58503787 -40 36 C-41.45704801 37.52149437 -42.96373398 38.99603521 -44.5 40.4375 C-59.6590319 55.3790422 -77.82236647 79.24160165 -78.3125 101.375 C-78.25805509 106.77714524 -77.90774192 109.98942276 -74 114 C-66.47798375 119.67988982 -59.08466126 119.88485672 -50 119 C-37.00782225 116.87570671 -24.79124318 111.82005138 -12.76147461 106.6550293 C-11 106 -11 106 -9 106 C-8.67 105.34 -8.34 104.68 -8 104 C-6.14770508 103.140625 -6.14770508 103.140625 -3.70703125 102.25 C2.49132476 99.8652554 8.38177742 96.98069592 14.3125 94 C15.45259521 93.42749512 16.59269043 92.85499023 17.76733398 92.26513672 C28.40091186 86.87599285 38.74861371 81.07995435 49 75 C49.96196289 74.43055664 50.92392578 73.86111328 51.91503906 73.27441406 C75.27221313 59.41667721 98.36516208 45.1260374 121.27978516 30.54980469 C130.90667782 24.42861186 140.57660355 18.38413254 150.3125 12.4375 C151.28541992 11.84146973 152.25833984 11.24543945 153.26074219 10.63134766 C157.76271461 7.89187301 162.23017084 5.24509547 167 3 C166.31336428 9.17972146 159.66052916 13.32152877 155.375 17.3125 C153.89274186 18.70338606 152.41103455 20.0948849 150.93619347 21.49363327 C149 23 149 23 146.2930088 24.19792557 C142.58689965 26.07356136 140.53919866 27.67933957 138 31 C135.81402731 38.68545503 136.6244265 47.1689981 136.76708984 55.06933594 C136.77183145 57.5566005 136.77170855 60.04387839 136.76708984 62.53114319 C136.76797316 67.88092852 136.80242125 73.22887587 136.86753464 78.57814789 C136.96157553 86.31623196 136.99350415 94.05360976 137.01034792 101.79220167 C137.03927207 114.35423216 137.11654913 126.91547375 137.22509766 139.47705078 C137.33030955 151.66612085 137.41527414 163.85503248 137.47119141 176.04443359 C137.47464677 176.79578007 137.47810213 177.54712655 137.4816622 178.32124111 C137.50562588 183.58264641 137.5283107 188.84405689 137.55078125 194.10546875 C137.5758606 199.93849929 137.60141444 205.77152752 137.62759399 211.60455322 C137.63073926 212.31215767 137.63388452 213.01976212 137.63712509 213.74880913 C137.68115629 223.55103136 137.74184958 233.35302134 137.8160561 243.15505987 C137.8499177 247.6948097 137.88052455 252.23458343 137.91188049 256.77435112 C137.92977153 259.20120355 137.94949809 261.62804322 137.9711647 264.05486488 C138.0006547 267.35921287 138.02409562 270.66355243 138.04623413 273.96795654 C138.05665029 274.93525814 138.06706645 275.90255973 138.07779825 276.8991735 C138.08259089 277.78350318 138.08738353 278.66783287 138.0923214 279.57896042 C138.09866392 280.3416589 138.10500643 281.10435739 138.11154115 281.89016795 C137.99571843 284.08098702 137.72029986 285.92626999 137 288 C108.41870217 303.58979882 60.8617747 299.02958795 30.72119141 290.34326172 C25.41588302 288.57800838 25.41588302 288.57800838 23.79310799 286.32262039 C22.72932093 283.20731509 22.75451584 280.51051439 22.75949097 277.21697998 C22.75778212 276.53569259 22.75607327 275.8544052 22.75431263 275.15247273 C22.75101969 272.87074705 22.76201804 270.58931576 22.77294922 268.30761719 C22.77351338 266.67158007 22.77319669 265.03554244 22.77206421 263.39950562 C22.77148987 258.95769109 22.78325734 254.51598436 22.79721212 250.07419491 C22.80970593 245.43238304 22.81088892 240.79056876 22.81326294 236.14874268 C22.81948168 227.35860894 22.83589783 218.5685249 22.85596192 209.77841306 C22.87830866 199.77126253 22.88931127 189.76410963 22.89935279 179.75694036 C22.92026371 159.17126583 22.95544735 138.58563605 23 118 C21.37701241 118.81186768 21.37701241 118.81186768 19.72123718 119.64013672 C18.2785973 120.3616583 16.83595496 121.08317497 15.39331055 121.8046875 C14.68291374 122.16006592 13.97251694 122.51544434 13.24059296 122.8815918 C-56.04299448 157.53022275 -56.04299448 157.53022275 -88.625 149.4375 C-99.24851876 145.85471518 -106.6514678 139.90180159 -112 130 C-116.42990287 119.13382571 -113.48232523 107.35758056 -109.13818359 96.93164062 C-95.80104729 67.49700386 -73.05729297 42.76880378 -47 24 C-46.44151367 23.59571777 -45.88302734 23.19143555 -45.30761719 22.77490234 C-13.47872077 0 -13.47872077 0 0 0 Z " fill="#006C74" transform="translate(380,356)"/>
<path d="M0 0 C2.74987555 3.25911176 3.03404393 6.44223382 2.96484375 10.625 C1.42780596 23.78723907 -7.6581686 33.80489989 -17.56640625 41.82421875 C-31.17936035 51.98600139 -45.86859277 60.80954263 -60.33349609 69.6862793 C-61.15930176 70.19328369 -61.98510742 70.70028809 -62.8359375 71.22265625 C-63.55700684 71.66359619 -64.27807617 72.10453613 -65.02099609 72.55883789 C-67.82093236 74.31976094 -70.5665438 76.15630063 -73.3125 78 C-72.69750491 85.73857294 -72.0802618 93.47696328 -71.4603672 101.21514511 C-71.17240165 104.81066535 -70.88513012 108.40623785 -70.59960938 112.00195312 C-68.95375574 132.93453673 -68.95375574 132.93453673 -66.92849731 153.83306885 C-65.32418385 168.96166105 -65.32418385 168.96166105 -66.3125 174 C-69.63663723 178.01231351 -73.80760087 181.10071619 -77.9375 184.25 C-78.50984375 184.69601562 -79.0821875 185.14203125 -79.671875 185.6015625 C-82.20826491 187.54809429 -84.25631533 188.98127178 -87.3125 190 C-93.10956887 179.08812277 -97.74641452 167.70438076 -102.5 156.3125 C-104.1847359 152.29050369 -105.87286079 148.26993867 -107.5625 144.25 C-107.97344406 143.27182816 -108.38438812 142.29365631 -108.80778503 141.2858429 C-112.54876785 132.40029849 -116.40580923 123.57072255 -120.3659668 114.78051758 C-120.76468994 113.89001709 -121.16341309 112.9995166 -121.57421875 112.08203125 C-121.91412842 111.33155518 -122.25403809 110.5810791 -122.60424805 109.80786133 C-123.3125 108 -123.3125 108 -123.3125 106 C-138.21985149 112.88745856 -153.10468216 119.82163607 -167.95715332 126.82669067 C-169.50991156 127.55898981 -171.0628852 128.29083238 -172.61608887 129.02218628 C-173.73376648 129.54862228 -173.73376648 129.54862228 -174.87402344 130.08569336 C-175.6041716 130.42931915 -176.33431976 130.77294495 -177.08659363 131.12698364 C-178.51548843 131.80421735 -179.94144721 132.48768494 -181.36421204 133.17770386 C-184.50598615 134.70024282 -187.59762636 136.10959759 -190.86108398 137.36401367 C-195.43413416 139.22333201 -198.45259648 140.55848323 -201.03173828 144.88208008 C-202.39560104 148.36865985 -203.42849789 151.81601646 -204.375 155.4375 C-205.07233448 157.83258067 -205.77150054 160.22712896 -206.47265625 162.62109375 C-206.94699097 164.29425659 -206.94699097 164.29425659 -207.4309082 166.0012207 C-209.08104304 171.61423821 -210.44102673 176.03720649 -215.5 179.4375 C-216.21542969 179.93121094 -216.93085937 180.42492187 -217.66796875 180.93359375 C-218.21066406 181.28550781 -218.75335937 181.63742187 -219.3125 182 C-221.3125 181 -221.3125 181 -221.98165894 179.35014343 C-222.1783316 178.63606827 -222.37500427 177.9219931 -222.57763672 177.1862793 C-222.80482391 176.37841476 -223.03201111 175.57055023 -223.26608276 174.73820496 C-223.50569733 173.85908951 -223.74531189 172.97997406 -223.9921875 172.07421875 C-224.51404985 170.22713637 -225.03619419 168.38013364 -225.55859375 166.53320312 C-226.37502243 163.61138995 -227.18722282 160.68850521 -227.99365234 157.76391602 C-228.77347549 154.94735867 -229.56940448 152.13573293 -230.3671875 149.32421875 C-230.72053665 148.01465462 -230.72053665 148.01465462 -231.08102417 146.67863464 C-233.32071522 138.83874994 -237.42651433 135.73511491 -244 131.125 C-244.61633301 130.68736328 -245.23266602 130.24972656 -245.86767578 129.79882812 C-250.1145767 126.7968423 -254.42587584 123.91454311 -258.8359375 121.15625 C-259.56683594 120.58390625 -259.56683594 120.58390625 -260.3125 120 C-260.3125 119.34 -260.3125 118.68 -260.3125 118 C-261.743873 116.71369461 -261.743873 116.71369461 -263.64453125 115.4609375 C-264.71199585 114.7189209 -264.71199585 114.7189209 -265.80102539 113.96191406 C-266.56793701 113.43823242 -267.33484863 112.91455078 -268.125 112.375 C-269.68273075 111.29490382 -271.2400216 110.21417293 -272.796875 109.1328125 C-273.56451172 108.60204102 -274.33214844 108.07126953 -275.12304688 107.52441406 C-279.574191 104.42529007 -283.9410271 101.21015288 -288.3125 98 C-286.8243703 93.53561091 -283.65113842 92.48970299 -279.6875 90.25 C-278.63755859 89.61384766 -278.63755859 89.61384766 -277.56640625 88.96484375 C-276.87160156 88.56910156 -276.17679688 88.17335938 -275.4609375 87.765625 C-274.83364746 87.40243164 -274.20635742 87.03923828 -273.56005859 86.66503906 C-267.86619574 84.98025931 -261.46249285 87.70658888 -255.95703125 89.3984375 C-255.1741423 89.63406403 -254.39125336 89.86969055 -253.5846405 90.11245728 C-251.09662434 90.86187446 -248.61069032 91.61790751 -246.125 92.375 C-222.45227538 101.24196239 -222.45227538 101.24196239 -198.91699219 97.50244141 C-194.88565982 95.17690528 -191.34668634 92.37726481 -187.75 89.4375 C-179.17885423 82.59336252 -170.33337896 76.23468343 -161.3125 70 C-170.09569435 62.77721164 -178.95459574 55.68762525 -188.0144043 48.81445312 C-193.38807319 44.72984888 -198.67069112 40.54370526 -203.92773438 36.31054688 C-207.87406775 33.13750993 -211.8538905 30.01516709 -215.875 26.9375 C-220.61451546 23.30485275 -225.34968735 19.66726086 -230.0625 16 C-230.6716626 15.53070068 -231.2808252 15.06140137 -231.90844727 14.57788086 C-236.1979087 11.22918261 -236.1979087 11.22918261 -237.3125 9 C-233.89111586 5.13771584 -230.01186312 2.8560575 -225.5625 0.375 C-224.88445313 -0.01945313 -224.20640625 -0.41390625 -223.5078125 -0.8203125 C-212.71665446 -6.89290333 -212.71665446 -6.89290333 -206.68212891 -5.31005859 C-203.55418302 -4.12009642 -200.53668532 -2.78163586 -197.5 -1.375 C-196.3641748 -0.87154053 -195.22834961 -0.36808105 -194.05810547 0.15063477 C-190.46683523 1.74694674 -186.88998562 3.37307142 -183.3125 5 C-181.07285121 5.99887112 -178.83198869 6.99502585 -176.58984375 7.98828125 C-173.25171412 9.46726459 -169.91440005 10.94781929 -166.58081055 12.43701172 C-157.17975045 16.63620161 -147.75766084 20.79226035 -138.24194336 24.72607422 C-133.01510693 26.89648102 -127.99993511 29.08302056 -123.13671875 31.98828125 C-118.683805 34.5466223 -114.55386089 36.91780351 -109.3125 37 C-101.88936227 34.9696582 -95.59729044 30.34529133 -89.33007812 26.03271484 C-84.32800228 22.66319353 -79.09962859 19.69524405 -73.875 16.6875 C-72.86671143 16.09751221 -71.85842285 15.50752441 -70.81958008 14.8996582 C-62.8159951 10.22558561 -54.719254 5.90012952 -46.3125 2 C-45.62687988 1.67918457 -44.94125977 1.35836914 -44.23486328 1.02783203 C-29.82813435 -5.6637101 -13.86635693 -11.99252491 0 0 Z " fill="#FBB22A" transform="translate(821.3125,209)"/>
<path d="M0 0 C0.66 0 1.32 0 2 0 C8.01134878 11.12202054 13.853988 22.03162942 18 34 C18.48821152 35.2752656 18.97790728 36.54996357 19.46875 37.82421875 C36.68047878 83.68071852 30.49400174 136.30975037 11.0625 180.375 C9.7449988 183.26832977 8.38691996 186.13935042 7 189 C6.534729 189.96147949 6.534729 189.96147949 6.06005859 190.94238281 C-2.39964853 208.14811185 -13.64623944 223.41414928 -26 238 C-26.76054688 238.91523437 -27.52109375 239.83046875 -28.3046875 240.7734375 C-31.6812245 244.76643768 -31.6812245 244.76643768 -33 246 C-33.66 246 -34.32 246 -35 246 C-35.22171875 246.55558594 -35.4434375 247.11117187 -35.671875 247.68359375 C-54.55719367 280.6218113 -111.41894522 302.8137092 -145.52783203 312.34423828 C-153.94731618 314.57757172 -162.43553607 316.41767656 -171 318 C-171.72348633 318.13422363 -172.44697266 318.26844727 -173.19238281 318.40673828 C-226.13279904 327.58290501 -279.16696344 312.90208752 -326 289 C-326.66 288.67 -327.32 288.34 -328 288 C-326.41001848 283.04806961 -323.50207347 279.38058204 -320.375 275.3125 C-319.57400879 274.25772461 -319.57400879 274.25772461 -318.75683594 273.18164062 C-314.59178101 267.7167279 -310.33716758 262.32935334 -306 257 C-305.12770752 257.36182373 -305.12770752 257.36182373 -304.23779297 257.73095703 C-248.39179595 280.70965626 -187.36282794 283.97173521 -130.80883789 260.80566406 C-77.28770501 237.97556361 -32.78875658 198.00338966 -8 145 C-7.69465332 144.35595215 -7.38930664 143.7119043 -7.07470703 143.04833984 C3.00344227 121.63832592 9.97770014 97.7591994 10.23828125 73.96875 C10.2480751 73.2235762 10.25786896 72.4784024 10.26795959 71.71064758 C10.50498603 48.97543174 9.13761414 27.91470507 1.171875 6.38671875 C0 3 0 3 0 0 Z " fill="#01BBBE" transform="translate(672,390)"/>
<path d="M0 0 C0.65484375 0.36738281 1.3096875 0.73476563 1.984375 1.11328125 C13.18396229 8.17724112 20.28998048 21.43090482 23.875 33.8125 C28.89060016 56.71110313 20.16891855 75.78202868 8.265625 94.64453125 C3.83525129 101.32828468 -1.09603846 107.66107244 -6 114 C-7.051875 115.37671875 -7.051875 115.37671875 -8.125 116.78125 C-14.80360561 125.3521272 -22.2645039 133.37501099 -30 141 C-34.76560621 139.59835111 -37.95882443 136.84588526 -41 133 C-41 132.34 -41 131.68 -41 131 C-41.66 131 -42.32 131 -43 131 C-44.33984375 129.70703125 -44.33984375 129.70703125 -45.9375 127.8125 C-46.56140625 127.07515625 -47.1853125 126.3378125 -47.828125 125.578125 C-48.54484375 124.72734375 -49.2615625 123.8765625 -50 123 C-51.22976563 121.60007812 -51.22976563 121.60007812 -52.484375 120.171875 C-70.56306525 99.49248395 -89.92273544 73.50096147 -88.9375 44.75 C-87.50646593 28.89607204 -81.21229018 15.68513162 -69.8125 4.625 C-49.4952268 -12.03023436 -22.38118969 -13.03335747 0 0 Z M-51.58984375 32.8046875 C-55.59650038 39.04219727 -56.66733039 44.9478555 -55.69140625 52.29296875 C-53.71404098 60.03485651 -48.79523774 64.70359075 -42.24609375 68.90625 C-36.25718502 71.82258817 -29.7276379 71.68368388 -23.4375 69.8125 C-15.95513005 67.04313387 -12.21227781 62.89294648 -8.9140625 55.75390625 C-6.99132798 49.96105224 -6.98856468 43.89134243 -9.25 38.1875 C-13.11047517 31.15592023 -16.34918962 27.06702683 -23.8125 23.75 C-34.64558769 21.20103819 -44.60444237 23.85412593 -51.58984375 32.8046875 Z " fill="#005C64" transform="translate(351,538)"/>
<path d="M0 0 C2.0692348 3.1038522 2.24989854 3.75043028 2.24888897 7.26231289 C2.25348777 8.13666813 2.25808656 9.01102338 2.26282471 9.91187423 C2.25768115 10.87314431 2.25253759 11.83441438 2.24723816 12.82481384 C2.24965257 13.84544294 2.25206699 14.86607205 2.25455457 15.9176293 C2.26021176 19.35392314 2.25151311 22.79003274 2.24291992 26.22631836 C2.24399231 28.68329417 2.24593034 31.14026974 2.24867249 33.59724426 C2.25302602 39.58800144 2.24806781 45.57868592 2.23882218 51.56943219 C2.22844569 58.54328395 2.22850818 65.51712374 2.22899476 72.49098177 C2.22949562 84.93337124 2.22032801 97.37573503 2.20581055 109.81811523 C2.19172572 121.89591947 2.18463963 133.97370111 2.18530273 146.05151367 C2.18536267 147.16706234 2.18536267 147.16706234 2.18542381 148.30514734 C2.18548435 149.4187523 2.18548435 149.4187523 2.1855461 150.55485433 C2.18623586 164.29705397 2.18034596 178.03924399 2.17139288 191.78144051 C2.16837533 196.6442256 2.16731317 201.50700892 2.16686058 206.36979485 C2.16610745 212.9139019 2.15976609 219.45798818 2.14969444 226.00208855 C2.14676768 228.4079575 2.14554443 230.8138292 2.14612198 233.21969986 C2.14661093 236.49589297 2.14097403 239.77201876 2.13371277 243.04820251 C2.13526137 244.00724186 2.13680997 244.96628121 2.1384055 245.95438236 C2.13518106 246.83134535 2.13195661 247.70830834 2.12863445 248.61184597 C2.12793003 249.36814153 2.1272256 250.12443709 2.12649983 250.9036507 C1.99502062 253.08251811 1.71620101 254.93622935 1 257 C-3.90618325 259.47619042 -9.54314643 260.43080423 -15 260 C-11.85426323 257.90284215 -9.98543749 257.47995441 -6.3125 256.875 C-5.31863281 256.70742188 -4.32476562 256.53984375 -3.30078125 256.3671875 C-2.54152344 256.24601562 -1.78226563 256.12484375 -1 256 C-1.00092179 254.68672006 -1.00184359 253.37344011 -1.00279331 252.02036381 C-1.02442933 220.87843927 -1.04092956 189.7365167 -1.05106533 158.59458641 C-1.05231611 154.76545017 -1.05361042 150.93631395 -1.05493164 147.10717773 C-1.05519395 146.34483328 -1.05545626 145.58248882 -1.05572652 144.79704302 C-1.06008337 132.4369508 -1.067971 120.07686322 -1.0771528 107.71677376 C-1.08648892 95.04368015 -1.09205552 82.37058897 -1.09408849 69.69749206 C-1.09546381 61.87118202 -1.09981485 54.04488506 -1.10791647 46.21857905 C-1.11380409 40.22754191 -1.11445907 34.23651614 -1.11310768 28.24547577 C-1.11338421 25.78029487 -1.11539197 23.3151135 -1.11920547 20.84993553 C-1.12413575 17.50028519 -1.12300076 14.15069214 -1.12025452 10.80104065 C-1.12316736 9.81176168 -1.1260802 8.8224827 -1.12908131 7.80322558 C-1.12709026 6.91296866 -1.12509921 6.02271174 -1.12304783 5.10547733 C-1.12342755 4.33122758 -1.12380727 3.55697783 -1.1241985 2.75926596 C-1 1 -1 1 0 0 Z " fill="#034A50" transform="translate(516,387)"/>
<path d="M0 0 C0.33 0 0.66 0 1 0 C2.92409041 23.14279223 3.14351588 46.27463408 2.89946485 69.484025 C2.86420362 72.9685385 2.83622881 76.45311187 2.80735779 79.93768311 C2.75206456 86.48521434 2.69057246 93.03267078 2.62663645 99.58012271 C2.55395443 107.05579842 2.48851297 114.53153263 2.42356598 122.00727892 C2.29021877 137.33826254 2.14814842 152.6691518 2 168 C3.65 168.33 5.3 168.66 7 169 C7 169.33 7 169.66 7 170 C4.6875 170.3125 4.6875 170.3125 2 170 C-1.00958093 166.14990384 -1.37352443 163.16522874 -1.36749268 158.3581543 C-1.37076152 157.70404162 -1.37403036 157.04992895 -1.37739825 156.37599468 C-1.38466085 154.19183084 -1.37053998 152.00834128 -1.35644531 149.82421875 C-1.35723645 148.25525804 -1.35933451 146.68629752 -1.36264038 145.11734009 C-1.36777094 140.86114417 -1.35424566 136.60519037 -1.33711338 132.34903336 C-1.32206724 127.89374638 -1.32325115 123.43846242 -1.32244873 118.9831543 C-1.31875709 111.50142286 -1.30379541 104.01978322 -1.28125 96.53808594 C-1.25237776 86.93732041 -1.24202632 77.33662881 -1.2375679 67.73582458 C-1.23358579 59.47903669 -1.22108433 51.22226482 -1.20722103 42.96548843 C-1.20312533 40.31271654 -1.20019802 37.65994521 -1.19742584 35.00717163 C-1.19252573 30.83752637 -1.18231028 26.66792567 -1.16798782 22.49830246 C-1.16347247 20.96847308 -1.16062797 19.43863772 -1.15958023 17.90880203 C-1.15782871 15.81977211 -1.14993062 13.7308528 -1.14044189 11.6418457 C-1.13746723 10.47305374 -1.13449257 9.30426178 -1.13142776 8.10005188 C-1.01192972 5.28139228 -0.64567418 2.7404211 0 0 Z " fill="#004F55" transform="translate(404,475)"/>
<path d="M0 0 C-1.30097368 3.90292105 -3.05084243 4.74083558 -6.375 7.125 C-11.59313 10.91528348 -16.59071676 14.89987926 -21.52734375 19.0546875 C-23.92229902 20.93887032 -26.35405508 22.49479341 -29 24 C-27.98424386 20.44485352 -26.71823053 18.56562608 -23.875 16.3125 C-22.92625 15.549375 -21.9775 14.78625 -21 14 C-21 13.34 -21 12.68 -21 12 C-29.59553645 16.0959561 -29.59553645 16.0959561 -37 22 C-37.99 22 -38.98 22 -40 22 C-40 22.66 -40 23.32 -40 24 C-42.69101045 25.85492401 -45.49056293 27.48067395 -48.30078125 29.1484375 C-51.02580465 30.79611168 -51.02580465 30.79611168 -52.48046875 33.0390625 C-54.53924098 35.69588424 -57.00741762 36.51304895 -60 38 C-62.6410364 40.28085378 -62.6410364 40.28085378 -65.0625 42.875 C-65.87847656 43.71804688 -66.69445312 44.56109375 -67.53515625 45.4296875 C-68.34855469 46.27789062 -69.16195313 47.12609375 -70 48 C-70.84046875 48.8353125 -71.6809375 49.670625 -72.546875 50.53125 C-74.83837834 52.8373489 -77.02877449 55.19486799 -79.1875 57.625 C-79.86167969 58.38039063 -80.53585937 59.13578125 -81.23046875 59.9140625 C-83.13585251 62.07891866 -83.13585251 62.07891866 -85 65 C-85.66 65 -86.32 65 -87 65 C-87.3403125 66.02673828 -87.3403125 66.02673828 -87.6875 67.07421875 C-89.33428719 70.74518186 -91.53511214 73.65392227 -94 76.8125 C-94.45117188 77.40998047 -94.90234375 78.00746094 -95.3671875 78.62304688 C-96.52637603 80.12347581 -97.75813919 81.56724504 -99 83 C-99.66 83 -100.32 83 -101 83 C-99.51383683 78.7093031 -97.26839147 75.21260364 -94.625 71.5625 C-94.18800781 70.95631836 -93.75101562 70.35013672 -93.30078125 69.72558594 C-82.59121451 55.10174797 -70.25085037 42.20810123 -56 31 C-55.02546875 30.20851563 -54.0509375 29.41703125 -53.046875 28.6015625 C-17.13702681 0 -17.13702681 0 0 0 Z " fill="#04B6BA" transform="translate(380,356)"/>
<path d="M0 0 C0.33 0 0.66 0 1 0 C1.33 29.37 1.66 58.74 2 89 C64.37 89.495 64.37 89.495 128 90 C128 90.33 128 90.66 128 91 C111.45852931 91.02332889 94.91706394 91.04097912 78.37558079 91.05181217 C70.69561273 91.05697515 63.01565487 91.06401789 55.33569336 91.07543945 C48.64422011 91.08538623 41.95275424 91.09185341 35.2612738 91.09408849 C31.71604399 91.09539561 28.17083532 91.09848153 24.62561226 91.10573006 C20.67431355 91.1137438 16.7230358 91.11399114 12.77172852 91.11352539 C11.58778 91.11712067 10.40383148 91.12071594 9.18400574 91.12442017 C8.11403351 91.1230455 7.04406128 91.12167084 5.94166565 91.12025452 C4.53823583 91.12163721 4.53823583 91.12163721 3.1064539 91.12304783 C1 91 1 91 0 90 C-1.27788776 79.56548039 -1.14829324 69.00905965 -1.1328125 58.515625 C-1.13348794 56.88132717 -1.13445996 55.24702943 -1.13571167 53.61273193 C-1.13717233 50.22097803 -1.13508386 46.82925077 -1.13037109 43.4375 C-1.12461967 39.08634499 -1.12799687 34.73525094 -1.13394356 30.38409805 C-1.13754697 27.02475519 -1.13641255 23.66542696 -1.13381577 20.30608368 C-1.1331487 18.70007062 -1.13396722 17.09405624 -1.13629532 15.48804474 C-1.13882409 13.25794402 -1.1349806 11.02794469 -1.12939453 8.79785156 C-1.12820114 6.89595062 -1.12820114 6.89595062 -1.12698364 4.95562744 C-1 2 -1 2 0 0 Z " fill="#082E30" transform="translate(240,249)"/>
<path d="M0 0 C0 0.66 0 1.32 0 2 C-10.14997153 6.62817361 -20.25552884 10.91954713 -31 14 C-32.03181396 14.29632324 -32.03181396 14.29632324 -33.08447266 14.59863281 C-48.21922382 18.79148385 -65.00611623 20.7774598 -80 15 C-79.67 14.01 -79.34 13.02 -79 12 C-77.35 12.33 -75.7 12.66 -74 13 C-74 13.66 -74 14.32 -74 15 C-63.77 15 -53.54 15 -43 15 C-43 14.34 -43 13.68 -43 13 C-42.2471875 12.84144531 -41.494375 12.68289063 -40.71875 12.51953125 C-34.27327599 11.10371718 -27.93661101 9.48487448 -21.625 7.5625 C-20.64563477 7.27306519 -20.64563477 7.27306519 -19.64648438 6.9777832 C-14.97779074 5.521488 -11.15126965 3.52151194 -7 1 C-3.36363636 -1.12121212 -3.36363636 -1.12121212 0 0 Z " fill="#09B9BC" transform="translate(368,489)"/>
<path d="M0 0 C0.99 0 1.98 0 3 0 C2.84144531 0.8559375 2.68289063 1.711875 2.51953125 2.59375 C1.49075583 9.33880387 0.74911128 16.25766704 3.625 22.5625 C9.70698856 28.80454089 14.97681119 30.28281386 23.45214844 30.40258789 C30.16525874 30.30012797 36.3402847 28.60964798 42.74023438 26.69091797 C43.89749023 26.34697998 43.89749023 26.34697998 45.078125 25.99609375 C46.10534668 25.67402954 46.10534668 25.67402954 47.15332031 25.34545898 C49 25 49 25 52 26 C49.73895745 28.26104255 48.47488627 28.59615826 45.4375 29.4375 C42.0698653 30.38313954 38.82774747 31.43798292 35.5625 32.6875 C25.74198273 35.95524254 16.34734276 33.90919876 7.1875 29.7109375 C4.5433997 28.30625921 2.25609477 26.96953434 0 25 C-1.0625 21.1875 -1.0625 21.1875 -1 18 C-1.33 17.67 -1.66 17.34 -2 17 C-2.43634266 11.04341538 -2.40312827 5.55723413 0 0 Z " fill="#06B8BB" transform="translate(300,445)"/>
<path d="M0 0 C0.99 0.66 1.98 1.32 3 2 C1.88121617 3.17262904 0.75476949 4.33795138 -0.375 5.5 C-1.00148438 6.1496875 -1.62796875 6.799375 -2.2734375 7.46875 C-4 9 -4 9 -6 9 C-6.2371875 9.56847656 -6.474375 10.13695312 -6.71875 10.72265625 C-8.28067425 13.49888137 -10.17698571 15.25783628 -12.5 17.4375 C-25.92322566 30.66813992 -37.01237935 47.47303993 -44 65 C-44.99 64.67 -45.98 64.34 -47 64 C-47 63.01 -47 62.02 -47 61 C-46.01 60.505 -46.01 60.505 -45 60 C-44.09656316 58.11736119 -44.09656316 58.11736119 -43.375 55.9375 C-43.11460937 55.20402344 -42.85421875 54.47054687 -42.5859375 53.71484375 C-42.39257812 53.14894531 -42.19921875 52.58304687 -42 52 C-41.34 52 -40.68 52 -40 52 C-39.87625 51.21625 -39.7525 50.4325 -39.625 49.625 C-39 47 -39 47 -37 45 C-36.3574765 42.93125966 -36.3574765 42.93125966 -36 41 C-35.34 41 -34.68 41 -34 41 C-33.7525 40.21625 -33.505 39.4325 -33.25 38.625 C-31.79219136 35.56360186 -30.92006527 35.41293481 -28 34 C-27.32843384 32.06381575 -27.32843384 32.06381575 -27 30 C-26.34 29.01 -25.68 28.02 -25 27 C-24.34 27 -23.68 27 -23 27 C-23 25.68 -23 24.36 -23 23 C-21.35666496 21.96210419 -19.68756133 20.96432076 -18 20 C-17.33224778 18.66721 -16.66566548 17.33383346 -16 16 C-14.484375 14.54296875 -14.484375 14.54296875 -12.75 13.1875 C-9.57454135 10.58097769 -6.95773391 7.78824227 -4.359375 4.61328125 C-2.98469537 2.98183675 -1.52796085 1.48751483 0 0 Z " fill="#03B5B8" transform="translate(348,379)"/>
<path d="M0 0 C0.495 1.485 0.495 1.485 1 3 C-0.15690269 4.15690269 -1.31485612 5.31276477 -2.4765625 6.46484375 C-3.46642958 7.46232519 -4.44149714 8.47479441 -5.3984375 9.50390625 C-9.34146696 13.65709718 -13.64927358 17.25539275 -18.125 20.8125 C-18.72304443 21.29283691 -19.32108887 21.77317383 -19.93725586 22.26806641 C-23.16342955 24.79398882 -26.05272963 26.71155137 -30 28 C-27.54837431 24.67279371 -25.72045706 22.73621329 -22 21 C-19.89767656 18.1315587 -19.89767656 18.1315587 -19 15 C-17.68 15 -16.36 15 -15 15 C-15.66 14.34 -16.32 13.68 -17 13 C-17.46148438 13.37511719 -17.92296875 13.75023437 -18.3984375 14.13671875 C-22.87046985 17.64540816 -27.33284686 20.26026587 -32.45703125 22.69921875 C-36.53492978 24.78514841 -40.25771069 27.36955027 -44 30 C-44.66 29.67 -45.32 29.34 -46 29 C-36.49873586 21.4762717 -26.04375171 15.61392505 -15.59765625 9.52587891 C-10.34372026 6.43968531 -5.16799728 3.22756056 0 0 Z M-12 9 C-12.66 9.66 -13.32 10.32 -14 11 C-12.35 11 -10.7 11 -9 11 C-9.33 10.34 -9.66 9.68 -10 9 C-10.66 9 -11.32 9 -12 9 Z " fill="#02464B" transform="translate(546,359)"/>
<path d="M0 0 C0.99 0.33 1.98 0.66 3 1 C1.41058594 1.92232422 1.41058594 1.92232422 -0.2109375 2.86328125 C-1.59916593 3.67933445 -2.98717542 4.49576017 -4.375 5.3125 C-5.07367187 5.71662109 -5.77234375 6.12074219 -6.4921875 6.53710938 C-7.1625 6.93349609 -7.8328125 7.32988281 -8.5234375 7.73828125 C-9.14138184 8.09962158 -9.75932617 8.46096191 -10.39599609 8.83325195 C-12.3025898 10.07842981 -12.3025898 10.07842981 -14 13 C-4.33327801 20.78467709 -4.33327801 20.78467709 5.4375 28.4375 C8.93258967 31.13314572 12.35109543 33.91443754 15.765625 36.71069336 C21.89599889 41.72922745 28.05898851 46.6130297 34.515625 51.2109375 C38.4298659 54.0296833 42.21580091 57.01001554 46 60 C45.67 60.99 45.34 61.98 45 63 C43.92685547 62.09121094 43.92685547 62.09121094 42.83203125 61.1640625 C36.45282404 55.79991673 29.97416028 50.61672962 23.34765625 45.5625 C18.11391001 41.56844652 12.95450636 37.47922482 7.78369141 33.40429688 C5.97588854 31.98101709 4.1660235 30.56040208 2.35546875 29.140625 C-4.45880002 23.79631624 -11.25121657 18.42701709 -18 13 C-16.56446624 8.69339873 -13.31350296 7.52238858 -9.5625 5.375 C-8.86833984 4.96765625 -8.17417969 4.5603125 -7.45898438 4.140625 C-5.00001085 2.70285152 -2.54848024 1.27424012 0 0 Z " fill="#F39D24" transform="translate(602,206)"/>
<path d="M0 0 C0.66 0 1.32 0 2 0 C3.75839881 3.28724401 5.50510657 6.58057016 7.25 9.875 C7.74113281 10.7928125 8.23226562 11.710625 8.73828125 12.65625 C17.35614602 28.97274062 17.35614602 28.97274062 16.59863281 33.28466797 C16.40108398 33.85072754 16.20353516 34.41678711 16 35 C14.68 35 13.36 35 12 35 C12 34.34 12 33.68 12 33 C11.34 33 10.68 33 10 33 C9.67 34.32 9.34 35.64 9 37 C8.76925781 35.71867187 8.53851562 34.43734375 8.30078125 33.1171875 C6.52838165 23.60942439 4.51301653 14.67002078 0.953125 5.65234375 C0 3 0 3 0 0 Z " fill="#11BBBC" transform="translate(672,390)"/>
<path d="M0 0 C0.66 0.66 1.32 1.32 2 2 C1.70964408 5.70203802 0.99876593 9.00413776 -0.0625 12.5625 C-1.85572862 19.13767161 -0.84206673 22.8786255 2 29 C2.268125 29.99 2.53625 30.98 2.8125 32 C4.98816652 37.49642068 8.58857578 41.58767836 14 44 C15.33333333 44.66666667 16.66666667 45.33333333 18 46 C18 46.66 18 47.32 18 48 C11.21874085 47.04657165 6.49757375 42.95793162 2.15625 37.81640625 C-2.72623437 30.91152026 -5.15072796 23.55017638 -4 15 C-2.81890081 9.95208477 -1.45136038 4.97609275 0 0 Z " fill="#06B2B5" transform="translate(270,455)"/>
<path d="M0 0 C0.33 0 0.66 0 1 0 C1.01030746 0.70743851 1.02061493 1.41487701 1.03123474 2.14375305 C1.12919521 8.80931238 1.23170763 15.47478432 1.33933926 22.14019489 C1.39451353 25.56698228 1.44792466 28.99377828 1.49731445 32.4206543 C1.55416665 36.35995251 1.61867312 40.2991074 1.68359375 44.23828125 C1.70030624 45.46960281 1.71701874 46.70092438 1.73423767 47.96955872 C1.75418289 49.11051498 1.77412811 50.25147125 1.79467773 51.42700195 C1.81022202 52.432939 1.8257663 53.43887604 1.84178162 54.47529602 C1.8996397 57.12604053 1.8996397 57.12604053 3 60 C3.09504628 62.14413223 3.12987226 64.2912677 3.125 66.4375 C3.12886719 68.13712891 3.12886719 68.13712891 3.1328125 69.87109375 C2.9141925 75.02152369 2.9141925 75.02152369 2 77 C-2.90618325 79.47619042 -8.54314643 80.43080423 -14 80 C-11 78 -11 78 0 76 C0 50.92 0 25.84 0 0 Z " fill="#01484E" transform="translate(515,567)"/>
<path d="M0 0 C2.94215327 3.51118511 5.31016948 7.07683235 7.5625 11.0625 C9.17684149 13.91366437 10.72617884 16.64135041 12.71484375 19.24609375 C14 21 14 21 14 23 C14.66 23 15.32 23 16 23 C17.29590571 24.59381506 18.51152694 26.25324782 19.6875 27.9375 C24.74422436 35.05538919 29.73180144 41.89675404 36 48 C37.70932834 49.96831748 39.35396952 51.97773398 41 54 C40.01 54 39.02 54 38 54 C38 53.34 38 52.68 38 52 C37.34 52 36.68 52 36 52 C34.66015625 50.70703125 34.66015625 50.70703125 33.0625 48.8125 C32.43859375 48.07515625 31.8146875 47.3378125 31.171875 46.578125 C30.45515625 45.72734375 29.7384375 44.8765625 29 44 C28.18015625 43.06671875 27.3603125 42.1334375 26.515625 41.171875 C0 10.83422179 0 10.83422179 0 0 Z " fill="#023C41" transform="translate(272,617)"/>
<path d="M0 0 C3.81687585 1.44705977 7.62766761 2.90950695 11.4375 4.375 C12.52611328 4.7875 13.61472656 5.2 14.73632812 5.625 C15.77080078 6.02460937 16.80527344 6.42421875 17.87109375 6.8359375 C18.82943115 7.20251465 19.78776855 7.5690918 20.77514648 7.94677734 C23 9 23 9 24 11 C17.43324068 9.79609412 11.78290096 7.77501141 5.69921875 5.0234375 C2.85775893 3.76364543 2.85775893 3.76364543 -1 4 C-2.76083043 6.05582274 -4.21020988 8.0034217 -5.6875 10.25 C-6.56239741 11.52960738 -7.43873018 12.80823439 -8.31640625 14.0859375 C-8.75871582 14.7365918 -9.20102539 15.38724609 -9.65673828 16.05761719 C-11.7317913 19.05818458 -13.92165569 21.9679884 -16.125 24.875 C-16.87007813 25.86242187 -17.61515625 26.84984375 -18.3828125 27.8671875 C-18.91648437 28.57101562 -19.45015625 29.27484375 -20 30 C-20.33 29.01 -20.66 28.02 -21 27 C-20.04711914 25.25756836 -20.04711914 25.25756836 -18.53515625 23.33984375 C-17.98561279 22.6327124 -17.43606934 21.92558105 -16.86987305 21.19702148 C-16.27343994 20.45137939 -15.67700684 19.7057373 -15.0625 18.9375 C-14.17075073 17.79873413 -14.17075073 17.79873413 -13.26098633 16.63696289 C-11.51775992 14.4161402 -9.76104303 12.20670734 -8 10 C-7.1169514 8.88560371 -6.23410822 7.77104459 -5.3515625 6.65625 C-3.57833411 4.4285118 -1.79319995 2.21163329 0 0 Z " fill="#09ADB0" transform="translate(366,647)"/>
<path d="M0 0 C-1.36901717 2.73803435 -2.70681981 2.7559617 -5.5625 3.75 C-18.344357 8.72475684 -27.01826104 18.93308596 -32.80859375 31.140625 C-34.02333882 34.05601316 -35.04301028 36.99104627 -36 40 C-36.33 40 -36.66 40 -37 40 C-36.3320268 27.97648247 -29.55740017 17.98668505 -20.80078125 9.9921875 C-7.84643398 -0.45267888 -7.84643398 -0.45267888 0 0 Z " fill="#02464D" transform="translate(302,533)"/>
<path d="M0 0 C5.16997097 1.67263767 9.3671023 4.35429234 12.234375 9 C15.7818072 15.99204028 17.51951827 22.64261272 15.31640625 30.41015625 C12.65652483 36.84464118 8.81230853 42.12512765 3 46 C2.01 45.67 1.02 45.34 0 45 C0.51949219 44.68289063 1.03898437 44.36578125 1.57421875 44.0390625 C7.50116724 40.07315612 10.87260217 35.85494857 13 29 C14.21008117 20.52943183 12.32880831 15.09549048 8.1875 7.8125 C5.78426667 4.72262857 3.31546647 3.03449079 0 1 C0 0.67 0 0.34 0 0 Z " fill="#00353A" transform="translate(329,562)"/>
<path d="M0 0 C0.99 0.33 1.98 0.66 3 1 C-9.85941213 8.73580067 -22.72128775 16.46432876 -35.671875 24.046875 C-37.7395382 25.26029237 -39.79448768 26.49600612 -41.828125 27.765625 C-44 29 -44 29 -46 29 C-46 28.34 -46 27.68 -46 27 C-45.13503906 26.52433594 -44.27007812 26.04867188 -43.37890625 25.55859375 C-31.28243654 18.85310261 -19.44552006 11.72600257 -7.60864258 4.57470703 C-6.74779053 4.05505371 -5.88693848 3.53540039 -5 3 C-4.12561279 2.41718262 -3.25122559 1.83436523 -2.3503418 1.23388672 C-1.18692261 0.62311279 -1.18692261 0.62311279 0 0 Z " fill="#01444A" transform="translate(459,413)"/>
<path d="M0 0 C0.99 0.33 1.98 0.66 3 1 C-1.29108982 6.28651504 -5.81877522 10.62214452 -11.125 14.875 C-11.82753906 15.45507812 -12.53007813 16.03515625 -13.25390625 16.6328125 C-13.93582031 17.18453125 -14.61773438 17.73625 -15.3203125 18.3046875 C-15.93148926 18.79952637 -16.54266602 19.29436523 -17.17236328 19.80419922 C-19.11659854 21.07628903 -20.72964649 21.5747393 -23 22 C-20.54837431 18.67279371 -18.72045706 16.73621329 -15 15 C-12.89767656 12.1315587 -12.89767656 12.1315587 -12 9 C-10.68 9 -9.36 9 -8 9 C-8 8.01 -8 7.02 -8 6 C-6.35 5.34 -4.7 4.68 -3 4 C-3 3.34 -3 2.68 -3 2 C-2.01 1.34 -1.02 0.68 0 0 Z " fill="#034347" transform="translate(539,365)"/>
<path d="M0 0 C0.66 0.33 1.32 0.66 2 1 C-5.43645566 6.55777212 -13.32472867 11.27410512 -21.30566406 15.99902344 C-22.15483398 16.50208008 -23.00400391 17.00513672 -23.87890625 17.5234375 C-24.6479126 17.97638184 -25.41691895 18.42932617 -26.20922852 18.89599609 C-27.95271101 19.87576552 -27.95271101 19.87576552 -29 21 C-29.23363881 22.84891946 -29.41303635 24.70488031 -29.5625 26.5625 C-29.64628906 27.57441406 -29.73007812 28.58632813 -29.81640625 29.62890625 C-29.87699219 30.41136719 -29.93757812 31.19382812 -30 32 C-30.33 32 -30.66 32 -31 32 C-31.33 28.04 -31.66 24.08 -32 20 C-26.49549466 16.51245702 -20.98602716 13.03299357 -15.47167969 9.56103516 C-13.28074641 8.1773106 -11.09636856 6.78398711 -8.9140625 5.38671875 C-7.75541373 4.65332124 -6.59657518 3.92022342 -5.4375 3.1875 C-4.42558594 2.54167969 -3.41367187 1.89585937 -2.37109375 1.23046875 C-1.58863281 0.82441406 -0.80617188 0.41835938 0 0 Z " fill="#FC9F1E" transform="translate(777,266)"/>
<path d="M0 0 C0.99 0.33 1.98 0.66 3 1 C-3.06005217 5.13231984 -9.08723629 9.16434181 -15.5546875 12.63671875 C-20.81307632 15.56831252 -25.89081674 18.81761846 -31 22 C-31 21.01 -31 20.02 -31 19 C-29.33862305 17.66894531 -29.33862305 17.66894531 -27.01171875 16.328125 C-25.74122681 15.58308716 -25.74122681 15.58308716 -24.44506836 14.82299805 C-23.5350708 14.30390869 -22.62507324 13.78481934 -21.6875 13.25 C-19.84813065 12.17980672 -18.00958289 11.10820004 -16.171875 10.03515625 C-15.28048828 9.51711426 -14.38910156 8.99907227 -13.47070312 8.46533203 C-9.54064886 6.13448364 -5.76305687 3.59736224 -1.99609375 1.01171875 C-1.33738281 0.67785156 -0.67867188 0.34398437 0 0 Z " fill="#01454A" transform="translate(496,390)"/>
<path d="M0 0 C3.94203193 0.60574959 6.41643889 2.57046355 9.5625 4.9375 C12.3481415 7.02011665 15.10557106 9.07038071 18 11 C19.16796875 13.64453125 19.16796875 13.64453125 20.1875 16.8125 C20.53167969 17.85019531 20.87585938 18.88789063 21.23046875 19.95703125 C21.94775458 22.79340515 22.1557742 25.09400539 22 28 C21.34 27.67 20.68 27.34 20 27 C19.49647643 25.31739208 19.00071243 23.63186005 18.5546875 21.93310547 C16.51247213 14.35569546 14.41613205 10.4258106 7.3828125 6.36328125 C6.59648438 5.91339844 5.81015625 5.46351563 5 5 C3.17666662 3.42382959 1.62310734 1.78541808 0 0 Z " fill="#FBA422" transform="translate(572,335)"/>
<path d="M0 0 C0.66 0.66 1.32 1.32 2 2 C1.70964408 5.70203802 0.99876593 9.00413776 -0.0625 12.5625 C-1.55373584 18.03036473 -1.41682945 21.86423741 1 27 C-0.32 27.33 -1.64 27.66 -3 28 C-5.48557484 18.05770063 -2.77818408 9.52520257 0 0 Z " fill="#08B7BA" transform="translate(270,455)"/>
<path d="M0 0 C0.66 0.66 1.32 1.32 2 2 C-1.83376731 5.48524301 -5.04074377 6.6716278 -10 8 C-10.86625 8.53625 -11.7325 9.0725 -12.625 9.625 C-15.32767606 11.18970719 -16.93007415 11.2631365 -20 11 C-20.33 10.34 -20.66 9.68 -21 9 C-19.04350603 8.16235732 -17.08474444 7.33000941 -15.125 6.5 C-14.03445313 6.0359375 -12.94390625 5.571875 -11.8203125 5.09375 C-9 4 -9 4 -7 4 C-6.67 3.34 -6.34 2.68 -6 2 C-4.02111039 1.27306096 -2.02045442 0.60183749 0 0 Z " fill="#018D92" transform="translate(378,458)"/>
<path d="M0 0 C0.33 0 0.66 0 1 0 C1.33763954 4.35384389 1.6693442 8.7081206 2 13.0625 C2.09539062 14.29162109 2.19078125 15.52074219 2.2890625 16.78710938 C2.72311641 22.5383237 3.13713803 28.23163181 3 34 C2.01 33.67 1.02 33.34 0 33 C0 22.11 0 11.22 0 0 Z " fill="#15545B" transform="translate(239,298)"/>
<path d="M0 0 C0.66 0 1.32 0 2 0 C3.17176518 2.12232979 4.33754785 4.24757791 5.5 6.375 C5.83386719 6.97828125 6.16773438 7.5815625 6.51171875 8.203125 C9 12.7734375 9 12.7734375 9 15 C8.34 15 7.68 15 7 15 C7 16.98 7 18.96 7 21 C5.08962855 17.43813922 3.74141964 13.73710549 2.375 9.9375 C1.92898438 8.70902344 1.48296875 7.48054688 1.0234375 6.21484375 C0 3 0 3 0 0 Z " fill="#3CBEB5" transform="translate(672,390)"/>
<path d="M0 0 C1.65 0.33 3.3 0.66 5 1 C5 1.66 5 2.32 5 3 C5.58491211 2.98952637 6.16982422 2.97905273 6.77246094 2.96826172 C9.43159663 2.92659736 12.09066353 2.90064099 14.75 2.875 C15.67039062 2.85824219 16.59078125 2.84148437 17.5390625 2.82421875 C18.87324219 2.81455078 18.87324219 2.81455078 20.234375 2.8046875 C21.05131836 2.79421387 21.86826172 2.78374023 22.70996094 2.77294922 C25.21887518 3.02170084 26.83395625 3.74299871 29 5 C25.12506384 5.05834395 21.25024164 5.09371201 17.375 5.125 C16.28058594 5.14175781 15.18617188 5.15851563 14.05859375 5.17578125 C4.01920021 5.23662606 4.01920021 5.23662606 -1 3 C-0.67 2.01 -0.34 1.02 0 0 Z " fill="#04ABAE" transform="translate(289,501)"/>
<path d="M0 0 C0.66 0.66 1.32 1.32 2 2 C1.625 4.625 1.625 4.625 1 7 C0.34 7 -0.32 7 -1 7 C-1.0825 7.9075 -1.165 8.815 -1.25 9.75 C-2.09248732 13.40077839 -3.17881618 14.63384583 -6 17 C-7 14 -7 14 -5.56640625 10.64453125 C-4.90851193 9.3619696 -4.24010257 8.08475943 -3.5625 6.8125 C-3.22412109 6.15830078 -2.88574219 5.50410156 -2.53710938 4.83007812 C-1.70030902 3.21540701 -0.85130254 1.60707237 0 0 Z " fill="#04B4B7" transform="translate(278,439)"/>
<path d="M0 0 C0.99 0.33 1.98 0.66 3 1 C-0.07764101 2.98812748 -3.16302752 4.96389858 -6.25 6.9375 C-7.12269531 7.50146484 -7.99539063 8.06542969 -8.89453125 8.64648438 C-9.73886719 9.18466797 -10.58320312 9.72285156 -11.453125 10.27734375 C-12.22817383 10.77484131 -13.00322266 11.27233887 -13.80175781 11.78491211 C-15.89547568 12.94222373 -17.66271406 13.55070101 -20 14 C-20 13.34 -20 12.68 -20 12 C-19.05898438 11.46890625 -18.11796875 10.9378125 -17.1484375 10.390625 C-15.89055828 9.67720096 -14.63274953 8.96365265 -13.375 8.25 C-12.75753906 7.90195312 -12.14007812 7.55390625 -11.50390625 7.1953125 C-8.4697605 5.47064018 -5.56181021 3.70932573 -2.7265625 1.671875 C-1.82679688 1.12015625 -0.92703125 0.5684375 0 0 Z " fill="#06B0B3" transform="translate(587,626)"/>
<path d="M0 0 C0.66 0.33 1.32 0.66 2 1 C1.55269531 1.57105469 1.10539062 2.14210938 0.64453125 2.73046875 C-4.33281555 9.4058443 -7.32598581 16.13815184 -10 24 C-10.33 24 -10.66 24 -11 24 C-10.46919409 14.44549368 -6.42402786 6.97465882 0 0 Z " fill="#023C41" transform="translate(276,549)"/>
<path d="M0 0 C2.12265493 1.04672204 4.21928826 2.11971349 6.296875 3.25390625 C11.66189331 6.11581888 15.92015076 7.6622306 22 8 C21.34 8.66 20.68 9.32 20 10 C12.46303405 9.78097706 6.23299119 7.03220665 0 3 C0 2.01 0 1.02 0 0 Z " fill="#03AEB1" transform="translate(303,469)"/>
<path d="M0 0 C0.33 0.99 0.66 1.98 1 3 C-0.125 5.1875 -0.125 5.1875 -2 7 C-3.66666667 7 -5.33333333 7 -7 7 C-9.76731714 8.15219152 -12.38138059 9.54448946 -15 11 C-15 10.34 -15 9.68 -15 9 C-12.52589781 7.3682707 -10.06340341 5.85299836 -7.5 4.375 C-6.42685547 3.74464844 -6.42685547 3.74464844 -5.33203125 3.1015625 C-3.55853967 2.06111411 -1.77974734 1.02971096 0 0 Z " fill="#073E43" transform="translate(546,359)"/>
<path d="M0 0 C0 0.66 0 1.32 0 2 C-1.74552473 2.84266711 -3.4966208 3.67380038 -5.25 4.5 C-6.22453125 4.9640625 -7.1990625 5.428125 -8.203125 5.90625 C-11 7 -11 7 -15 7 C-13.38198155 3.7639631 -10.07886152 2.65784851 -7 1 C-6.2575 0.566875 -5.515 0.13375 -4.75 -0.3125 C-3 -1 -3 -1 0 0 Z " fill="#03A8AC" transform="translate(368,489)"/>
<path d="M0 0 C4.73084414 1.43358913 8.84024187 4.19372076 12 8 C12 9.32 12 10.64 12 12 C10.35 12.66 8.7 13.32 7 14 C7 13.34 7 12.68 7 12 C7.99 11.34 8.98 10.68 10 10 C9.278125 9.44570313 8.55625 8.89140625 7.8125 8.3203125 C6.884375 7.59585937 5.95625 6.87140625 5 6.125 C3.6078125 5.04605469 3.6078125 5.04605469 2.1875 3.9453125 C1.465625 3.30335938 0.74375 2.66140625 0 2 C0 1.34 0 0.68 0 0 Z " fill="#FA9F1D" transform="translate(650,269)"/>
<path d="M0 0 C0.99 0.33 1.98 0.66 3 1 C2.04578192 2.14926266 1.08647955 3.29430541 0.125 4.4375 C-0.40867187 5.07558594 -0.94234375 5.71367187 -1.4921875 6.37109375 C-3 8 -3 8 -5 9 C-7.125 8.0625 -7.125 8.0625 -9 7 C-6.8614515 4.8614515 -5.86724686 4.57344937 -3 4 C-3 3.34 -3 2.68 -3 2 C-2.01 1.34 -1.02 0.68 0 0 Z " fill="#07595C" transform="translate(539,365)"/>
<path d="M0 0 C-2.32315698 2.32315698 -3.87261175 2.72496675 -7 3.625 C-7.886875 3.88539063 -8.77375 4.14578125 -9.6875 4.4140625 C-12 5 -12 5 -14 5 C-13.67 4.01 -13.34 3.02 -13 2 C-10.8203125 1.015625 -10.8203125 1.015625 -8.125 0.25 C-7.24070312 -0.01296875 -6.35640625 -0.2759375 -5.4453125 -0.546875 C-3 -1 -3 -1 0 0 Z " fill="#03B2B5" transform="translate(352,471)"/>
<path d="M0 0 C-1.13914261 3.41742782 -2.06390308 4.12880598 -4.875 6.25 C-5.57367188 6.79140625 -6.27234375 7.3328125 -6.9921875 7.890625 C-7.65476562 8.25671875 -8.31734375 8.6228125 -9 9 C-9.99 8.67 -10.98 8.34 -12 8 C-11.34 7.38125 -10.68 6.7625 -10 6.125 C-7.7715451 4.24362573 -7.7715451 4.24362573 -8 2 C-5.09399739 0.74335022 -3.20395416 0 0 0 Z " fill="#07A8AD" transform="translate(380,356)"/>
<path d="M0 0 C0.33 0 0.66 0 1 0 C1.07347656 1.21236328 1.07347656 1.21236328 1.1484375 2.44921875 C1.22320312 3.51785156 1.29796875 4.58648437 1.375 5.6875 C1.44460938 6.74324219 1.51421875 7.79898437 1.5859375 8.88671875 C1.98790291 11.90904357 2.86995476 14.19453986 4 17 C3.67 17.66 3.34 18.32 3 19 C2.01 18.67 1.02 18.34 0 18 C-1.03863773 11.76817361 -0.83288874 6.25307239 0 0 Z " fill="#09C3C7" transform="translate(300,452)"/>
<path d="M0 0 C1.30230734 3.00646952 0.96485975 4.09355667 -0.21484375 7.234375 C-0.78332031 8.39453125 -1.35179687 9.5546875 -1.9375 10.75 C-2.50339844 11.92046875 -3.06929687 13.0909375 -3.65234375 14.296875 C-4.09707031 15.18890625 -4.54179688 16.0809375 -5 17 C-6.14153078 14.15992644 -5.99776303 12.99306176 -5.0390625 10.01953125 C-4.33910156 8.43205078 -4.33910156 8.43205078 -3.625 6.8125 C-3.16351562 5.74644531 -2.70203125 4.68039062 -2.2265625 3.58203125 C-1 1 -1 1 0 0 Z " fill="#08ADAF" transform="translate(672,518)"/>
<path d="M0 0 C0.66 0.33 1.32 0.66 2 1 C0.40320196 2.3421492 -1.20270197 3.67347115 -2.8125 5 C-4.15248047 6.11375 -4.15248047 6.11375 -5.51953125 7.25 C-8 9 -8 9 -11 9 C-11 8.34 -11 7.68 -11 7 C-8.6640625 5.23828125 -8.6640625 5.23828125 -5.625 3.3125 C-4.62726562 2.66925781 -3.62953125 2.02601563 -2.6015625 1.36328125 C-1.74304688 0.91339844 -0.88453125 0.46351563 0 0 Z " fill="#F8A323" transform="translate(629,302)"/>
<path d="M0 0 C0.515625 0.391875 1.03125 0.78375 1.5625 1.1875 C-1.94937196 3.59564077 -4.16406908 4.55379408 -8.4375 4.1875 C-8.7675 3.5275 -9.0975 2.8675 -9.4375 2.1875 C-3.0375 -1.0125 -3.0375 -1.0125 0 0 Z " fill="#02A3A7" transform="translate(366.4375,464.8125)"/>
<path d="M0 0 C0.55171875 0.22300781 1.1034375 0.44601563 1.671875 0.67578125 C-0.28331884 1.84770172 -2.2423789 3.01317415 -4.203125 4.17578125 C-5.29367187 4.82546875 -6.38421875 5.47515625 -7.5078125 6.14453125 C-10.328125 7.67578125 -10.328125 7.67578125 -12.328125 7.67578125 C-12.328125 7.01578125 -12.328125 6.35578125 -12.328125 5.67578125 C-10.28125 4.1328125 -10.28125 4.1328125 -7.578125 2.48828125 C-6.69640625 1.93785156 -5.8146875 1.38742188 -4.90625 0.8203125 C-2.328125 -0.32421875 -2.328125 -0.32421875 0 0 Z " fill="#FDA622" transform="translate(750.328125,225.32421875)"/>
<path d="M0 0 C0.99 0.33 1.98 0.66 3 1 C3 1.33 3 1.66 3 2 C1.35 2 -0.3 2 -2 2 C-1.34 1.34 -0.68 0.68 0 0 Z M-5 3 C-4.34 3.33 -3.68 3.66 -3 4 C-3 4.99 -3 5.98 -3 7 C-5.64 7.33 -8.28 7.66 -11 8 C-9.06745228 5.9754262 -7.36841312 4.57894208 -5 3 Z " fill="#00636B" transform="translate(534,368)"/>
<path d="M0 0 C0.99 0.33 1.98 0.66 3 1 C-0.96 3.97 -4.92 6.94 -9 10 C-9 9.01 -9 8.02 -9 7 C-7.13671875 5.140625 -7.13671875 5.140625 -4.6875 3.25 C-3.88699219 2.61578125 -3.08648438 1.9815625 -2.26171875 1.328125 C-1.51535156 0.88984375 -0.76898437 0.4515625 0 0 Z " fill="#FA9F20" transform="translate(642,292)"/>
<path d="M0 0 C-1.62170379 1.00533667 -3.24747237 2.00411907 -4.875 3 C-6.23238281 3.8353125 -6.23238281 3.8353125 -7.6171875 4.6875 C-10 6 -10 6 -12 6 C-12 5.34 -12 4.68 -12 4 C-10.56988027 3.13353333 -9.13059381 2.28218171 -7.6875 1.4375 C-6.48673828 0.72400391 -6.48673828 0.72400391 -5.26171875 -0.00390625 C-3 -1 -3 -1 0 0 Z " fill="#FAA320" transform="translate(605,207)"/>
<path d="M0 0 C0.66 0.33 1.32 0.66 2 1 C1.04663979 2.31611677 0.08714226 3.62778961 -0.875 4.9375 C-1.40867187 5.66839844 -1.94234375 6.39929688 -2.4921875 7.15234375 C-4 9 -4 9 -6 10 C-4.6302836 6.00499382 -2.74277578 3.19990508 0 0 Z " fill="#05ADAF" transform="translate(647,566)"/>
<path d="M0 0 C0.33 0.99 0.66 1.98 1 3 C1.99 3.33 2.98 3.66 4 4 C4 5.98 4 7.96 4 10 C2 8.375 2 8.375 0 6 C-0.25 2.75 -0.25 2.75 0 0 Z " fill="#04ABAD" transform="translate(268,480)"/>
<path d="M0 0 C0.99 0.33 1.98 0.66 3 1 C0.03 3.97 -2.94 6.94 -6 10 C-6 6.41087588 -5.33563446 5.89142971 -3 3.3125 C-2.443125 2.68988281 -1.88625 2.06726563 -1.3125 1.42578125 C-0.879375 0.95527344 -0.44625 0.48476563 0 0 Z " fill="#05ADAF" transform="translate(629,588)"/>
<path d="M0 0 C0.99 0.33 1.98 0.66 3 1 C-1.75 5 -1.75 5 -4 5 C-4 5.66 -4 6.32 -4 7 C-4.66 6.67 -5.32 6.34 -6 6 C-4 4 -2 2 0 0 Z " fill="#03B0B5" transform="translate(600,616)"/>
<path d="M0 0 C0.33 0.99 0.66 1.98 1 3 C-0.4375 5.1875 -0.4375 5.1875 -2 7 C-2.66 6.67 -3.32 6.34 -4 6 C-3.6875 4.125 -3.6875 4.125 -3 2 C-2.01 1.34 -1.02 0.68 0 0 Z " fill="#1D504A" transform="translate(546,359)"/>
<path d="M0 0 C0.53625 0.226875 1.0725 0.45375 1.625 0.6875 C-3.79038462 3.76442308 -3.79038462 3.76442308 -6.75 3.375 C-7.554375 3.0346875 -7.554375 3.0346875 -8.375 2.6875 C-2.95961538 -0.38942308 -2.95961538 -0.38942308 0 0 Z " fill="#09AEB2" transform="translate(540.375,652.3125)"/>
<path d="M0 0 C0 2.31 0 4.62 0 7 C-0.99 6.67 -1.98 6.34 -3 6 C-3 4.35 -3 2.7 -3 1 C-1 0 -1 0 0 0 Z " fill="#084C52" transform="translate(242,325)"/>
<path d="M0 0 C2 1 2 1 2 1 Z " fill="#0C6B77" transform="translate(300,244)"/>
<path d="" fill="#FFFFFF" transform="translate(0,0)"/>
<path d="" fill="#15D2D6" transform="translate(0,0)"/>
<path d="" fill="#16D0D5" transform="translate(0,0)"/>
<path d="" fill="#048E98" transform="translate(0,0)"/>
<path d="" fill="#02A9AF" transform="translate(0,0)"/>
<path d="" fill="#0199A1" transform="translate(0,0)"/>
<path d="" fill="#00616F" transform="translate(0,0)"/>
<path d="" fill="#006772" transform="translate(0,0)"/>
<path d="" fill="#1CCBCD" transform="translate(0,0)"/>
<path d="" fill="#006670" transform="translate(0,0)"/>
<path d="" fill="#07C9D0" transform="translate(0,0)"/>
<path d="" fill="#037D85" transform="translate(0,0)"/>
<path d="" fill="#048590" transform="translate(0,0)"/>
<path d="" fill="#068D92" transform="translate(0,0)"/>
<path d="" fill="#048B97" transform="translate(0,0)"/>
<path d="" fill="#0BCFD3" transform="translate(0,0)"/>
<path d="" fill="#05BABE" transform="translate(0,0)"/>
<path d="" fill="#03808C" transform="translate(0,0)"/>
<path d="" fill="#01A0A4" transform="translate(0,0)"/>
<path d="" fill="#008993" transform="translate(0,0)"/>
<path d="" fill="#03858E" transform="translate(0,0)"/>
<path d="" fill="#027886" transform="translate(0,0)"/>
<path d="" fill="#007680" transform="translate(0,0)"/>
<path d="" fill="#04C2C6" transform="translate(0,0)"/>
<path d="" fill="#007582" transform="translate(0,0)"/>
<path d="" fill="#037480" transform="translate(0,0)"/>
<path d="" fill="#017480" transform="translate(0,0)"/>
<path d="" fill="#137077" transform="translate(0,0)"/>
<path d="" fill="#037681" transform="translate(0,0)"/>
<path d="" fill="#03767F" transform="translate(0,0)"/>
<path d="" fill="#057B82" transform="translate(0,0)"/>
<path d="" fill="#2A7671" transform="translate(0,0)"/>
<path d="" fill="#21787B" transform="translate(0,0)"/>
<path d="" fill="#058B94" transform="translate(0,0)"/>
<path d="" fill="#F9BE46" transform="translate(0,0)"/>
<path d="" fill="#FFB841" transform="translate(0,0)"/>
<path d="" fill="#FEBF44" transform="translate(0,0)"/>
<path d="" fill="#90894A" transform="translate(0,0)"/>
<path d="" fill="#C8A03F" transform="translate(0,0)"/>
<path d="" fill="#717E50" transform="translate(0,0)"/>
<path d="" fill="#367269" transform="translate(0,0)"/>
<path d="" fill="#1A6D75" transform="translate(0,0)"/>
<path d="" fill="#176C71" transform="translate(0,0)"/>
<path d="" fill="#156E75" transform="translate(0,0)"/>
<path d="" fill="#116B75" transform="translate(0,0)"/>
<path d="" fill="#0D6C76" transform="translate(0,0)"/>
<path d="" fill="#0E6A77" transform="translate(0,0)"/>
<path d="" fill="#0C6975" transform="translate(0,0)"/>
<path d="" fill="#0C6A76" transform="translate(0,0)"/>
<path d="" fill="#096A76" transform="translate(0,0)"/>
<path d="" fill="#0A6C78" transform="translate(0,0)"/>
<path d="" fill="#0A6C79" transform="translate(0,0)"/>
<path d="" fill="#0C6D78" transform="translate(0,0)"/>
<path d="" fill="#0B6C77" transform="translate(0,0)"/>
<path d="" fill="#106C7A" transform="translate(0,0)"/>
<path d="" fill="#106D78" transform="translate(0,0)"/>
<path d="" fill="#18707F" transform="translate(0,0)"/>
<path d="" fill="#1A707A" transform="translate(0,0)"/>
<path d="" fill="#1D717A" transform="translate(0,0)"/>
<path d="" fill="#20717C" transform="translate(0,0)"/>
<path d="" fill="#FFBF40" transform="translate(0,0)"/>
<path d="" fill="#D9AF51" transform="translate(0,0)"/>
</svg>
