<?xml version="1.0" encoding="UTF-8"?>
<svg version="1.1" xmlns="http://www.w3.org/2000/svg" width="611" height="536">
<path d="M0 0 C201.63 0 403.26 0 611 0 C611 176.88 611 353.76 611 536 C409.37 536 207.74 536 0 536 C0 359.12 0 182.24 0 0 Z " fill="#22201E" transform="translate(0,0)"/>
<path d="M0 0 C66.99 0 133.98 0 203 0 C203 20 203 20 199.1875 24.6875 C197.48210248 25.82803527 195.75055979 26.93007393 194 28 C192.02272947 29.58076608 190.0644389 31.1855406 188.125 32.8125 C187.22007812 33.54082031 186.31515625 34.26914063 185.3828125 35.01953125 C182.53345063 37.35240701 182.53345063 37.35240701 180 40 C179.60566976 42.98212014 179.60566976 42.98212014 181 46 C182.54745096 47.28059042 182.54745096 47.28059042 184.48046875 48.36328125 C185.56074341 49.00620117 185.56074341 49.00620117 186.6628418 49.66210938 C190.59149802 51.91104243 194.53295388 54.13191683 198.5 56.3125 C199.32242188 56.76689453 200.14484375 57.22128906 200.9921875 57.68945312 C202.99371195 58.79494628 204.99631795 59.89842384 207 61 C203.36978618 68.52643052 196.50260152 73.31970484 190.1015625 78.46875 C186.60452118 81.29720598 183.21307488 84.24445867 179.8125 87.1875 C166.10391472 99 166.10391472 99 163 99 C162.87625 98.42894531 162.7525 97.85789062 162.625 97.26953125 C158.42920085 80.77479583 147.1725163 68.06952985 133.03515625 59.23828125 C119.51948556 51.34892436 103.11983249 49.0117042 87.76171875 51.53125 C85.11659117 52.23559656 82.57484685 53.07321631 80 54 C79.12472656 54.25523437 78.24945313 54.51046875 77.34765625 54.7734375 C60.74659957 59.96573356 49.01177746 71.96741965 41 87 C33.30430023 104.46258788 32.09949436 123.52628131 38.97167969 141.59423828 C44.26945884 153.98842531 51.4472639 165.8517997 59 177 C61 180 61 180 61.0234375 182.37109375 C59.55469112 186.14386593 56.85000627 187.84266919 53.625 190.0625 C52.62883667 190.76814087 52.62883667 190.76814087 51.61254883 191.48803711 C35.18487649 202.98115428 17.92262723 213.03868638 0 222 C0 148.74 0 75.48 0 0 Z " fill="#FBFBF8" transform="translate(207,167)"/>
<path d="M0 0 C0 76.23 0 152.46 0 231 C-14.38194444 238.74412393 -14.38194444 238.74412393 -22.4375 241.6875 C-25.04451488 242.64797916 -27.61523021 243.64178597 -30.1875 244.6875 C-37.98252855 247.84142927 -45.78281993 250.69713926 -53.875 253 C-55.00748169 253.32967773 -55.00748169 253.32967773 -56.1628418 253.66601562 C-59.85518096 254.67274938 -62.34976703 255.12841869 -66 254 C-67.65464564 248.20807106 -68.29087255 243.07666049 -68.26742554 237.07037354 C-68.27195665 236.20629183 -68.27648776 235.34221012 -68.28115618 234.45194411 C-68.29375175 231.57500374 -68.29218295 228.69825385 -68.29052734 225.82128906 C-68.29651563 223.75093341 -68.30332187 221.68058 -68.31088257 219.61022949 C-68.32851957 213.99849423 -68.333237 208.38682 -68.33451414 202.7750597 C-68.33593765 199.26525301 -68.34021106 195.75546173 -68.34550858 192.24565887 C-68.36400157 179.99025999 -68.37218014 167.73490456 -68.37060547 155.47949219 C-68.36940442 144.07329734 -68.39050153 132.66729183 -68.4220928 121.26114488 C-68.44828394 111.45364949 -68.45897156 101.64621583 -68.45769465 91.83868575 C-68.45718584 85.98764748 -68.46282459 80.13677752 -68.48405075 74.28577423 C-68.50348074 68.77976115 -68.50352493 63.27407612 -68.48901749 57.76805115 C-68.48693418 55.75415821 -68.49160159 53.74024447 -68.5037384 51.72638702 C-68.58400234 37.47862861 -67.98086485 25.11122786 -58 14 C-57.21302734 13.07574219 -57.21302734 13.07574219 -56.41015625 12.1328125 C-41.62632178 -4.07722718 -20.774642 0 0 0 Z " fill="#FBFCF8" transform="translate(187,167)"/>
<path d="M0 0 C0 45.87 0 91.74 0 139 C-66.33 139 -132.66 139 -201 139 C-201 109 -201 109 -200 108 C-198.09029125 107.57185562 -196.17141435 107.18460489 -194.25 106.8125 C-178.98065693 103.60609361 -164.37015544 99.0436768 -150 93 C-147.77409628 92.13736603 -145.54499085 91.28294032 -143.3125 90.4375 C-136.42243469 87.80181696 -129.51673074 85.11976533 -122.8359375 81.984375 C-118.5624674 79.98402729 -118.5624674 79.98402729 -116.07421875 80.0546875 C-112.84031117 81.52852109 -111.6765135 84.03436502 -109.8125 87 C-109.11769531 88.093125 -108.42289062 89.18625 -107.70703125 90.3125 C-106.86205078 91.6428125 -106.86205078 91.6428125 -106 93 C-104.79340383 94.40405965 -104.79340383 94.40405965 -101.3125 94.5625 C-98.69884566 94.50679156 -97.4379149 94.36763227 -95.41796875 92.671875 C-93.78147104 90.52594412 -92.3898187 88.31403063 -91 86 C-90.09314453 84.58267578 -90.09314453 84.58267578 -89.16796875 83.13671875 C-86.19243188 78.42398481 -83.34775265 73.66472256 -80.6640625 68.78125 C-80.2719458 68.0696875 -79.8798291 67.358125 -79.47583008 66.625 C-78.71988104 65.24414366 -77.97184628 63.8589145 -77.2331543 62.46875 C-73.99157322 56.52896995 -70.09996551 52.43071189 -64.25 48.9375 C-51.02652702 40.71942216 -38.72403604 31.40800619 -26.76464844 21.46044922 C-24.28129502 19.4051891 -21.76254786 17.39439735 -19.25 15.375 C-14.6091433 11.59330038 -10.21084616 7.58462671 -5.88183594 3.45263672 C-2.21271358 0 -2.21271358 0 0 0 Z " fill="#FCFCF8" transform="translate(408,311)"/>
<path d="M0 0 C0.99 0.33 1.98 0.66 3 1 C3.07018378 23.87066287 3.12303404 46.7413079 3.15543652 69.61205673 C3.17088365 80.23213051 3.1919319 90.85213724 3.22631836 101.47216797 C3.25628675 110.73214745 3.27559065 119.99207836 3.28226548 129.252105 C3.28616515 134.15198485 3.29528483 139.05172579 3.31719017 143.95156097 C3.33767299 148.57097609 3.34381013 153.19019611 3.33932304 157.80965233 C3.340143 159.49780783 3.34603798 161.18597039 3.35761642 162.87408638 C3.46627549 179.54530395 1.25475964 193.13326929 -10.44140625 205.59765625 C-22.3988662 216.82488964 -34.54668347 217.30076964 -50.0625 217.125 C-51.61132234 217.11495008 -53.16015099 217.10582779 -54.70898438 217.09765625 C-58.47281428 217.07580207 -62.23633623 217.04138343 -66 217 C-66.28097865 196.12001183 -66.49225065 175.24033767 -66.62174606 154.35883904 C-66.68348611 144.66192097 -66.76757546 134.96618106 -66.90527344 125.27001953 C-67.02530868 116.81353049 -67.10239806 108.35789502 -67.12906194 99.90057766 C-67.14463706 95.42662944 -67.18093126 90.95512186 -67.26876068 86.4819603 C-67.87925914 54.15032391 -67.87925914 54.15032391 -60.23925781 46.01220703 C-58.23994013 44.16106856 -56.20781935 42.62194648 -54 41 C-52.27454053 39.38240525 -50.64299951 37.70271513 -49 36 C-48.484375 36.969375 -47.96875 37.93875 -47.4375 38.9375 C-45.24944806 42.29546275 -45.24944806 42.29546275 -41.5 43 C-37.9695204 43 -36.87873191 42.82375803 -34 41 C-32.17222641 39.05123064 -32.17222641 39.05123064 -30.4375 36.6875 C-27.23673879 32.55863702 -23.95323715 28.53465786 -20.5625 24.5625 C-16.31803681 19.57664906 -12.14955839 14.5352264 -8.015625 9.45703125 C-5.39321207 6.26033022 -2.70787294 3.12446878 0 0 Z " fill="#FAFBF7" transform="translate(494,233)"/>
<path d="M0 0 C3.403815 4.08457799 3.61072075 6.2924186 3.1875 11.625 C-0.99908753 24.97423337 -12.24036927 35.45233705 -22.25 44.6875 C-22.7980127 45.20054687 -23.34602539 45.71359375 -23.91064453 46.2421875 C-26.5054118 48.6413693 -29.03832142 50.78392182 -31.9375 52.82421875 C-34.84402536 54.94356016 -36.87049213 56.59032576 -38.8125 59.625 C-39.2992054 65.22519254 -38.17940279 70.21366573 -36.8125 75.625 C-36.49328097 76.96739833 -36.17426696 78.30984542 -35.85546875 79.65234375 C-35.20485493 82.3250824 -34.51681734 84.98549917 -33.8125 87.64453125 C-32.64527736 92.14338469 -31.83437024 96.69229138 -31.03198242 101.26904297 C-30.16482222 106.07186586 -29.05921408 110.78489248 -27.87011719 115.51782227 C-22.11967211 138.53399926 -22.11967211 138.53399926 -24.890625 145.23046875 C-26.37539503 147.56312061 -27.97650948 149.56053066 -29.8125 151.625 C-30.35132813 152.31851563 -30.89015625 153.01203125 -31.4453125 153.7265625 C-34.24922433 157.26315481 -34.24922433 157.26315481 -35.8125 158.625 C-36.8025 158.625 -37.7925 158.625 -38.8125 158.625 C-39.06306152 158.08834717 -39.31362305 157.55169434 -39.57177734 156.9987793 C-44.14682251 147.22727126 -48.78519962 137.51540839 -53.875 128 C-58.49913798 119.35230858 -62.70285865 110.53963248 -66.85351562 101.65722656 C-68.76393926 97.60876264 -70.77383127 93.61013636 -72.8125 89.625 C-76.82285866 91.28145249 -79.74875417 94.08371604 -82.9375 96.9375 C-91.99859665 104.89125191 -101.78510997 111.94007331 -111.8125 118.625 C-111.668125 119.6871875 -111.52375 120.749375 -111.375 121.84375 C-111.18723054 123.2707979 -110.99974581 124.69788329 -110.8125 126.125 C-110.71710938 126.82109375 -110.62171875 127.5171875 -110.5234375 128.234375 C-108.87936342 140.91723222 -108.87936342 140.91723222 -111.23828125 145.234375 C-111.86089844 145.94078125 -112.48351562 146.6471875 -113.125 147.375 C-113.73988281 148.09171875 -114.35476563 148.8084375 -114.98828125 149.546875 C-115.59027344 150.23265625 -116.19226563 150.9184375 -116.8125 151.625 C-117.8241538 152.94951288 -118.82807611 154.28012551 -119.8125 155.625 C-123.41437618 154.42437461 -123.55744951 153.77513917 -125.22265625 150.51171875 C-125.65513672 149.67576172 -126.08761719 148.83980469 -126.53320312 147.97851562 C-126.97599609 147.09873047 -127.41878906 146.21894531 -127.875 145.3125 C-128.32166016 144.44431641 -128.76832031 143.57613281 -129.22851562 142.68164062 C-131.11455902 139.00822575 -132.96581538 135.31836924 -134.8125 131.625 C-139.2675 132.615 -139.2675 132.615 -143.8125 133.625 C-144.8125 131.625 -144.8125 131.625 -144.63671875 129.3046875 C-144.4749429 125.98597154 -144.64138794 123.75360261 -145.8125 120.625 C-149.59156966 117.55225032 -153.62866971 115.5165501 -158.02832031 113.46972656 C-160.48379736 112.30717175 -162.82999831 110.97321982 -165.1875 109.625 C-166.3953205 108.95740467 -167.60342098 108.29031332 -168.8125 107.625 C-163.7614556 102.2678317 -158.23892102 97.08116098 -150.8125 95.625 C-146.00202539 95.70490822 -141.6143241 96.38839617 -137 97.75 C-133.45923668 98.72197425 -132.24586402 98.81251664 -128.8125 97.625 C-126.47791797 95.80244415 -124.47336461 93.70822627 -122.4375 91.5625 C-121.8595166 90.96832275 -121.2815332 90.37414551 -120.68603516 89.76196289 C-117.22737209 86.18294341 -113.85927562 82.53900434 -110.64453125 78.73828125 C-109.11125418 76.96961836 -107.54714737 75.2525611 -105.94921875 73.54296875 C-105.18955811 72.72807983 -105.18955811 72.72807983 -104.41455078 71.89672852 C-103.40245427 70.81417365 -102.38660045 69.73511715 -101.36669922 68.65991211 C-98.64671267 66.07590636 -98.64671267 66.07590636 -97.8125 62.625 C-99.7855688 61.30013489 -101.7504666 60.11160964 -103.8125 58.9375 C-110.97714591 54.75191315 -118.03180945 50.40672082 -125.0625 46 C-126.05507813 45.37907471 -127.04765625 44.75814941 -128.0703125 44.1184082 C-130.98697843 42.29138197 -133.89993488 40.45855465 -136.8125 38.625 C-137.78050537 38.01978516 -138.74851074 37.41457031 -139.74584961 36.79101562 C-144.95637176 33.51336453 -150.02098784 30.16173246 -154.875 26.375 C-155.42865234 25.95476562 -155.98230469 25.53453125 -156.55273438 25.1015625 C-159.17631754 23.07410334 -160.95380529 21.41304207 -162.8125 18.625 C-149.11881177 9.0301028 -149.11881177 9.0301028 -141.12475586 10.1862793 C-136.79609138 11.00758751 -132.59679639 12.25202847 -128.375 13.5 C-127.03985352 13.88478516 -127.03985352 13.88478516 -125.67773438 14.27734375 C-121.41543915 15.51649167 -117.18555375 16.81665349 -112.98046875 18.23828125 C-109.86413072 19.29161382 -106.7702158 20.19609399 -103.5625 20.9375 C-97.70865643 22.3614079 -91.9177111 23.97319597 -86.125 25.625 C-85.24618164 25.87419189 -84.36736328 26.12338379 -83.46191406 26.38012695 C-78.52721184 27.79461178 -73.700474 29.32965711 -68.90698242 31.171875 C-66.17431046 31.76306735 -64.47135372 31.48237453 -61.8125 30.625 C-59.73889488 29.08221148 -59.73889488 29.08221148 -57.88671875 27.0546875 C-57.17193359 26.3225 -56.45714844 25.5903125 -55.72070312 24.8359375 C-54.98787109 24.06507812 -54.25503906 23.29421875 -53.5 22.5 C-42.55560139 11.15460019 -17.72590662 -14.54983619 0 0 Z " fill="#FAFBF7" transform="translate(575.8125,101.375)"/>
<path d="M0 0 C2.17513799 -0.00524332 4.3502737 -0.01152239 6.52540588 -0.01878357 C11.07018786 -0.02915548 15.61465611 -0.02467239 20.15942383 -0.01000977 C25.95724063 0.00717302 31.75406586 -0.01632883 37.55177212 -0.05149937 C42.03964186 -0.07355511 46.52727731 -0.07201209 51.0151844 -0.06373405 C53.15162303 -0.06291902 55.28807963 -0.06969586 57.42446709 -0.08450508 C73.21511898 -0.17720245 85.8143596 0.92548378 97.69140625 12.56640625 C109.36288743 25.64786502 108.07642831 42.20296861 107.69140625 58.56640625 C100.10140625 58.56640625 92.51140625 58.56640625 84.69140625 58.56640625 C84.37890625 47.44140625 84.37890625 47.44140625 84.3034668 43.96826172 C84.10629174 38.49629408 83.84142257 34.24577831 80.69140625 29.56640625 C75.40299855 24.79394077 71.96407698 24.41128624 65.02246094 24.3894043 C64.12472458 24.3828331 63.22698822 24.3762619 62.30204773 24.36949158 C59.32245811 24.34973427 56.34291896 24.33809008 53.36328125 24.328125 C52.346576 24.32404947 51.32987076 24.31997395 50.28235626 24.31577492 C44.90031639 24.29490301 39.51830209 24.28060659 34.13623047 24.27124023 C28.57652397 24.26017826 23.01721799 24.22578383 17.45765305 24.18606853 C13.18366756 24.15992249 8.90977773 24.15155013 4.6357193 24.14795876 C2.58641101 24.14308698 0.53710715 24.13145623 -1.51212311 24.11292076 C-4.38242801 24.08857419 -7.25169377 24.08948633 -10.12207031 24.09643555 C-10.96697525 24.08362549 -11.81188019 24.07081543 -12.68238831 24.05761719 C-19.0780412 24.11398438 -22.71902112 25.97683362 -27.30859375 30.56640625 C-28.39426267 33.74589652 -28.50062444 36.86665902 -28.625 40.20703125 C-28.66689453 41.27695313 -28.70878906 42.346875 -28.75195312 43.44921875 C-28.79126953 44.56039062 -28.83058594 45.6715625 -28.87109375 46.81640625 C-28.91427734 47.94304687 -28.95746094 49.0696875 -29.00195312 50.23046875 C-29.10791308 53.00897424 -29.20874635 55.78767439 -29.30859375 58.56640625 C-36.89859375 58.56640625 -44.48859375 58.56640625 -52.30859375 58.56640625 C-53.43570678 25.25395457 -53.43570678 25.25395457 -42.80859375 12.94140625 C-41.3525317 11.43920139 -39.85252279 9.97814958 -38.30859375 8.56640625 C-37.61765625 7.89867188 -36.92671875 7.2309375 -36.21484375 6.54296875 C-25.14576271 -0.98519658 -12.83828837 -0.03773291 0 0 Z " fill="#F9FAF6" transform="translate(280.30859375,94.43359375)"/>
<path d="M0 0 C5.81165526 4.50738939 9.88243717 9.52974868 11.6875 16.75 C12.67848232 27.05621612 11.72494664 33.39954669 5.3125 41.6875 C-0.24321954 47.63908161 -5.41407861 50.19830066 -13.55297852 50.64233398 C-23.1438179 50.82399727 -29.37211858 49.1062729 -36.6015625 42.546875 C-42.90749464 35.83529811 -43.56887696 28.18620132 -43.34375 19.40625 C-42.60136526 12.04989215 -39.54177502 6.49912021 -34.109375 1.5078125 C-23.68222445 -5.94566919 -11.07684064 -5.91867007 0 0 Z " fill="#FAFAF6" transform="translate(323,260)"/>
<path d="M0 0 C0 8.58 0 17.16 0 26 C-5.19412835 26.13885294 -10.38165581 26.25792158 -15.57617188 26.32958984 C-17.33746316 26.3595022 -19.0986089 26.40024866 -20.859375 26.45263672 C-35.13426332 26.86628405 -45.486188 24.95318703 -56.30859375 14.80859375 C-63 7.65357968 -63 7.65357968 -63 5 C-61.84721558 4.970271 -61.84721558 4.970271 -60.67114258 4.93994141 C-41.46813635 4.43464617 -41.46813635 4.43464617 -22.3125 3.0625 C-21.50852783 2.98789551 -20.70455566 2.91329102 -19.8762207 2.83642578 C-14.89232751 2.32469376 -10.04854276 1.46501403 -5.15307617 0.40014648 C-3 0 -3 0 0 0 Z " fill="#F7F7F4" transform="translate(187,424)"/>
<path d="M0 0 C0.67160156 0.26296875 1.34320313 0.5259375 2.03515625 0.796875 C1.53555234 5.55203361 -0.6967348 8.73834836 -3.46484375 12.484375 C-3.91190674 13.09941895 -4.35896973 13.71446289 -4.81958008 14.34814453 C-8.85970263 19.82195095 -13.3203294 24.82994596 -17.96484375 29.796875 C-19.13762169 31.12483614 -20.30461078 32.45793948 -21.46484375 33.796875 C-22.63030906 35.13125857 -23.79715208 36.46443924 -24.96484375 37.796875 C-25.58157959 38.50118652 -26.19831543 39.20549805 -26.83374023 39.93115234 C-33.13696424 47.0341114 -39.78914139 53.73717447 -46.52734375 60.421875 C-47.64281458 61.53231461 -48.75805036 62.64299038 -49.87304688 63.75390625 C-52.56762006 66.43761659 -55.26532048 69.11814436 -57.96484375 71.796875 C-58.29484375 71.136875 -58.62484375 70.476875 -58.96484375 69.796875 C-58.26428698 68.11469977 -57.55605728 66.4351395 -56.80175781 64.77636719 C-55.45159353 61.58292144 -54.6543531 58.28481439 -53.83984375 54.921875 C-53.66300049 54.22006104 -53.48615723 53.51824707 -53.30395508 52.79516602 C-52.39761495 49.07826902 -51.7903888 45.5536213 -51.65234375 41.734375 C-50.68978093 36.22151521 -48.18360147 34.24381737 -43.96484375 30.796875 C-43.16691406 30.12140625 -42.36898438 29.4459375 -41.546875 28.75 C-38.71670045 26.39221796 -35.84624906 24.0917347 -32.96484375 21.796875 C-31.87877313 20.91943558 -30.79283926 20.04182687 -29.70703125 19.1640625 C-23.4099652 14.10611992 -16.98046506 9.23375808 -10.40234375 4.546875 C-9.73565674 4.05654785 -9.06896973 3.5662207 -8.38208008 3.06103516 C-3.64369272 -0.24963376 -3.64369272 -0.24963376 0 0 Z " fill="#F7F8F4" transform="translate(424.96484375,247.203125)"/>
<path d="M0 0 C15.18 0 30.36 0 46 0 C46 8.39780994 45.85257477 11.94716763 40.421875 17.66015625 C34.50180412 23.08688789 28.56338916 25.62142031 20.4921875 25.3515625 C12.53031661 24.22841457 7.72930357 19.26000148 2.75 13.3125 C1 10 1 10 0 0 Z " fill="#F8F8F5" transform="translate(165,466)"/>
<path d="M0 0 C15.18 0 30.36 0 46 0 C46 8.45022767 45.15589304 11.71002051 40 18 C33.96374514 23.16052876 28.42061109 25.44820939 20.5078125 25.34375 C14.62611068 24.53753542 9.02717876 21.55401051 5.0625 17.125 C1.01012436 10.98503691 0 7.53007786 0 0 Z " fill="#F9F9F6" transform="translate(403,466)"/>
</svg>
