<?xml version="1.0" encoding="UTF-8"?>
<svg version="1.1" xmlns="http://www.w3.org/2000/svg" width="1024" height="1024">
<path d="M0 0 C337.92 0 675.84 0 1024 0 C1024 337.92 1024 675.84 1024 1024 C686.08 1024 348.16 1024 0 1024 C0 686.08 0 348.16 0 0 Z " fill="#FAFAFA" transform="translate(0,0)"/>
<path d="M0 0 C5.22154848 7.83232272 8.15559064 19.82780158 6.640625 29.23046875 C6 31 6 31 3.9375 32.25 C3.298125 32.4975 2.65875 32.745 2 33 C2.32226562 32.45214844 2.64453125 31.90429688 2.9765625 31.33984375 C6.41688063 23.4743836 3.57653594 14.46685182 0.875 6.8125 C0 4 0 4 0 0 Z " fill="#D4D3D4" transform="translate(837,460)"/>
<path d="M0 0 C0.33 0.99 0.66 1.98 1 3 C0.57589844 3.4125 0.15179687 3.825 -0.28515625 4.25 C-4.75238723 8.64850435 -8.9278528 13.23472137 -13 18 C-13.66 17.67 -14.32 17.34 -15 17 C-14.33613281 16.27554687 -13.67226563 15.55109375 -12.98828125 14.8046875 C-8.55548526 9.95126123 -4.14115567 5.10742532 0 0 Z " fill="#E0DEDE" transform="translate(836,342)"/>
<path d="M0 0 C0.66 0.99 1.32 1.98 2 3 C-0.70923672 8.31427203 -3.22864787 11.42148591 -8 15 C-8.66 14.67 -9.32 14.34 -10 14 C-9.44570313 13.40832031 -8.89140625 12.81664062 -8.3203125 12.20703125 C-7.23363281 11.02173828 -7.23363281 11.02173828 -6.125 9.8125 C-5.40570312 9.03519531 -4.68640625 8.25789062 -3.9453125 7.45703125 C-2.0182908 5.02310224 -0.98699889 2.92463354 0 0 Z " fill="#DFDFDE" transform="translate(714,781)"/>
<path d="M0 0 C0.66 0.33 1.32 0.66 2 1 C0.25904321 2.82200133 -1.49177132 4.63229575 -3.25 6.4375 C-3.98669922 7.2119043 -3.98669922 7.2119043 -4.73828125 8.00195312 C-9.30164195 12.65658104 -9.30164195 12.65658104 -13 13 C-13.33 12.34 -13.66 11.68 -14 11 C-12.4840625 10.2265625 -12.4840625 10.2265625 -10.9375 9.4375 C-6.58965984 6.97963934 -3.36751859 3.6438803 0 0 Z " fill="#DAD9D9" transform="translate(720,455)"/>
<path d="M0 0 C0.56203125 0.22558594 1.1240625 0.45117188 1.703125 0.68359375 C0.10689844 1.71679856 -1.49916606 2.73481804 -3.109375 3.74609375 C-4.44935547 4.59880859 -4.44935547 4.59880859 -5.81640625 5.46875 C-8.296875 6.68359375 -8.296875 6.68359375 -11.296875 5.68359375 C-9.89135201 4.64747104 -8.47195806 3.6301445 -7.046875 2.62109375 C-6.25796875 2.05261719 -5.4690625 1.48414063 -4.65625 0.8984375 C-2.296875 -0.31640625 -2.296875 -0.31640625 0 0 Z " fill="#E4E4E4" transform="translate(460.296875,611.31640625)"/>
<path d="M0 0 C0.66 0.33 1.32 0.66 2 1 C-0.15619302 3.36572901 -2.17726207 4.7551861 -5.0625 6.125 C-5.75472656 6.45757813 -6.44695313 6.79015625 -7.16015625 7.1328125 C-7.76730469 7.41898438 -8.37445312 7.70515625 -9 8 C-9.99 8.495 -9.99 8.495 -11 9 C-11.99 8.34 -12.98 7.68 -14 7 C-11.71296692 5.80274117 -9.42115138 4.61702982 -7.125 3.4375 C-6.14853516 2.92413086 -6.14853516 2.92413086 -5.15234375 2.40039062 C-3.46470143 1.53917109 -1.73420407 0.76313297 0 0 Z " fill="#DAD9D9" transform="translate(531,521)"/>
<path d="M0 0 C0.77734375 1.703125 0.77734375 1.703125 1 4 C-0.87109375 6.359375 -0.87109375 6.359375 -3.4375 8.75 C-4.70400391 9.94882812 -4.70400391 9.94882812 -5.99609375 11.171875 C-6.65738281 11.77515625 -7.31867187 12.3784375 -8 13 C-8.66 12.67 -9.32 12.34 -10 12 C-9.44570313 11.38511719 -8.89140625 10.77023437 -8.3203125 10.13671875 C-7.59585938 9.32847656 -6.87140625 8.52023437 -6.125 7.6875 C-5.40570312 6.88699219 -4.68640625 6.08648438 -3.9453125 5.26171875 C-1.88394498 2.95810917 -1.88394498 2.95810917 0 0 Z " fill="#DAD9D9" transform="translate(544,507)"/>
<path d="M0 0 C0.64453125 1.765625 0.64453125 1.765625 1 4 C0.07421875 5.921875 0.07421875 5.921875 -1.3125 7.75 C-1.98732422 8.67039062 -1.98732422 8.67039062 -2.67578125 9.609375 C-3.11277344 10.06828125 -3.54976563 10.5271875 -4 11 C-4.66 11 -5.32 11 -6 11 C-4.54955729 6.89041233 -2.48889248 3.56741255 0 0 Z " fill="#E2E2E2" transform="translate(424,428)"/>
<path d="M0 0 C0.66 0 1.32 0 2 0 C2.08131463 1.43655854 2.13933559 2.8744483 2.1875 4.3125 C2.22230469 5.11300781 2.25710938 5.91351563 2.29296875 6.73828125 C1.93801608 9.47851584 1.10633718 10.29171079 -1 12 C-1.66 11.67 -2.32 11.34 -3 11 C-2.34 10.01 -1.68 9.02 -1 8 C-0.54860541 5.9507906 -0.54860541 5.9507906 -0.375 3.8125 C-0.25125 2.554375 -0.1275 1.29625 0 0 Z " fill="#E4E2E3" transform="translate(842,481)"/>
<path d="M0 0 C0.33 0.99 0.66 1.98 1 3 C-1.10889262 6.82724957 -2.79609368 9.49860488 -7 11 C-5.22054913 6.95579349 -2.60470327 3.53921513 0 0 Z " fill="#E0DFDF" transform="translate(675,398)"/>
<path d="M0 0 C0 3 0 3 -1.53125 4.82421875 C-2.1809375 5.43910156 -2.830625 6.05398438 -3.5 6.6875 C-4.1496875 7.31011719 -4.799375 7.93273437 -5.46875 8.57421875 C-5.9740625 9.04472656 -6.479375 9.51523437 -7 10 C-7.66 9.34 -8.32 8.68 -9 8 C-6.03 5.36 -3.06 2.72 0 0 Z " fill="#DFDEDE" transform="translate(766,722)"/>
<path d="M0 0 C0 3 0 3 -2.5 5.6875 C-3.325 6.450625 -4.15 7.21375 -5 8 C-5 5 -5 5 -2.5 2.3125 C-1.675 1.549375 -0.85 0.78625 0 0 Z " fill="#E5E4E4" transform="translate(850,325)"/>
</svg>
