<?xml version="1.0" encoding="UTF-8"?>
<svg version="1.1" xmlns="http://www.w3.org/2000/svg" width="1024" height="1024">
<path d="M0 0 C1.05650841 -0.00445784 2.11301683 -0.00891569 3.20154065 -0.01350862 C4.3663025 -0.01332426 5.53106435 -0.01313989 6.73112202 -0.01294994 C7.96535713 -0.01662663 9.19959224 -0.02030332 10.47122842 -0.02409142 C13.90369572 -0.03322133 17.33611519 -0.03782862 20.76859009 -0.04048073 C24.468119 -0.04438303 28.16763405 -0.05396143 31.86715412 -0.0626936 C40.80483702 -0.08246024 49.74252105 -0.09252452 58.68022034 -0.10142139 C62.88861809 -0.105804 67.09701458 -0.11117089 71.30541134 -0.11641026 C85.29424465 -0.13342282 99.28307718 -0.14791711 113.27191925 -0.155159 C116.90246996 -0.15706891 120.53302067 -0.15898924 124.16357136 -0.16094494 C125.51711329 -0.16167055 125.51711329 -0.16167055 126.8979995 -0.16241082 C141.51649302 -0.17071157 156.13490471 -0.19604911 170.7533625 -0.22852562 C185.76006243 -0.26159297 200.76672079 -0.27960747 215.77345735 -0.28280324 C224.19989997 -0.28496865 232.62622329 -0.29372179 241.05263042 -0.31926441 C248.22883169 -0.34096701 255.40488467 -0.34902403 262.58111503 -0.33929763 C266.2418996 -0.33475159 269.9023782 -0.33665641 273.56312084 -0.35605907 C277.53428737 -0.37692505 281.50503203 -0.36670959 285.4762392 -0.35352612 C286.62984745 -0.36449536 287.78345569 -0.37546461 288.97202176 -0.38676625 C295.75587829 -0.33233991 300.14843061 0.49352982 305.92113972 4.13422108 C312.36602539 10.91831125 312.29389997 16.746583 312.29174519 25.81390858 C312.29609732 27.86424645 312.33237808 29.9123917 312.37035847 31.96234608 C312.39436234 40.09165664 312.21292974 46.34486596 306.5712862 52.64056873 C295.9293395 61.81460428 274.92898767 58.36727076 262.00317097 58.29437733 C259.49305674 58.2880987 256.98293972 58.28286135 254.47282124 58.278615 C248.57175488 58.26673039 242.67076761 58.24663055 236.76974267 58.2217173 C225.54694776 58.17443859 214.32412761 58.14194726 203.10126019 58.11722088 C199.4151121 58.10697996 195.72903889 58.08994189 192.04292011 58.07222462 C189.80026027 58.06540142 187.55759976 58.05879259 185.31493855 58.05243397 C184.28591923 58.0456966 183.25689991 58.03895924 182.19669819 58.03201771 C181.26193653 58.03050205 180.32717487 58.0289864 179.3640871 58.02742481 C178.54951447 58.02390538 177.73494184 58.02038595 176.8956852 58.01675987 C174.84398761 58.00891761 174.84398761 58.00891761 172.92113972 59.13422108 C172.92113972 85.53422108 172.92113972 111.93422108 172.92113972 139.13422108 C181.10668659 139.09941639 189.29223347 139.0646117 197.72582722 139.02875233 C203.58224914 139.01146685 209.4386518 138.99608947 215.29508305 138.98345947 C222.87459446 138.96686023 230.4540064 138.94581384 238.0334444 138.90790272 C244.67943932 138.87467653 251.32535502 138.85735177 257.9714365 138.84958935 C260.50307756 138.84405963 263.03471295 138.83326149 265.56630802 138.81703091 C269.12074845 138.79515536 272.67474794 138.79225845 276.22924519 138.79364491 C277.26862736 138.78285908 278.30800953 138.77207325 279.37888813 138.76096058 C289.38058587 138.80299034 297.35652373 140.64919855 304.73363972 147.57172108 C305.32056599 148.09741688 305.90749226 148.62311268 306.51220417 149.16473866 C308.33235246 150.80353026 310.12896079 152.4649288 311.92113972 154.13422108 C313.05381054 155.18124936 314.1866199 156.22812781 315.31957722 157.27484608 C316.9616775 158.79437625 318.60203712 160.31555212 320.23681355 161.84296131 C324.37173384 165.68932553 328.69313298 169.24677042 333.09692097 172.78265858 C337.52308647 176.46806886 341.70102381 180.41143565 345.90942097 184.34125233 C348.32767148 186.59652558 350.78968033 188.78932373 353.29613972 190.94672108 C356.45902331 193.67678902 359.39204071 196.57721842 362.31176472 199.56390858 C364.07264641 201.3375547 364.07264641 201.3375547 366.85863972 203.44672108 C367.53926472 204.00359608 368.21988972 204.56047108 368.92113972 205.13422108 C368.92113972 205.79422108 368.92113972 206.45422108 368.92113972 207.13422108 C369.58113972 207.13422108 370.24113972 207.13422108 370.92113972 207.13422108 C370.92113972 207.79422108 370.92113972 208.45422108 370.92113972 209.13422108 C371.58113972 209.13422108 372.24113972 209.13422108 372.92113972 209.13422108 C375.4587683 212.94066396 375.44056531 214.60779805 374.92113972 219.13422108 C373.49229102 221.98196134 371.79331853 224.5599752 369.92113972 227.13422108 C371.48080563 227.50066686 373.04406623 227.85182969 374.60863972 228.19672108 C375.4787569 228.39394764 376.34887409 228.5911742 377.24535847 228.79437733 C381.59731523 229.3471076 383.96257209 228.82850404 387.54223347 226.23578358 C388.47164753 225.41851795 389.40106159 224.60125233 390.35863972 223.75922108 C391.41957553 222.84334352 392.48214119 221.92935131 393.54613972 221.01703358 C394.09785847 220.54169178 394.64957722 220.06634998 395.21801472 219.57660389 C398.03923217 217.18730448 400.9455764 214.90993776 403.85863972 212.63422108 C404.43557575 212.18135731 405.01251179 211.72849354 405.60693073 211.26190662 C408.61589536 208.90737402 411.64428562 206.58214188 414.69848347 204.28656483 C415.60449299 203.60207264 415.60449299 203.60207264 416.52880573 202.90375233 C417.68519263 202.032189 418.84570289 201.16606317 420.01073933 200.30609608 C421.35067719 199.29542408 422.64159754 198.22034408 423.92113972 197.13422108 C423.92113972 196.47422108 423.92113972 195.81422108 423.92113972 195.13422108 C421.64206241 193.42261255 419.35762156 191.830178 416.98363972 190.25922108 C415.50114428 189.26029562 414.01939671 188.26025951 412.53832722 187.25922108 C411.77101276 186.74230701 411.00369831 186.22539295 410.2131319 185.69281483 C406.64273267 183.26488249 403.12655906 180.76230816 399.60863972 178.25922108 C393.57498232 173.97533825 387.48337906 169.78660768 381.35863972 165.63422108 C374.75311428 161.14883151 368.32536248 156.48974044 361.9750948 151.65155506 C356.16897437 147.25572912 350.18080694 143.15850843 344.15234089 139.07538319 C338.4479453 135.20298846 332.81887157 131.23904866 327.23363972 127.19672108 C326.51579304 126.67730946 325.79794636 126.15789783 325.05834675 125.62274647 C323.68804123 124.62716643 322.32261505 123.62482882 320.96264362 122.61517811 C319.54263765 121.58507093 318.09412256 120.59360765 316.62572956 119.6337328 C311.11353452 115.90770677 311.11353452 115.90770677 310.15160847 112.04047108 C311.85585192 105.60414049 318.37416562 101.75725837 323.75317097 98.32953358 C326.43560958 96.82136529 329.13892913 95.44792653 331.92113972 94.13422108 C332.64430378 93.77070545 333.36746784 93.40718983 334.11254597 93.03265858 C341.35835818 89.7713341 348.10387881 93.09611565 355.17895222 95.57562733 C356.20437626 95.9341428 356.20437626 95.9341428 357.25051594 96.29990101 C359.5172852 97.09447684 361.78183198 97.89515944 364.04613972 98.69672108 C364.84435139 98.97810932 365.64256306 99.25949757 366.46496296 99.54941273 C384.96162414 106.07373333 403.34682139 112.89740457 421.73284626 119.72577381 C432.58443601 123.75476934 443.44483071 127.75974754 454.30871296 131.75546741 C457.46686805 132.91755203 460.62418776 134.08188578 463.78149128 135.24628162 C467.55048045 136.63567473 471.32397979 138.01136889 475.10229206 139.37518787 C478.00977623 140.42544063 480.89324275 141.51093448 483.75951862 142.66864491 C489.48963716 145.04353475 489.48963716 145.04353475 495.30395222 143.79437733 C496.20887409 142.93715076 497.11379597 142.0799242 498.04613972 141.19672108 C499.13624113 140.23035003 500.23021257 139.26833232 501.32738972 138.31000233 C502.18977253 137.53003895 502.18977253 137.53003895 503.06957722 136.73431873 C506.38051238 133.87304908 509.97494131 131.40685649 513.54613972 128.88422108 C515.09155375 127.77643916 516.63580778 126.66703737 518.17895222 125.55609608 C518.9591573 124.99470936 519.73936237 124.43332264 520.54321003 123.8549242 C524.52267538 120.97532751 528.47117418 118.05407771 532.42113972 115.13422108 C534.80743754 113.37447541 537.19440071 111.61563801 539.58178425 109.85736561 C541.11723398 108.72636955 542.65208495 107.59456007 544.18627644 106.4618578 C596.49972225 67.91088995 596.49972225 67.91088995 621.92113972 69.13422108 C628.35893719 70.32563165 633.6917339 73.09322657 637.92113972 78.13422108 C640.95440898 82.99791145 641.43030056 87.83669138 640.60863972 93.44281483 C636.98232453 107.63901463 626.10509254 118.95038115 616.42113972 129.44672108 C615.80947956 130.11163563 615.1978194 130.77655018 614.56762409 131.46161366 C613.99334675 132.07158192 613.4190694 132.68155018 612.82738972 133.31000233 C612.31498737 133.8556786 611.80258503 134.40135487 611.27465534 134.96356678 C609.92113972 136.13422108 609.92113972 136.13422108 607.92113972 136.13422108 C607.92113972 136.79422108 607.92113972 137.45422108 607.92113972 138.13422108 C606.66332722 139.43890858 606.66332722 139.43890858 604.79613972 141.00922108 C604.06395222 141.6305492 603.33176472 142.25187733 602.57738972 142.89203358 C601.70082722 143.63195545 600.82426472 144.37187733 599.92113972 145.13422108 C598.86778304 146.0468159 597.81578004 146.96097474 596.76488972 147.87640858 C588.68361717 154.89865976 580.4100986 161.61261871 571.92113972 168.13422108 C571.05311726 168.80163319 570.1850948 169.4690453 569.29076862 170.15668201 C566.42014053 172.36092308 563.54642584 174.56106009 560.67113972 176.75922108 C559.27593098 177.82704823 559.27593098 177.82704823 557.8525362 178.91644764 C556.98314411 179.5787035 556.11375202 180.24095936 555.21801472 180.92328358 C554.43780964 181.51834705 553.65760456 182.11341053 552.8537569 182.72650623 C550.92113972 184.13422108 550.92113972 184.13422108 548.92113972 185.13422108 C549.61754831 192.32144425 551.26174355 199.17300572 552.98363972 206.17718983 C553.29096531 207.44258091 553.5982909 208.70797199 553.91492939 210.01170826 C554.74130208 213.41395866 555.5730499 216.81487309 556.4059 220.21554279 C557.26887201 223.74316857 558.12688728 227.27199936 558.9853487 230.80072498 C560.34278701 236.3781616 561.70289554 241.95493956 563.06518269 247.53119373 C564.6187027 253.89079321 566.16514695 260.25208158 567.70629597 266.61468983 C568.10088735 268.24238052 568.49549907 269.87006629 568.89013386 271.49774647 C569.43292188 273.73665376 569.97550676 275.97560887 570.51730061 278.21475697 C572.22799401 285.28174136 573.96209684 292.34010693 575.79613972 299.37640858 C576.08352009 300.48774158 576.37090046 301.59907459 576.66698933 302.74408436 C577.1839899 304.73202498 577.70975647 306.71772399 578.24755573 308.70013905 C579.93524495 315.19181283 581.43133975 321.83923919 578.54613972 328.13422108 C571.99251142 335.62408198 564.66921963 343.42389688 554.35863972 344.50922108 C548.84496287 342.30375034 546.96810734 338.07695238 543.92113972 333.13422108 C542.64352143 331.15348756 541.35322604 329.18129235 540.0634737 327.20843983 C538.43249435 324.71014162 536.81164789 322.20542637 535.19067097 319.70062733 C529.57744422 311.04870321 523.90245038 302.43728043 518.23363972 293.82172108 C517.43437061 292.60627613 517.43437061 292.60627613 516.61895466 291.36627674 C510.86011905 282.60926961 505.08296603 273.86541225 499.26012897 265.15082264 C496.20347132 260.57101694 493.20309979 255.95831757 490.23363972 251.32172108 C488.46766049 248.58938652 486.69575659 245.86095178 484.92113972 243.13422108 C484.2134444 242.04625233 483.50574909 240.95828358 482.77660847 239.83734608 C482.16430378 238.92468983 481.55199909 238.01203358 480.92113972 237.07172108 C480.14770222 235.90963123 480.14770222 235.90963123 479.35863972 234.72406483 C478.88426472 234.19941639 478.40988972 233.67476795 477.92113972 233.13422108 C474.5624991 233.13422108 473.63579949 233.69645359 470.83520222 235.41547108 C470.00045368 235.92030018 469.16570515 236.42512928 468.3056612 236.94525623 C467.39501911 237.50261463 466.48437702 238.05997303 465.54613972 238.63422108 C455.02498305 244.97282706 444.33166456 250.94367979 433.55834675 256.8392992 C432.95504032 257.16969196 432.35173389 257.50008472 431.73014545 257.84048939 C430.08819332 258.73893628 428.44501679 259.63514453 426.80175495 260.53119373 C425.85115192 261.06019276 424.9005489 261.58919178 423.92113972 262.13422108 C422.51239582 262.88493885 422.51239582 262.88493885 421.07519245 263.65082264 C420.36435505 264.14034412 419.65351765 264.62986561 418.92113972 265.13422108 C418.47793345 267.73392351 418.40745302 269.66625398 418.54613972 272.25922108 C418.5632198 273.01187244 418.58029987 273.76452381 418.59789753 274.5399828 C418.72430298 279.43111906 418.97614435 284.31710306 419.20504475 289.20431995 C419.33861273 292.14813194 419.45664581 295.09250064 419.57415485 298.03699207 C419.66979663 300.22844665 419.7920647 302.41734104 419.91576862 304.60736561 C420.572993 318.28502439 420.572993 318.28502439 415.92113972 324.13422108 C413.30004597 326.99750233 413.30004597 326.99750233 410.48363972 329.44672108 C409.55680378 330.26785389 408.62996784 331.0889867 407.67504597 331.93500233 C401.06991258 337.20974005 401.06991258 337.20974005 397.44775105 336.97162342 C394.21648442 335.90067507 393.64779094 334.83371826 392.03051472 331.88031483 C391.52584675 330.97265369 391.02117878 330.06499256 390.50121784 329.12982655 C389.97979206 328.14127674 389.45836628 327.15272694 388.92113972 326.13422108 C388.38424519 325.12891346 387.84735065 324.12360584 387.29418659 323.08783436 C385.56271445 319.8025938 383.86372731 316.5021507 382.17113972 313.19672108 C381.55784592 312.00685986 380.94407044 310.81724681 380.32983112 309.62787342 C378.00512143 305.12565432 375.68605151 300.62053459 373.36742878 296.11517811 C372.01563865 293.4937331 370.6568878 290.87602423 369.29613972 288.25922108 C368.90716511 287.50004383 368.5181905 286.74086658 368.11742878 285.95868397 C364.70139121 279.40827419 361.34228002 275.07446626 354.92113972 271.13422108 C354.08196003 272.53607655 354.08196003 272.53607655 353.22582722 273.96625233 C343.97630792 289.19994521 333.44829574 303.54431082 321.92113972 317.13422108 C320.97049531 318.25911666 320.0199822 319.38412321 319.06957722 320.50922108 C317.62392191 322.21955381 316.177125 323.92880797 314.7250948 325.6337328 C312.74439531 327.96117343 310.79325128 330.29762028 308.90942097 332.70453358 C300.16573415 343.38935322 288.71437312 352.62590617 277.92113972 361.13422108 C276.89246784 361.94633045 275.86379597 362.75843983 274.80395222 363.59515858 C267.37401426 369.407459 259.73040205 374.84283875 251.92113972 380.13422108 C250.92113972 378.13422108 250.92113972 378.13422108 252.03051472 374.74750233 C252.57376473 373.31253099 253.12090404 371.87902831 253.67113972 370.44672108 C257.75731144 359.35736726 260.33621203 347.97457541 260.92113972 336.13422108 C260.97399128 335.08750233 261.02684284 334.04078358 261.08129597 332.96234608 C261.86836002 301.61666454 252.50452935 272.8880348 230.93676472 249.91156483 C221.60321784 239.8019885 221.60321784 239.8019885 209.92113972 233.13422108 C209.92113972 232.47422108 209.92113972 231.81422108 209.92113972 231.13422108 C209.26113972 230.88414295 208.60113972 230.63406483 207.92113972 230.37640858 C204.91561444 229.13193327 202.02059792 227.74495108 199.09985065 226.31659412 C169.50129772 211.95181009 135.84766002 210.07758716 104.54613972 220.32172108 C75.68216422 231.63281303 52.39980944 253.72709789 39.49950886 281.84149647 C36.49037809 288.75860988 34.45348914 295.73861884 32.92113972 303.13422108 C32.69684284 304.20285389 32.47254597 305.2714867 32.24145222 306.37250233 C25.54495964 344.67093592 38.33497727 378.83541852 59.94067097 409.97406483 C66.3739378 419.04436316 73.26718494 427.66014507 80.81176472 435.83343983 C82.20440882 437.35245348 83.57000736 438.89676828 84.90551472 440.46625233 C89.71844122 446.11662804 94.99320945 450.67612598 100.92113972 455.13422108 C99.92113972 458.13422108 99.92113972 458.13422108 97.71337605 459.4017992 C96.73650837 459.81881092 95.75964069 460.23582264 94.75317097 460.66547108 C93.64755817 461.14081287 92.54194538 461.61615467 91.40282917 462.10590076 C90.19199665 462.61024647 88.98116413 463.11459217 87.73363972 463.63422108 C87.11322803 463.89577991 86.49281635 464.15733875 85.85360432 464.42682362 C48.39752305 480.21529803 9.41462924 492.24531916 -29.95386028 502.25922108 C-30.73092327 502.45926746 -31.50798626 502.65931385 -32.30859661 502.86542225 C-35.9950961 503.77367803 -39.29423744 504.21145828 -43.07886028 504.13422108 C-43.17044406 461.51706887 -43.24091337 418.89992803 -43.2831216 376.28269688 C-43.28812434 371.24972497 -43.29330164 366.21675325 -43.29858685 361.18378162 C-43.29963609 360.18182048 -43.30068533 359.17985933 -43.30176637 358.14753572 C-43.31916487 341.9304219 -43.35069951 325.71336488 -43.38747147 309.49628475 C-43.42489631 292.85228253 -43.4470994 276.20831003 -43.45521426 259.56426746 C-43.46069883 249.29651967 -43.47801255 239.02893244 -43.51052615 228.76123408 C-43.53169307 221.71736706 -43.53805539 214.67358288 -43.53286579 207.62968638 C-43.5303074 203.56755406 -43.53419003 199.50570203 -43.55568218 195.44361973 C-43.57524306 191.71922811 -43.57606916 187.99530351 -43.56245586 184.27088974 C-43.55998328 182.29665857 -43.57714958 180.32243236 -43.59518552 178.34828204 C-43.52113621 167.26233239 -41.05086715 157.28683299 -33.14136028 149.13812733 C-22.76278341 139.31811969 -13.06171059 137.9521365 0.80151081 138.11249256 C2.58772846 138.12690388 2.58772846 138.12690388 4.41003132 138.14160633 C7.66168863 138.16886334 10.91326002 138.20076411 14.16485262 138.23475623 C17.56808921 138.2692268 20.97137579 138.29772378 24.37466145 138.32686329 C30.813128 138.3828937 37.25153196 138.44427089 43.68993056 138.50758463 C51.74221787 138.58648181 59.79456699 138.65821433 67.84692097 138.7299242 C82.20506479 138.85782155 96.56307906 138.99652944 110.92113972 139.13422108 C110.92113972 112.40422108 110.92113972 85.67422108 110.92113972 58.13422108 C103.2525069 58.1574242 95.58387409 58.18062733 87.68285847 58.20453358 C82.81111027 58.21475824 77.93937539 58.22438661 73.06762409 58.23187733 C65.34290522 58.2438112 57.61823398 58.25789651 49.89355183 58.28509998 C43.6625113 58.30690491 37.43152188 58.31880584 31.20044613 58.32397556 C28.82873258 58.3276576 26.45702168 58.33484757 24.08533001 58.34568119 C20.75148671 58.36029773 17.41785194 58.36219477 14.08398151 58.36127186 C13.11364979 58.36846241 12.14331806 58.37565296 11.14358234 58.38306141 C1.73297949 58.35505595 -8.05282656 58.10003166 -15.07886028 51.13422108 C-20.05115623 44.50449314 -19.29218265 36.74867532 -19.32886028 28.82172108 C-19.34948528 27.71892811 -19.37011028 26.61613514 -19.39136028 25.4799242 C-19.42694414 18.02955359 -19.17288626 11.77094919 -14.14136028 5.85687733 C-13.46073528 5.30902576 -12.78011028 4.7611742 -12.07886028 4.19672108 C-11.39823528 3.63082264 -10.71761028 3.0649242 -10.01636028 2.48187733 C-6.70192813 0.17647593 -3.91776407 0.00765842 0 0 Z " fill="#03B3AF" transform="translate(310.07886028289795,110.86577892303467)"/>
<path d="M0 0 C16.49206625 11.16457294 26.84184148 29.83278465 30.77445829 49.09861684 C31.69994695 54.82204401 31.78601215 60.42399517 31.7492218 66.21102905 C31.75319621 67.48324771 31.75717061 68.75546636 31.76126546 70.06623709 C31.77173306 73.55373996 31.76380221 77.04098206 31.75251496 80.52847314 C31.74359893 84.30620373 31.75213743 88.08390289 31.75837708 91.8616333 C31.7678227 99.24323448 31.76130349 106.6247373 31.74911413 114.00633113 C31.73543893 122.6104902 31.73713671 131.21462631 31.73924746 139.81879349 C31.74243087 155.1710452 31.73080477 170.52325037 31.71118164 185.87548828 C31.6921603 200.76091935 31.68510011 215.64629593 31.69067383 230.53173828 C31.69673398 246.76415436 31.69655175 262.99654654 31.685188 279.22896063 C31.68398076 280.96004017 31.68277477 282.69111971 31.68157005 284.42219925 C31.68066475 285.69962724 31.68066475 285.69962724 31.67974115 287.00286185 C31.6758662 292.99652303 31.6762539 298.9901753 31.6781559 304.98383713 C31.6802796 312.28601478 31.67503991 319.58814478 31.66054235 326.89030902 C31.65330857 330.61385851 31.64921274 334.33733868 31.65378571 338.06089401 C31.65862471 342.09928856 31.64792977 346.1374939 31.63569641 350.1758728 C31.63947573 351.34921437 31.64325506 352.52255593 31.64714891 353.7314533 C31.59131175 364.13975176 30.10691927 372.75226077 22.73828125 380.54296875 C16.04157588 386.63772308 9.22396519 388.29616199 0.375 388.8125 C0.41625 389.988125 0.4575 391.16375 0.5 392.375 C0.48174397 397.53232891 -0.27040981 401.90603974 -3.3125 406.1875 C-6.53649048 408.45300683 -8.68677445 408.8125 -12.625 408.8125 C-16.61070715 407.51875232 -19.03962459 405.8814464 -21.0625 402.1875 C-21.55896982 399.20868111 -21.68221603 396.60659534 -21.66015625 393.6015625 C-21.65254272 392.25505615 -21.65254272 392.25505615 -21.64477539 390.88134766 C-21.63498657 389.85726807 -21.63498657 389.85726807 -21.625 388.8125 C-22.60361496 388.81472061 -23.58222992 388.81694122 -24.59049988 388.81922913 C-33.81596301 388.83950658 -43.04142161 388.85449436 -52.26690197 388.86431217 C-57.00973121 388.86952928 -61.75254245 388.8766057 -66.49536133 388.88793945 C-71.07298777 388.89880992 -75.65059689 388.90478567 -80.22823524 388.90737724 C-81.97411687 388.90922398 -83.71999756 388.91283018 -85.46587181 388.91823006 C-87.91240863 388.92549565 -90.35887404 388.92648861 -92.80541992 388.92602539 C-93.52615189 388.92962067 -94.24688385 388.93321594 -94.98945618 388.93692017 C-98.66225009 388.92940241 -102.0534886 388.68777242 -105.625 387.8125 C-105.315625 389.235625 -105.315625 389.235625 -105 390.6875 C-104.32732379 395.46447598 -104.88565293 400.31066053 -106.625 404.8125 C-110.0487825 408.00040605 -112.95508226 408.65146835 -117.625 408.8125 C-121.64019063 407.29733372 -123.22868353 406.4069747 -125.625 402.8125 C-126.0390625 400.47265625 -126.0390625 400.47265625 -126.25 397.875 C-126.32476563 397.02035156 -126.39953125 396.16570312 -126.4765625 395.28515625 C-126.60588503 393.13091512 -126.625 390.97061936 -126.625 388.8125 C-127.45902344 388.72613281 -128.29304688 388.63976562 -129.15234375 388.55078125 C-139.663909 387.23834069 -146.34906663 385.12140106 -153.0625 376.6875 C-157.3938291 370.92989486 -157.15799736 367.88101454 -158.625 359.8125 C-272.145 359.8125 -385.665 359.8125 -502.625 359.8125 C-502.13 364.7625 -502.13 364.7625 -501.625 369.8125 C-501.55309434 382.58294437 -504.45021947 391.37314848 -513.33203125 400.6171875 C-521.98964861 408.9060818 -531.60073672 412.03407733 -543.625 411.8125 C-556.24801598 410.27565526 -566.65869265 404.80143327 -574.625 394.8125 C-581.56471669 383.88200476 -581.92392511 373.41717543 -581.625 360.8125 C-578.10372871 359.23465394 -575.2382267 358.54164718 -571.390625 358.390625 C-570.3596167 358.3383374 -569.3286084 358.2860498 -568.26635742 358.23217773 C-567.14720947 358.17618408 -566.02806152 358.12019043 -564.875 358.0625 C-487.04037857 353.08534885 -406.6534788 322.95753626 -336.43621826 290.64581299 C-334.79983616 289.89293936 -333.16196827 289.14329717 -331.52392578 288.39404297 C-320.52128655 283.34810761 -309.7668131 277.87967594 -299.10693359 272.14697266 C-297.43444173 271.24771626 -295.76024738 270.35161993 -294.08447266 269.45849609 C-272.99606635 258.21425463 -252.27109049 246.20631529 -232.36523438 232.96923828 C-230.72226772 231.8771541 -229.07227824 230.79565661 -227.421875 229.71484375 C-209.00328949 217.58847135 -191.4178348 204.28160267 -174.40136719 190.26855469 C-172.82067002 188.97288703 -171.22757855 187.69237367 -169.6328125 186.4140625 C-163.91075784 181.81983311 -158.46858018 176.99829442 -153.1262207 171.97241211 C-150.74891444 169.74058669 -148.36347882 167.60567369 -145.8046875 165.58203125 C-143.54492589 163.99613244 -143.54492589 163.99613244 -142.625 161.8125 C-141.965 161.8125 -141.305 161.8125 -140.625 161.8125 C-140.295 160.8225 -139.965 159.8325 -139.625 158.8125 C-138.00397032 157.10141311 -136.32996537 155.43996694 -134.625 153.8125 C-133.84125 153.02875 -133.0575 152.245 -132.25 151.4375 C-130.6002188 149.7877188 -128.94016932 148.14807818 -127.265625 146.5234375 C-122.06960377 141.4462795 -117.35727531 136.18899282 -112.828125 130.51171875 C-110.74042842 127.95392028 -108.56203361 125.54041649 -106.3125 123.125 C-90.72245935 105.94358842 -77.77781743 85.80828004 -65.91748047 65.94433594 C-64.22869259 63.15882484 -62.46978063 60.42120774 -60.71044922 57.67993164 C-51.66732962 43.52555898 -44.06779543 29.20544645 -41.625 12.375 C-40.64432733 5.9499032 -38.44953917 2.55771138 -33.75 -1.9375 C-23.05223917 -9.63988779 -10.54157634 -6.37736248 0 0 Z " fill="#02B1AE" transform="translate(790.625,398.1875)"/>
<path d="M0 0 C1.7822002 1.7822002 1.12548751 4.4026785 1.12584114 6.81221485 C1.12844889 8.08317849 1.13105664 9.35414213 1.13374341 10.66361982 C1.13158087 12.0924632 1.12932419 13.52130644 1.12698364 14.95014954 C1.12813448 16.45371434 1.12972175 17.95727886 1.13171089 19.46084279 C1.13590947 23.61244298 1.13381114 27.76402038 1.13072467 31.91562068 C1.12847287 36.38538896 1.13194912 40.85515317 1.13470459 45.32492065 C1.13916398 54.08990995 1.13818498 62.85489072 1.13529195 71.61988036 C1.13303814 78.74177284 1.1327253 85.86366291 1.13381577 92.98555565 C1.133969 93.99727212 1.13412223 95.00898859 1.13428011 96.05136314 C1.13459982 98.10636368 1.13492403 100.16136422 1.1352527 102.21636476 C1.13810809 121.51206006 1.13481976 140.80775062 1.12945233 160.10344514 C1.12498627 176.671749 1.12575848 193.24004587 1.13037109 209.80834961 C1.1357193 229.02799682 1.13783126 248.24763987 1.13475883 267.46728772 C1.13444027 269.5158575 1.1341259 271.56442728 1.13381577 273.61299706 C1.13366149 274.62103947 1.13350721 275.62908188 1.13334826 276.66767103 C1.1324837 283.78215943 1.13394474 290.8966452 1.13629532 298.01113319 C1.13909633 306.67991932 1.13834874 315.3486964 1.13301457 324.01748148 C1.13038134 328.44319639 1.12936612 332.86889618 1.13266373 337.29461098 C1.13563454 341.3428995 1.13402067 345.39115883 1.12868617 349.43944468 C1.12756534 350.90717448 1.12814584 352.37490672 1.13056196 353.84263495 C1.13358634 355.8318422 1.1298976 357.82105632 1.12584114 359.81026173 C1.12567879 360.91698414 1.12551644 362.02370655 1.12534916 363.163966 C1.01677369 365.62049404 0.71415296 367.65911824 0 370 C-46.31372909 378.46892148 -92.90372469 384.00462099 -140 385 C-140.81148681 378.11691983 -141.1452236 371.34857565 -141.13371277 364.42088318 C-141.13597833 363.40344546 -141.13824388 362.38600774 -141.14057809 361.33773857 C-141.14687076 357.95358151 -141.14609178 354.56946498 -141.14526367 351.18530273 C-141.14825817 348.74838713 -141.15166137 346.311472 -141.15544128 343.8745575 C-141.16334261 337.95595608 -141.16649473 332.03736405 -141.16705366 326.11875843 C-141.16753043 321.3017311 -141.16959318 316.48470704 -141.17275429 311.66768074 C-141.18155333 297.97849474 -141.18617499 284.28931654 -141.18542381 270.60012769 C-141.18538386 269.86349913 -141.1853439 269.12687056 -141.18530273 268.36791992 C-141.18526185 267.63038052 -141.18522097 266.89284112 -141.18517885 266.13295204 C-141.18477288 254.19491793 -141.19433211 242.25691542 -141.2084411 230.31889044 C-141.22284933 218.02960467 -141.22970881 205.74033427 -141.22884732 193.45103985 C-141.22851682 186.56425933 -141.2311988 179.67751192 -141.24202538 172.79073906 C-141.25215345 166.30722946 -141.25174985 159.82377149 -141.24450874 153.34025764 C-141.2434693 150.9720919 -141.24578738 148.60392171 -141.2518692 146.23576355 C-141.29058078 130.10637796 -141.1611707 114.02679166 -136.75 98.375 C-136.53311523 97.58633545 -136.31623047 96.7976709 -136.09277344 95.98510742 C-131.09452443 78.37570026 -123.19077401 61.7702356 -111 48 C-110.19046875 47.04738281 -109.3809375 46.09476562 -108.546875 45.11328125 C-83.87463431 16.61068897 -48.12040191 3.33648589 -11.28515625 0.26171875 C-7.50860641 0.00164433 -3.78449268 -0.13322204 0 0 Z " fill="#02B2AE" transform="translate(246,250)"/>
<path d="M0 0 C3.33061697 2.746478 4.86361854 6.44185117 6.6875 10.25 C7.39445396 11.68948034 8.10282459 13.12826566 8.8125 14.56640625 C9.35390625 15.66686279 9.35390625 15.66686279 9.90625 16.78955078 C11.63072888 20.2746918 13.39173443 23.73859284 15.1875 27.1875 C15.49582764 27.79819336 15.80415527 28.40888672 16.12182617 29.03808594 C18.26607763 33.12313218 20.64235084 35.92070518 24 39 C22.35512341 44.18136127 19.18525926 48.17734306 16 52.5 C15.41766602 53.29736572 14.83533203 54.09473145 14.23535156 54.91625977 C6.45977228 65.52406717 -1.58012259 75.8933358 -10 86 C-10.63591064 86.76546143 -10.63591064 86.76546143 -11.28466797 87.54638672 C-17.54447069 95.06867066 -23.99586824 102.37300959 -30.65576172 109.54248047 C-31.95019001 110.94599244 -33.22742854 112.36529883 -34.50390625 113.78515625 C-40.2262125 120.13647937 -46.15250185 126.25716539 -52.1875 132.3125 C-53.31007202 133.44196045 -53.31007202 133.44196045 -54.45532227 134.59423828 C-58.58691006 138.71442922 -62.80826784 142.66633454 -67.22924805 146.47436523 C-69.46295067 148.3988665 -71.63647765 150.38571162 -73.8125 152.375 C-115.42741877 189.87276547 -163.76988668 219.70062026 -213 246 C-213.94327148 246.50853516 -214.88654297 247.01707031 -215.85839844 247.54101562 C-283.64342911 284.01095172 -359.62881371 312.70566963 -436 324 C-437.26585937 324.19980469 -438.53171875 324.39960937 -439.8359375 324.60546875 C-457.42207933 326.67092447 -477.12933162 326.53310436 -494 321 C-495.01006104 320.68651611 -495.01006104 320.68651611 -496.04052734 320.36669922 C-522.40325832 312.04457913 -545.76479079 292.55982299 -560 269 C-560.37705078 268.38157227 -560.75410156 267.76314453 -561.14257812 267.12597656 C-566.79173615 257.7774111 -571.24473603 248.24966165 -575 238 C-573.76507812 238.26554688 -572.53015625 238.53109375 -571.2578125 238.8046875 C-552.5344375 242.74654875 -534.11690478 244.47554484 -515 245 C-514.17226074 245.02336426 -513.34452148 245.04672852 -512.49169922 245.07080078 C-434.15977585 246.9414608 -354.25849566 225.9540779 -282 197 C-280.98776367 196.59990723 -279.97552734 196.19981445 -278.93261719 195.78759766 C-257.22622336 187.19992088 -235.87861015 177.78544423 -215.12207031 167.08984375 C-212.70938671 165.85074807 -210.28794981 164.62948398 -207.8671875 163.40625 C-192.51388535 155.5839714 -177.72039857 146.94318332 -163 138 C-161.9171875 137.34290039 -160.834375 136.68580078 -159.71875 136.00878906 C-152.45748453 131.57398411 -145.31867012 126.98516299 -138.25 122.25 C-137.21359375 121.55680664 -136.1771875 120.86361328 -135.109375 120.14941406 C-116.8357545 107.88596021 -98.8609599 95.16417813 -82 81 C-81.4834082 80.5683252 -80.96681641 80.13665039 -80.43457031 79.69189453 C-73.93758211 74.26102932 -67.53480729 68.74924718 -61.26953125 63.05078125 C-59.16347582 61.14771912 -57.02679531 59.28846179 -54.875 57.4375 C-51.35621949 54.38078158 -48.09365882 51.11635651 -44.828125 47.79296875 C-42.68148898 45.68761419 -40.3599124 43.85932492 -38 42 C-37.67 41.34 -37.34 40.68 -37 40 C-36.34 40 -35.68 40 -35 40 C-35 39.34 -35 38.68 -35 38 C-33.50390625 36.5625 -33.50390625 36.5625 -31.5625 35 C-28.84811762 32.85474956 -28.84811762 32.85474956 -27 30 C-26.34 30 -25.68 30 -25 30 C-24.731875 29.40058594 -24.46375 28.80117188 -24.1875 28.18359375 C-22.98294983 25.96864788 -21.85458345 24.74321625 -20 23.0625 C-15.94781189 19.17239942 -12.68043831 14.79165229 -9.37695312 10.26782227 C-8.29542979 8.81138503 -7.1524141 7.40101531 -6 6 C-5.34 6 -4.68 6 -4 6 C-3.71125 5.38125 -3.4225 4.7625 -3.125 4.125 C-2 2 -2 2 0 0 Z " fill="#FEBF3C" transform="translate(680,423)"/>
<path d="M0 0 C2.56390755 2.56390755 2.25044779 3.50424848 2.25168228 7.06513405 C2.25689778 8.14403518 2.26211327 9.22293632 2.26748681 10.33453143 C2.26302537 11.52944276 2.25856392 12.72435409 2.25396729 13.95547485 C2.25864726 15.84842319 2.25864726 15.84842319 2.26342177 17.7796129 C2.27180685 21.29417298 2.26762771 24.8086251 2.26144934 28.32318568 C2.25694067 32.10930426 2.26390088 35.89540373 2.26940918 39.68151855 C2.27832339 47.10484805 2.27637173 54.5281372 2.2705839 61.9514683 C2.26607332 67.98587172 2.26545189 74.02026381 2.26763153 80.05466843 C2.267938 80.91244965 2.26824446 81.77023087 2.26856022 82.65400546 C2.26919965 84.39646655 2.26984808 86.13892763 2.2705054 87.88138871 C2.27621515 104.24003246 2.26964176 120.59865383 2.25890467 136.95729391 C2.24997813 150.99156004 2.25151253 165.02579307 2.26074219 179.06005859 C2.27144993 195.34951681 2.27565568 211.63895536 2.26951766 227.92841661 C2.26888056 229.6664234 2.26825182 231.40443019 2.26763153 233.14243698 C2.2671687 234.42517475 2.2671687 234.42517475 2.26669653 235.73382641 C2.26497039 241.75740707 2.26788315 247.78097526 2.27259064 253.80455399 C2.27820549 261.15093541 2.27667071 268.49727411 2.26602915 275.84365065 C2.2607791 279.59142268 2.25870418 283.33912352 2.26532745 287.08689499 C2.27240301 291.15219951 2.263944 295.21732489 2.25396729 299.28262329 C2.26065945 301.05491379 2.26065945 301.05491379 2.26748681 302.86300814 C2.21777917 313.29488089 0.75006614 321.92057446 -6.63671875 329.73046875 C-13.33342412 335.82522308 -20.15103481 337.48366199 -29 338 C-28.95875 339.175625 -28.9175 340.35125 -28.875 341.5625 C-28.89325603 346.71982891 -29.64540981 351.09353974 -32.6875 355.375 C-35.91149048 357.64050683 -38.06177445 358 -42 358 C-45.98570715 356.70625232 -48.41462459 355.0689464 -50.4375 351.375 C-50.93396982 348.39618111 -51.05721603 345.79409534 -51.03515625 342.7890625 C-51.03008057 341.8913916 -51.02500488 340.9937207 -51.01977539 340.06884766 C-51.00998657 339.04476807 -51.00998657 339.04476807 -51 338 C-51.97861496 338.00222061 -52.95722992 338.00444122 -53.96549988 338.00672913 C-63.19096301 338.02700658 -72.41642161 338.04199436 -81.64190197 338.05181217 C-86.38473121 338.05702928 -91.12754245 338.0641057 -95.87036133 338.07543945 C-100.44798777 338.08630992 -105.02559689 338.09228567 -109.60323524 338.09487724 C-111.34911687 338.09672398 -113.09499756 338.10033018 -114.84087181 338.10573006 C-117.28740863 338.11299565 -119.73387404 338.11398861 -122.18041992 338.11352539 C-122.90115189 338.11712067 -123.62188385 338.12071594 -124.36445618 338.12442017 C-128.03725009 338.11690241 -131.4284886 337.87527242 -135 337 C-134.79375 337.94875 -134.5875 338.8975 -134.375 339.875 C-133.70232379 344.65197598 -134.26065293 349.49816053 -136 354 C-139.4237825 357.18790605 -142.33008226 357.83896835 -147 358 C-151.01519063 356.48483372 -152.60368353 355.5944747 -155 352 C-155.4140625 349.66015625 -155.4140625 349.66015625 -155.625 347.0625 C-155.73714844 345.78052734 -155.73714844 345.78052734 -155.8515625 344.47265625 C-155.98088503 342.31841512 -156 340.15811936 -156 338 C-157.25103516 337.87044922 -157.25103516 337.87044922 -158.52734375 337.73828125 C-169.038909 336.42584069 -175.72406663 334.30890106 -182.4375 325.875 C-189.11647693 316.99668319 -188.28537454 305.19677232 -188.21459961 294.59936523 C-188.21235308 293.18541568 -188.2109325 291.77146461 -188.21026611 290.35751343 C-188.2054984 286.54968202 -188.18746452 282.74203115 -188.16551661 278.93426394 C-188.15229219 276.54929541 -188.14182207 274.16433044 -188.13226509 271.77934456 C-188.09857314 263.44240887 -188.05342252 255.10561929 -187.99829102 246.76879883 C-187.94739289 239.02242361 -187.92277254 231.27625933 -187.91010088 223.52973598 C-187.89793449 216.85411788 -187.86664104 210.17876107 -187.8208161 203.50328976 C-187.79387737 199.52694446 -187.77461431 195.5509361 -187.77497673 191.5744915 C-187.77471436 187.8353045 -187.7505115 184.09700286 -187.70852661 180.35805893 C-187.69179036 178.34674167 -187.69931183 176.33526738 -187.70777893 174.32389832 C-187.57648009 165.52694854 -186.16566065 158.4334392 -179.99195766 151.86287594 C-173.3551975 145.6701185 -166.94492274 142.85811312 -157.921875 142.90234375 C-156.76171875 142.90556641 -155.6015625 142.90878906 -154.40625 142.91210938 C-152.59640625 142.92467773 -152.59640625 142.92467773 -150.75 142.9375 C-148.91695312 142.94426758 -148.91695312 142.94426758 -147.046875 142.95117188 C-144.03120054 142.96295185 -141.01562502 142.97940147 -138 143 C-138.02094727 142.19369141 -138.04189453 141.38738281 -138.06347656 140.55664062 C-138.14709173 136.87122273 -138.19880549 133.18600506 -138.25 129.5 C-138.28351562 128.2315625 -138.31703125 126.963125 -138.3515625 125.65625 C-138.43900429 117.26183854 -138.09288446 111.29172905 -132.0703125 104.9765625 C-131.42835938 104.53054688 -130.78640625 104.08453125 -130.125 103.625 C-129.16980469 102.93277344 -129.16980469 102.93277344 -128.1953125 102.2265625 C-121.56908946 98.52436671 -115.13856499 98.66371451 -107.734375 98.62890625 C-105.95151093 98.61536354 -105.95151093 98.61536354 -104.13262939 98.60154724 C-101.62115998 98.58706251 -99.10965299 98.57816244 -96.59814453 98.57446289 C-92.77701406 98.56258398 -88.95750796 98.51339106 -85.13671875 98.46289062 C-82.690112 98.45342357 -80.24349539 98.44618989 -77.796875 98.44140625 C-76.09794098 98.41210777 -76.09794098 98.41210777 -74.36468506 98.38221741 C-66.3142637 98.42747862 -59.21434008 99.9037738 -53.25779724 105.69337463 C-48.25103071 111.77932461 -49.21540645 120.54644208 -49.1875 128 C-49.16432305 129.45706814 -49.13895112 130.91410311 -49.11132812 132.37109375 C-49.04888823 135.91403687 -49.01622827 139.4565087 -49 143 C-48.26998779 142.97905273 -47.53997559 142.95810547 -46.7878418 142.93652344 C-43.42120617 142.85243073 -40.05479255 142.80104721 -36.6875 142.75 C-35.53958984 142.71648437 -34.39167969 142.68296875 -33.20898438 142.6484375 C-23.05768776 142.53340864 -14.33458455 144.3424723 -6.53515625 151.14453125 C-4.31611922 153.82657346 -2.72706782 156.97763132 -1 160 C-0.505 80.8 -0.505 80.8 0 0 Z " fill="#019392" transform="translate(820,449)"/>
<path d="M0 0 C4.48506321 3.47261223 7.0024837 7.12254603 7.9765625 12.74609375 C8.92133176 26.38764019 -0.61861558 37.95468953 -9.0234375 47.74609375 C-11.48833657 50.55005099 -13.99191404 53.31470071 -16.5234375 56.05859375 C-17.13509766 56.7235083 -17.74675781 57.38842285 -18.37695312 58.07348633 C-18.95123047 58.68345459 -19.52550781 59.29342285 -20.1171875 59.921875 C-20.88579102 60.7403894 -20.88579102 60.7403894 -21.66992188 61.57543945 C-23.0234375 62.74609375 -23.0234375 62.74609375 -25.0234375 62.74609375 C-25.0234375 63.40609375 -25.0234375 64.06609375 -25.0234375 64.74609375 C-26.28125 66.05078125 -26.28125 66.05078125 -28.1484375 67.62109375 C-29.24671875 68.55308594 -29.24671875 68.55308594 -30.3671875 69.50390625 C-31.24375 70.24382812 -32.1203125 70.98375 -33.0234375 71.74609375 C-34.07679418 72.65868857 -35.12879717 73.57284741 -36.1796875 74.48828125 C-44.26096005 81.51053243 -52.53447862 88.22449139 -61.0234375 94.74609375 C-61.89145996 95.41350586 -62.75948242 96.08091797 -63.65380859 96.76855469 C-66.52443669 98.97279576 -69.39815138 101.17293276 -72.2734375 103.37109375 C-73.20357666 104.08297852 -74.13371582 104.79486328 -75.09204102 105.52832031 C-75.96143311 106.19057617 -76.8308252 106.85283203 -77.7265625 107.53515625 C-78.50676758 108.13021973 -79.28697266 108.7252832 -80.09082031 109.33837891 C-82.0234375 110.74609375 -82.0234375 110.74609375 -84.0234375 111.74609375 C-83.32702891 118.93331692 -81.68283366 125.7848784 -79.9609375 132.7890625 C-79.65361191 134.05445358 -79.34628632 135.31984467 -79.02964783 136.62358093 C-78.20327513 140.02583133 -77.37152732 143.42674577 -76.53867722 146.82741547 C-75.67570521 150.35504124 -74.81768994 153.88387204 -73.95922852 157.41259766 C-72.60179021 162.99003427 -71.24168168 168.56681223 -69.87939453 174.14306641 C-68.32587451 180.50266588 -66.77943027 186.86395426 -65.23828125 193.2265625 C-64.84368987 194.8542532 -64.44907815 196.48193897 -64.05444336 198.10961914 C-63.51165533 200.34852643 -62.96907045 202.58748154 -62.42727661 204.82662964 C-60.71658321 211.89361404 -58.98248038 218.9519796 -57.1484375 225.98828125 C-56.86105713 227.09961426 -56.57367676 228.21094727 -56.27758789 229.35595703 C-55.76058732 231.34389765 -55.23482075 233.32959666 -54.69702148 235.31201172 C-53.00933226 241.8036855 -51.51323747 248.45111186 -54.3984375 254.74609375 C-60.95206579 262.23595466 -68.27535759 270.03576955 -78.5859375 271.12109375 C-84.09961435 268.91562301 -85.97646988 264.68882506 -89.0234375 259.74609375 C-90.30105579 257.76536024 -91.59135118 255.79316502 -92.88110352 253.8203125 C-94.51208286 251.32201429 -96.13292932 248.81729904 -97.75390625 246.3125 C-103.367133 237.66057589 -109.04212684 229.04915311 -114.7109375 220.43359375 C-115.5102066 219.2181488 -115.5102066 219.2181488 -116.32562256 217.97814941 C-122.08445817 209.22114229 -127.86161119 200.47728492 -133.68444824 191.76269531 C-136.74110589 187.18288961 -139.74147743 182.57019024 -142.7109375 177.93359375 C-144.47691673 175.2012592 -146.24882063 172.47282445 -148.0234375 169.74609375 C-148.73113281 168.658125 -149.43882812 167.57015625 -150.16796875 166.44921875 C-150.78027344 165.5365625 -151.39257812 164.62390625 -152.0234375 163.68359375 C-152.796875 162.52150391 -152.796875 162.52150391 -153.5859375 161.3359375 C-154.0603125 160.81128906 -154.5346875 160.28664063 -155.0234375 159.74609375 C-158.38207812 159.74609375 -159.30877773 160.30832626 -162.109375 162.02734375 C-162.94412354 162.53217285 -163.77887207 163.03700195 -164.63891602 163.55712891 C-165.54955811 164.1144873 -166.4602002 164.6718457 -167.3984375 165.24609375 C-177.91959417 171.58469973 -188.61291266 177.55555247 -199.38623047 183.45117188 C-199.9895369 183.78156464 -200.59284332 184.1119574 -201.21443176 184.45236206 C-202.8563839 185.35080896 -204.49956043 186.2470172 -206.14282227 187.14306641 C-207.56872681 187.93656494 -207.56872681 187.93656494 -209.0234375 188.74609375 C-209.9626001 189.24657227 -210.9017627 189.74705078 -211.86938477 190.26269531 C-212.58022217 190.7522168 -213.29105957 191.24173828 -214.0234375 191.74609375 C-214.46664377 194.34579619 -214.5371242 196.27812665 -214.3984375 198.87109375 C-214.38135742 199.62374512 -214.36427734 200.37639648 -214.34667969 201.15185547 C-214.22027424 206.04299173 -213.96843287 210.92897573 -213.73953247 215.81619263 C-213.60596449 218.76000461 -213.4879314 221.70437331 -213.37042236 224.64886475 C-213.27478059 226.84031932 -213.15251252 229.02921371 -213.02880859 231.21923828 C-212.37158421 244.89689707 -212.37158421 244.89689707 -217.0234375 250.74609375 C-219.64453125 253.609375 -219.64453125 253.609375 -222.4609375 256.05859375 C-223.38777344 256.87972656 -224.31460938 257.70085937 -225.26953125 258.546875 C-231.87466463 263.82161272 -231.87466463 263.82161272 -235.49682617 263.58349609 C-238.7280928 262.51254774 -239.29678628 261.44559093 -240.9140625 258.4921875 C-241.67106445 257.1306958 -241.67106445 257.1306958 -242.44335938 255.74169922 C-242.96478516 254.75314941 -243.48621094 253.76459961 -244.0234375 252.74609375 C-244.56033203 251.74078613 -245.09722656 250.73547852 -245.65039062 249.69970703 C-247.38186276 246.41446648 -249.08084991 243.11402337 -250.7734375 239.80859375 C-251.3867313 238.61873254 -252.00050678 237.42911948 -252.61474609 236.23974609 C-254.93945578 231.73752699 -257.25852571 227.23240726 -259.57714844 222.72705078 C-260.92893856 220.10560578 -262.28768942 217.4878969 -263.6484375 214.87109375 C-264.03741211 214.1119165 -264.42638672 213.35273926 -264.82714844 212.57055664 C-271.62766389 199.53025424 -283.26282393 192.23374328 -295.69726562 185.0859375 C-298.29723 183.58839295 -300.88728118 182.07453285 -303.4765625 180.55859375 C-310.78780375 176.28058525 -318.10934689 172.02034629 -325.43359375 167.76464844 C-327.6937802 166.45134898 -329.95363614 165.13748054 -332.21313477 163.82299805 C-334.34824179 162.58090278 -336.48412485 161.34014035 -338.62084961 160.10083008 C-339.57741455 159.54419678 -340.53397949 158.98756348 -341.51953125 158.4140625 C-342.36700928 157.92188232 -343.2144873 157.42970215 -344.08764648 156.92260742 C-346.0234375 155.74609375 -346.0234375 155.74609375 -347.0234375 154.74609375 C-346.89151779 148.28202819 -344.4528931 144.36855395 -340.0234375 139.74609375 C-337.04650725 137.04964515 -334.1243633 134.88491584 -330.00976562 134.61303711 C-321.50528833 135.47271246 -313.43988411 137.96630727 -305.2734375 140.37109375 C-303.70708242 140.82540842 -302.1405936 141.27926223 -300.57397461 141.73266602 C-290.9848636 144.52070344 -281.45254251 147.4636353 -271.95043945 150.53564453 C-260.14918564 155.12486375 -260.14918564 155.12486375 -248.0234375 154.74609375 C-245.30117979 152.83718644 -245.30117979 152.83718644 -242.5859375 150.37109375 C-241.52500169 149.45521619 -240.46243603 148.54122398 -239.3984375 147.62890625 C-238.84671875 147.15356445 -238.295 146.67822266 -237.7265625 146.18847656 C-234.90534505 143.79917715 -231.99900082 141.52181044 -229.0859375 139.24609375 C-228.50900146 138.79322998 -227.93206543 138.34036621 -227.33764648 137.8737793 C-224.32868186 135.51924669 -221.30029159 133.19401455 -218.24609375 130.8984375 C-217.34008423 130.21394531 -217.34008423 130.21394531 -216.41577148 129.515625 C-215.25938459 128.64406168 -214.09887432 127.77793584 -212.93383789 126.91796875 C-211.59390003 125.90729675 -210.30297967 124.83221676 -209.0234375 123.74609375 C-209.0234375 123.08609375 -209.0234375 122.42609375 -209.0234375 121.74609375 C-211.3025148 120.03448522 -213.58695566 118.44205067 -215.9609375 116.87109375 C-217.44343294 115.87216829 -218.9251805 114.87213218 -220.40625 113.87109375 C-221.17356445 113.35417969 -221.94087891 112.83726562 -222.73144531 112.3046875 C-226.30184455 109.87675517 -229.81801816 107.37418083 -233.3359375 104.87109375 C-239.3695949 100.58721093 -245.46119816 96.39848036 -251.5859375 92.24609375 C-258.19146294 87.76070419 -264.61921474 83.10161311 -270.96948242 78.26342773 C-276.77560285 73.86760179 -282.76377028 69.7703811 -288.79223633 65.68725586 C-294.49663191 61.81486113 -300.12570564 57.85092134 -305.7109375 53.80859375 C-306.42878418 53.28918213 -307.14663086 52.76977051 -307.88623047 52.23461914 C-309.25653599 51.2390391 -310.62196217 50.2367015 -311.98193359 49.22705078 C-313.40193956 48.1969436 -314.85045465 47.20548032 -316.31884766 46.24560547 C-321.8310427 42.51957944 -321.8310427 42.51957944 -322.79296875 38.65234375 C-321.0887253 32.21601316 -314.5704116 28.36913104 -309.19140625 24.94140625 C-306.50896764 23.43323797 -303.80564809 22.0597992 -301.0234375 20.74609375 C-300.30027344 20.38257813 -299.57710937 20.0190625 -298.83203125 19.64453125 C-291.58621903 16.38320677 -284.84069841 19.70798833 -277.765625 22.1875 C-276.74020096 22.54601547 -276.74020096 22.54601547 -275.69406128 22.91177368 C-273.42729201 23.70634951 -271.16274524 24.50703211 -268.8984375 25.30859375 C-268.10022583 25.58998199 -267.30201416 25.87137024 -266.47961426 26.1612854 C-247.98295308 32.68560601 -229.59775583 39.50927724 -211.21173096 46.33764648 C-200.3601412 50.36664201 -189.49974651 54.37162022 -178.63586426 58.36734009 C-175.47770917 59.5294247 -172.32038946 60.69375845 -169.16308594 61.8581543 C-165.39409677 63.2475474 -161.62059743 64.62324156 -157.84228516 65.98706055 C-154.93480099 67.0373133 -152.05133446 68.12280715 -149.18505859 69.28051758 C-143.45494006 71.65540742 -143.45494006 71.65540742 -137.640625 70.40625 C-136.73570312 69.54902344 -135.83078125 68.69179687 -134.8984375 67.80859375 C-133.80833609 66.84222271 -132.71436465 65.880205 -131.6171875 64.921875 C-131.04226563 64.40189941 -130.46734375 63.88192383 -129.875 63.34619141 C-126.56406484 60.48492175 -122.96963591 58.01872916 -119.3984375 55.49609375 C-117.85302347 54.38831183 -116.30876943 53.27891004 -114.765625 52.16796875 C-113.98541992 51.60658203 -113.20521484 51.04519531 -112.40136719 50.46679688 C-108.42190184 47.58720019 -104.47340303 44.66595038 -100.5234375 41.74609375 C-98.13713968 39.98634808 -95.75017651 38.22751068 -93.36279297 36.46923828 C-91.82734324 35.33824223 -90.29249227 34.20643274 -88.75830078 33.07373047 C-23.83454918 -14.77005847 -23.83454918 -14.77005847 0 0 Z " fill="#FEBF3B" transform="translate(943.0234375,184.25390625)"/>
<path d="M0 0 C1.05650841 -0.00445784 2.11301683 -0.00891569 3.20154065 -0.01350862 C4.3663025 -0.01332426 5.53106435 -0.01313989 6.73112202 -0.01294994 C7.96535713 -0.01662663 9.19959224 -0.02030332 10.47122842 -0.02409142 C13.90369572 -0.03322133 17.33611519 -0.03782862 20.76859009 -0.04048073 C24.468119 -0.04438303 28.16763405 -0.05396143 31.86715412 -0.0626936 C40.80483702 -0.08246024 49.74252105 -0.09252452 58.68022034 -0.10142139 C62.88861809 -0.105804 67.09701458 -0.11117089 71.30541134 -0.11641026 C85.29424465 -0.13342282 99.28307718 -0.14791711 113.27191925 -0.155159 C116.90246996 -0.15706891 120.53302067 -0.15898924 124.16357136 -0.16094494 C125.51711329 -0.16167055 125.51711329 -0.16167055 126.8979995 -0.16241082 C141.51649302 -0.17071157 156.13490471 -0.19604911 170.7533625 -0.22852562 C185.76006243 -0.26159297 200.76672079 -0.27960747 215.77345735 -0.28280324 C224.19989997 -0.28496865 232.62622329 -0.29372179 241.05263042 -0.31926441 C248.22883169 -0.34096701 255.40488467 -0.34902403 262.58111503 -0.33929763 C266.2418996 -0.33475159 269.9023782 -0.33665641 273.56312084 -0.35605907 C277.53428737 -0.37692505 281.50503203 -0.36670959 285.4762392 -0.35352612 C286.62984745 -0.36449536 287.78345569 -0.37546461 288.97202176 -0.38676625 C295.75587829 -0.33233991 300.14843061 0.49352982 305.92113972 4.13422108 C312.36602539 10.91831125 312.29389997 16.746583 312.29174519 25.81390858 C312.29609732 27.86424645 312.33237808 29.9123917 312.37035847 31.96234608 C312.39436234 40.09165664 312.21292974 46.34486596 306.5712862 52.64056873 C295.9293395 61.81460428 274.92898767 58.36727076 262.00317097 58.29437733 C259.49305674 58.2880987 256.98293972 58.28286135 254.47282124 58.278615 C248.57175488 58.26673039 242.67076761 58.24663055 236.76974267 58.2217173 C225.54694776 58.17443859 214.32412761 58.14194726 203.10126019 58.11722088 C199.4151121 58.10697996 195.72903889 58.08994189 192.04292011 58.07222462 C189.80026027 58.06540142 187.55759976 58.05879259 185.31493855 58.05243397 C184.28591923 58.0456966 183.25689991 58.03895924 182.19669819 58.03201771 C181.26193653 58.03050205 180.32717487 58.0289864 179.3640871 58.02742481 C178.54951447 58.02390538 177.73494184 58.02038595 176.8956852 58.01675987 C174.84398761 58.00891761 174.84398761 58.00891761 172.92113972 59.13422108 C172.89798901 69.25234111 172.88021067 79.37045486 172.86932755 89.48859596 C172.86410471 94.18664261 172.85701788 98.88467117 172.84570026 103.58270741 C172.83485016 108.11493769 172.82885836 112.64715055 172.82626247 117.17939281 C172.82441207 118.91018098 172.82079879 120.64096816 172.81540966 122.37174892 C172.8081711 124.79234995 172.80714997 127.21287858 172.80761433 129.63348866 C172.80401905 130.35206043 172.80042377 131.07063221 172.79671955 131.81097889 C172.8030839 134.86859202 172.94581554 137.20824855 173.92113972 140.13422108 C152.80113972 140.13422108 131.68113972 140.13422108 109.92113972 140.13422108 C110.25113972 136.50422108 110.58113972 132.87422108 110.92113972 129.13422108 C110.99858844 126.54631736 111.03931333 123.95692185 111.03466511 121.36786366 C111.03488415 120.32669895 111.03488415 120.32669895 111.03510761 119.26450062 C111.03442291 117.01921692 111.02669989 114.77402113 111.01879597 112.52875233 C111.01692664 110.95263686 111.01550517 109.37652081 111.01450825 107.80040455 C111.01072359 103.68892225 111.0009288 99.5774763 110.98980427 95.46600819 C110.97950215 91.25580811 110.97499193 87.04560205 110.96996784 82.83539295 C110.95930215 74.60165247 110.94227554 66.36794132 110.92113972 58.13422108 C110.37467635 58.13606466 109.82821299 58.13790825 109.26519012 58.1398077 C95.92571486 58.18411054 82.58625261 58.21700963 69.24671936 58.23784542 C62.79563553 58.24826179 56.34460499 58.26238176 49.89355183 58.28509998 C43.6625113 58.30690491 37.43152188 58.31880584 31.20044613 58.32397556 C28.82873258 58.3276576 26.45702168 58.33484757 24.08533001 58.34568119 C20.75148671 58.36029773 17.41785194 58.36219477 14.08398151 58.36127186 C13.11364979 58.36846241 12.14331806 58.37565296 11.14358234 58.38306141 C1.73297949 58.35505595 -8.05282656 58.10003166 -15.07886028 51.13422108 C-20.05115623 44.50449314 -19.29218265 36.74867532 -19.32886028 28.82172108 C-19.34948528 27.71892811 -19.37011028 26.61613514 -19.39136028 25.4799242 C-19.42694414 18.02955359 -19.17288626 11.77094919 -14.14136028 5.85687733 C-13.12042278 5.03509998 -13.12042278 5.03509998 -12.07886028 4.19672108 C-11.39823528 3.63082264 -10.71761028 3.0649242 -10.01636028 2.48187733 C-6.70192813 0.17647593 -3.91776407 0.00765842 0 0 Z " fill="#006367" transform="translate(310.07886028289795,110.86577892303467)"/>
<path d="M0 0 C12.646646 11.02190329 20.46092723 22.80993498 25.25 38.9609375 C25.61931641 40.18490234 25.61931641 40.18490234 25.99609375 41.43359375 C31.38226611 63.08972122 24.57927902 84.8728081 13.4765625 103.453125 C9.85090016 109.30003016 5.60654813 114.64779712 1.25 119.9609375 C0.82348145 120.48510254 0.39696289 121.00926758 -0.04248047 121.54931641 C-5.54074819 128.27677909 -11.30182518 134.75823245 -17.1875 141.1484375 C-17.77885742 141.7966748 -18.37021484 142.44491211 -18.97949219 143.11279297 C-19.5418457 143.71623535 -20.10419922 144.31967773 -20.68359375 144.94140625 C-21.17915771 145.47660889 -21.67472168 146.01181152 -22.18530273 146.56323242 C-23.91770324 148.11074263 -25.63829439 149.0135637 -27.75 149.9609375 C-27.75 150.6209375 -27.75 151.2809375 -27.75 151.9609375 C-29.31940801 153.39906423 -30.95874035 154.761238 -32.625 156.0859375 C-33.61886719 156.88128906 -34.61273438 157.67664063 -35.63671875 158.49609375 C-36.66410156 159.30949219 -37.69148438 160.12289062 -38.75 160.9609375 C-40.64615573 162.48136885 -42.54201579 164.00216906 -44.4375 165.5234375 C-45.87449468 166.66990449 -47.31179506 167.8159891 -48.75 168.9609375 C-78.12063545 155.80180753 -107.68134061 114.58186439 -119.75 85.9609375 C-127.09764335 65.92395916 -126.09369806 45.19739494 -117.25 25.64453125 C-107.71331698 6.94645135 -92.63030115 -6.90656323 -73.078125 -14.45703125 C-48.01204873 -22.4562284 -20.35921218 -16.65092711 0 0 Z " fill="#02B4B1" transform="translate(504.75,381.0390625)"/>
<path d="M0 0 C0.68361603 0.23901031 1.36723206 0.47802063 2.07156372 0.72427368 C4.33833299 1.51884951 6.60287976 2.31953211 8.8671875 3.12109375 C9.66539917 3.40248199 10.46361084 3.68387024 11.28601074 3.9737854 C29.78323799 10.49830568 48.16858488 17.32268927 66.55389404 24.15467834 C74.0752221 26.94686491 81.60604019 29.71255636 89.140625 32.46875 C90.80472412 33.07791512 90.80472412 33.07791512 92.50244141 33.6993866 C96.84317032 35.28822456 101.18389558 36.8770495 105.52648926 38.46078491 C126.91324792 46.26153278 126.91324792 46.26153278 136.7421875 50.55859375 C135.98115723 51.16654785 135.22012695 51.77450195 134.43603516 52.40087891 C132.49784763 53.95332601 130.56689144 55.514817 128.640625 57.08203125 C120.92372042 63.34089298 113.04946374 69.33003862 105.02539062 75.18920898 C97.1808218 80.93255402 89.51273901 86.89079915 81.86621094 92.89404297 C78.16676546 95.7932176 74.45406632 98.67536563 70.7421875 101.55859375 C70.2575 101.19145264 69.7728125 100.82431152 69.2734375 100.44604492 C64.48709821 96.83615561 59.64582988 93.31957374 54.7421875 89.87109375 C54.00798584 89.35345459 53.27378418 88.83581543 52.51733398 88.30249023 C47.63878904 84.87052401 42.72996304 81.48550783 37.8046875 78.12109375 C31.36982991 73.72272415 25.04297588 69.18837455 18.73681641 64.60791016 C10.61094818 58.71600527 2.37681796 52.98188333 -5.85449219 47.23876953 C-10.93458571 43.6872454 -15.99399741 40.10643043 -21.0546875 36.52734375 C-24.03970033 34.4166143 -27.0301308 32.31379403 -30.0234375 30.21484375 C-30.80501221 29.66586426 -31.58658691 29.11688477 -32.3918457 28.55126953 C-33.89449127 27.49599348 -35.39818719 26.44221104 -36.90307617 25.39013672 C-37.5757251 24.91721191 -38.24837402 24.44428711 -38.94140625 23.95703125 C-39.53493896 23.54114746 -40.12847168 23.12526367 -40.73999023 22.69677734 C-42.2578125 21.55859375 -42.2578125 21.55859375 -44.2578125 19.55859375 C-44.65234375 16.71484375 -44.65234375 16.71484375 -44.2578125 13.55859375 C-38.94806173 6.64785522 -31.01515026 2.22145699 -23.2578125 -1.44140625 C-22.17306641 -1.98667969 -22.17306641 -1.98667969 -21.06640625 -2.54296875 C-13.82059403 -5.80429323 -7.07507341 -2.47951167 0 0 Z " fill="#FE8456" transform="translate(665.2578125,206.44140625)"/>
<path d="M0 0 C0.99 0.495 0.99 0.495 2 1 C2.79885375 3.45021561 3.46140946 5.85312213 4.078125 8.3515625 C4.2881012 9.17556549 4.49807739 9.99956848 4.7144165 10.84854126 C5.48658687 13.8965235 6.24374588 16.94802992 7 20 C7.47826619 21.91823217 7.95653363 23.83646403 8.43483162 25.75468826 C10.89343121 35.62314755 13.32315057 45.49869397 15.75 55.375 C16.04870625 56.59042984 16.04870625 56.59042984 16.35344696 57.83041382 C16.96012775 60.29903968 17.56674631 62.76768082 18.17333984 65.23632812 C18.37263281 66.04737881 18.57192577 66.85842949 18.77725792 67.69405746 C19.76748064 71.72410753 20.75740169 75.75423125 21.74679565 79.78448486 C23.63876724 87.48799968 25.54028686 95.18881684 27.47302246 102.88223267 C28.3409366 106.3372101 29.20211102 109.79384445 30.06213379 113.25079346 C30.43170607 114.72759982 30.80488367 116.20350955 31.18200684 117.67840576 C35.6895192 135.3137763 35.6895192 135.3137763 32.625 142 C26.07137171 149.48986091 18.74807991 157.2896758 8.4375 158.375 C2.92382315 156.16952926 1.04696762 151.94273131 -2 147 C-3.27761829 145.01926649 -4.56791368 143.04707127 -5.85766602 141.07421875 C-7.48864536 138.57592054 -9.10949182 136.07120529 -10.73046875 133.56640625 C-16.3436955 124.91448214 -22.01868934 116.30305936 -27.6875 107.6875 C-28.22034607 106.87720337 -28.75319214 106.06690674 -29.30218506 105.23205566 C-35.06102067 96.47504854 -40.83817369 87.73119117 -46.66101074 79.01660156 C-49.7176492 74.43682461 -52.71928083 69.82487187 -55.6875 65.1875 C-59.65249666 59.02340588 -63.71692318 52.94952992 -68 47 C-66.5494471 43.36185651 -64.89228847 41.99475627 -61.5625 40 C-60.57378906 39.39542969 -59.58507812 38.79085937 -58.56640625 38.16796875 C-58.00453613 37.82813965 -57.44266602 37.48831055 -56.86376953 37.13818359 C-53.21370318 34.90912814 -49.61193478 32.60261878 -46 30.3125 C-41.05907224 27.18623669 -36.1141795 24.06719974 -31.1484375 20.98046875 C-20.49742261 14.34080462 -10.1751615 7.34800395 0 0 Z " fill="#FE8457" transform="translate(856,297)"/>
<path d="M0 0 C1.08864349 0.00539291 1.08864349 0.00539291 2.19927979 0.01089478 C2.96020432 0.01074875 3.72112885 0.01060272 4.50511169 0.01045227 C7.03202113 0.01115155 9.55885776 0.01894462 12.08575439 0.02676392 C13.83310404 0.02862804 15.58045421 0.03005197 17.32780457 0.03105164 C21.93591749 0.03487724 26.54399909 0.04470788 31.15209961 0.05575562 C35.85068335 0.06596883 40.54927214 0.07054906 45.24786377 0.07559204 C54.47378902 0.08633011 63.69969098 0.10340704 72.92559814 0.12442017 C73.09389881 1.71860707 73.25966941 3.3130612 73.42437744 4.90762329 C73.5632563 6.23944641 73.5632563 6.23944641 73.7049408 7.59817505 C74.59142674 17.74730806 73.13660932 27.56946926 66.90606689 35.78848267 C58.60934565 45.37140771 50.85371907 50.4292708 38.17559814 51.99942017 C26.10223049 52.72136454 15.95993334 48.88316289 6.70684814 41.30801392 C-0.54714993 34.60889256 -5.055221 25.98135498 -6.07440186 16.12442017 C-6.26682582 11.1163332 -6.34904977 6.13195421 -6.07440186 1.12442017 C-4.37771979 -0.5722619 -2.26308167 0.00473024 0 0 Z " fill="#016367" transform="translate(215.07440185546875,757.8755798339844)"/>
<path d="M0 0 C1.78286407 -0.01354271 1.78286407 -0.01354271 3.60174561 -0.02735901 C6.11321502 -0.04184374 8.62472201 -0.05074381 11.13623047 -0.05444336 C14.95736094 -0.06632227 18.77686704 -0.11551519 22.59765625 -0.16601562 C25.044263 -0.17548268 27.49087961 -0.18271636 29.9375 -0.1875 C31.63643402 -0.21679848 31.63643402 -0.21679848 33.36968994 -0.24668884 C41.43370839 -0.20135118 48.52818862 1.28173675 54.49232483 7.08021545 C59.49068173 13.14354821 58.27676818 21.48328127 58.046875 28.87109375 C58.02175233 30.27990819 57.99894617 31.68876595 57.97851562 33.09765625 C57.91986932 36.52260018 57.83019885 39.94698831 57.734375 43.37109375 C52.784375 43.37109375 47.834375 43.37109375 42.734375 43.37109375 C42.67830078 40.93283203 42.67830078 40.93283203 42.62109375 38.4453125 C42.55544394 36.31638279 42.48899626 34.18747758 42.421875 32.05859375 C42.39931641 30.98673828 42.37675781 29.91488281 42.35351562 28.81054688 C42.31806641 27.78251953 42.28261719 26.75449219 42.24609375 25.6953125 C42.21990967 24.74744873 42.19372559 23.79958496 42.16674805 22.82299805 C41.6498271 19.89163887 41.06572696 19.16634553 38.734375 17.37109375 C36.43210597 16.9239077 36.43210597 16.9239077 33.83569336 16.9987793 C32.84133774 16.99255051 31.84698212 16.98632172 30.82249451 16.97990417 C29.75056351 16.98911392 28.67863251 16.99832367 27.57421875 17.0078125 C26.47340469 17.007314 25.37259064 17.00681549 24.23841858 17.00630188 C21.9107991 17.00864319 19.58317714 17.01837497 17.25561523 17.03491211 C13.68255108 17.0585232 10.11023179 17.05547099 6.53710938 17.04882812 C4.27864136 17.05440405 2.0201765 17.06151338 -0.23828125 17.0703125 C-1.31223648 17.06940109 -2.38619171 17.06848969 -3.49269104 17.06755066 C-4.97949623 17.08184868 -4.97949623 17.08184868 -6.49633789 17.09643555 C-7.37109268 17.10104294 -8.24584747 17.10565033 -9.14710999 17.11039734 C-11.48194772 17.17711608 -11.48194772 17.17711608 -13.265625 19.37109375 C-13.63735516 21.98937045 -13.63735516 21.98937045 -13.6796875 25.03515625 C-13.71835937 26.15664063 -13.75703125 27.278125 -13.796875 28.43359375 C-13.84328125 30.19703125 -13.84328125 30.19703125 -13.890625 31.99609375 C-13.92929687 33.17945313 -13.96796875 34.3628125 -14.0078125 35.58203125 C-14.10231004 38.51145514 -14.18506499 41.44125345 -14.265625 44.37109375 C-19.545625 44.37109375 -24.825625 44.37109375 -30.265625 44.37109375 C-30.37392943 39.87044302 -30.45310658 35.37242018 -30.515625 30.87109375 C-30.54914062 29.60265625 -30.58265625 28.33421875 -30.6171875 27.02734375 C-30.70462929 18.63293229 -30.35850946 12.6628228 -24.3359375 6.34765625 C-23.69398438 5.90164063 -23.05203125 5.455625 -22.390625 4.99609375 C-21.75382813 4.53460937 -21.11703125 4.073125 -20.4609375 3.59765625 C-13.83471446 -0.10453954 -7.40418999 0.03480826 0 0 Z " fill="#005E62" transform="translate(712.265625,547.62890625)"/>
<path d="M0 0 C0.66 -0.01289062 1.32 -0.02578125 2 -0.0390625 C5.27352264 1.04784931 6.20408356 2.69257017 8 5.625 C8.59592589 9.12101556 8.54642743 12.57966442 8.51757812 16.11914062 C8.5245874 17.17497849 8.53159668 18.23081635 8.53881836 19.31864929 C8.55641394 22.80645091 8.54476939 26.29344022 8.53125 29.78125 C8.53394445 32.2059342 8.53782647 34.63061735 8.54284668 37.05529785 C8.54874388 42.13609101 8.54017123 47.21660283 8.52148438 52.29736328 C8.49869519 58.81110275 8.51181701 65.32418297 8.53577423 71.83789825 C8.55022593 76.84447195 8.54562899 81.85088926 8.53526306 86.85746765 C8.53259406 89.2592527 8.53587158 91.66105194 8.54518127 94.06282043 C8.55533601 97.4192162 8.53985934 100.77454324 8.51757812 104.13085938 C8.52567505 105.12425827 8.53377197 106.11765717 8.54211426 107.14115906 C8.4884712 111.50130954 8.41012816 113.95532962 6.09265137 117.73937988 C3.84565029 119.76407951 2.98091961 120.30822109 0 120.25 C-0.66 120.26289062 -1.32 120.27578125 -2 120.2890625 C-5.27352264 119.20215069 -6.20408356 117.55742983 -8 114.625 C-8.59592589 111.12898444 -8.54642743 107.67033558 -8.51757812 104.13085938 C-8.5245874 103.07502151 -8.53159668 102.01918365 -8.53881836 100.93135071 C-8.55641394 97.44354909 -8.54476939 93.95655978 -8.53125 90.46875 C-8.53394445 88.0440658 -8.53782647 85.61938265 -8.54284668 83.19470215 C-8.54874388 78.11390899 -8.54017123 73.03339717 -8.52148438 67.95263672 C-8.49869519 61.43889725 -8.51181701 54.92581703 -8.53577423 48.41210175 C-8.55022593 43.40552805 -8.54562899 38.39911074 -8.53526306 33.39253235 C-8.53259406 30.9907473 -8.53587158 28.58894806 -8.54518127 26.18717957 C-8.55533601 22.8307838 -8.53985934 19.47545676 -8.51757812 16.11914062 C-8.52567505 15.12574173 -8.53377197 14.13234283 -8.54211426 13.10884094 C-8.4884712 8.74869046 -8.41012816 6.29467038 -6.09265137 2.51062012 C-3.84565029 0.48592049 -2.98091961 -0.05822109 0 0 Z " fill="#006063" transform="translate(727,627.375)"/>
<path d="M0 0 C2.19421387 1.36500549 2.19421387 1.36500549 4 4 C4.60489132 7.48641992 4.54598769 10.94146353 4.51757812 14.47241211 C4.5245874 15.53785751 4.53159668 16.60330292 4.53881836 17.70103455 C4.55643862 21.22673526 4.54475982 24.75163472 4.53125 28.27734375 C4.53394394 30.72587742 4.53782553 33.17441006 4.54284668 35.62294006 C4.54874739 40.75678687 4.54016069 45.89035544 4.52148438 51.02416992 C4.49870702 57.60631711 4.51180731 64.18781149 4.53577423 70.76993465 C4.55022671 75.82712219 4.54562842 80.88415493 4.53526306 85.94134712 C4.53259366 88.36825195 4.535873 90.79517081 4.54518127 93.22205925 C4.55533595 96.61448268 4.5398588 100.00584871 4.51757812 103.39819336 C4.52567505 104.40251404 4.53377197 105.40683472 4.54211426 106.44158936 C4.4887502 110.82570846 4.41840917 113.31533198 2.09265137 117.12110901 C-0.15443237 119.1386574 -1.02320277 119.68314057 -4 119.625 C-4.66 119.63789062 -5.32 119.65078125 -6 119.6640625 C-9.26595662 118.57966284 -10.20510249 116.92055333 -12 114 C-12.58967505 110.56945399 -12.53622063 107.17908098 -12.50170898 103.70532227 C-12.50711197 102.67059784 -12.51251495 101.63587341 -12.51808167 100.5697937 C-12.53058179 97.1517063 -12.51406746 93.73445912 -12.49609375 90.31640625 C-12.49624872 87.93895931 -12.49773735 85.56151211 -12.50050354 83.18406677 C-12.50188816 78.20161774 -12.48931946 73.21945634 -12.46655273 68.23706055 C-12.43818377 61.85353605 -12.44090061 55.47049009 -12.45364285 49.08693027 C-12.46060176 44.17726055 -12.45280796 39.26770121 -12.44038582 34.35804558 C-12.43587232 32.00454062 -12.43553362 29.6510238 -12.43945122 27.29751778 C-12.44236502 24.00612274 -12.42584686 20.7153843 -12.40405273 17.42407227 C-12.40855438 16.45297012 -12.41305603 15.48186798 -12.41769409 14.4813385 C-12.36027576 9.25618314 -11.98241885 5.49483556 -9 1 C-5.90826248 -0.54586876 -3.40570448 -0.29359521 0 0 Z " fill="#005F62" transform="translate(779,628)"/>
<path d="M0 0 C2.17942528 1.57043845 2.90033551 2.44781654 3.38031673 5.10711575 C3.38396158 6.33406454 3.38396158 6.33406454 3.38768005 7.58580017 C3.402537 8.99689308 3.402537 8.99689308 3.41769409 10.43649292 C3.41094162 11.98181198 3.41094162 11.98181198 3.40405273 13.55834961 C3.41091599 14.64476242 3.41777924 15.73117523 3.42485046 16.85050964 C3.44319149 20.45125297 3.43927041 24.05156362 3.43359375 27.65234375 C3.43815207 30.14954267 3.44345659 32.64674033 3.44947815 35.14393616 C3.45842365 40.38204913 3.45620262 45.62004924 3.44604492 50.8581543 C3.43456495 56.91187724 3.44863538 62.96515711 3.4754414 69.01882166 C3.50026754 74.84356517 3.50277685 80.66813615 3.49632454 86.49292183 C3.49617088 88.97089945 3.50225143 91.44888542 3.51461601 93.9268322 C3.52945622 97.38897748 3.51889916 100.85014175 3.50170898 104.31225586 C3.51621094 105.85453857 3.51621094 105.85453857 3.53100586 107.42797852 C3.45904615 114.33224206 3.45904615 114.33224206 1.18739319 117.63673401 C-2.04908661 119.65383037 -4.27027909 119.53281727 -8 119 C-10.18640137 117.63000488 -10.18640137 117.63000488 -12 115 C-12.6066587 111.47810811 -12.54596329 107.98612638 -12.51757812 104.41992188 C-12.5245874 103.34311661 -12.53159668 102.26631134 -12.53881836 101.15687561 C-12.55643792 97.59390553 -12.54476087 94.0317283 -12.53125 90.46875 C-12.53394376 87.99540046 -12.5378252 85.52205196 -12.54284668 83.04870605 C-12.54874713 77.86358565 -12.54016077 72.67874075 -12.52148438 67.49365234 C-12.49869476 60.84183044 -12.51181468 54.19092312 -12.53577423 47.53908539 C-12.55021714 42.43132652 -12.54563303 37.3237211 -12.53526306 32.21595764 C-12.53259163 29.76310653 -12.53588008 27.31024155 -12.54518127 24.85740662 C-12.55532158 21.43125416 -12.53987956 18.00615219 -12.51757812 14.58007812 C-12.52567505 13.56281143 -12.53377197 12.54554474 -12.54211426 11.49745178 C-12.45920098 4.63397216 -12.45920098 4.63397216 -10.09484863 1.36975098 C-6.51784002 -0.9691345 -4.21156141 -0.46795127 0 0 Z " fill="#005E62" transform="translate(683,628)"/>
<path d="M0 0 C0.98790024 -0.01268417 1.97580048 -0.02536835 2.99363708 -0.03843689 C4.59212242 -0.03403343 4.59212242 -0.03403343 6.22290039 -0.02954102 C7.3189711 -0.03478287 8.41504181 -0.04002472 9.54432678 -0.04542542 C11.86352694 -0.05185208 14.18275967 -0.05050034 16.50195312 -0.04199219 C20.05340581 -0.03348833 23.60324758 -0.0622268 27.15454102 -0.09399414 C29.40649366 -0.09560633 31.65844915 -0.09502828 33.91040039 -0.09204102 C34.97403305 -0.10327499 36.03766571 -0.11450897 37.13352966 -0.12608337 C38.62010826 -0.11201195 38.62010826 -0.11201195 40.13671875 -0.09765625 C41.4421891 -0.097407 41.4421891 -0.097407 42.77403259 -0.09715271 C45.13305664 0.40405273 45.13305664 0.40405273 49.13305664 4.40405273 C49.13305664 12.32405273 49.13305664 20.24405273 49.13305664 28.40405273 C30.32305664 28.40405273 11.51305664 28.40405273 -7.86694336 28.40405273 C-7.86694336 20.15405273 -7.86694336 11.90405273 -7.86694336 3.40405273 C-4.57047946 0.10758884 -4.32673975 0.02688537 0 0 Z " fill="#00B0AF" transform="translate(705.866943359375,563.595947265625)"/>
<path d="M0 0 C0.33 0 0.66 0 1 0 C1 337.92 1 675.84 1 1024 C0.67 1024 0.34 1024 0 1024 C0 686.08 0 348.16 0 0 Z " fill="#C1CCB9" transform="translate(0,0)"/>
<path d="M0 0 C6.6 0 13.2 0 20 0 C21.40213523 12.61921708 21.40213523 12.61921708 17.3125 18.375 C14.08850952 20.64050683 11.93822555 21 8 21 C3.9390374 19.68182464 1.55157574 18.05518837 -0.4375 14.25 C-1.28935275 9.32818409 -1.60434879 4.81304638 0 0 Z " fill="#026669" transform="translate(770,786)"/>
<path d="M0 0 C6.6 0 13.2 0 20 0 C21.14493713 8.01455989 21.14493713 8.01455989 20.3125 12.25 C20.16425781 13.08015625 20.01601563 13.9103125 19.86328125 14.765625 C18.77525068 17.58170412 17.57512827 18.47854807 15 20 C10.8817886 21.06768444 8.69425582 21.26198333 4.6875 19.75 C2 18 2 18 0 15 C-0.44921875 12.6953125 -0.44921875 12.6953125 -0.6875 10.125 C-0.77386719 9.28195312 -0.86023438 8.43890625 -0.94921875 7.5703125 C-1 5 -1 5 0 0 Z " fill="#016669" transform="translate(665,786)"/>
<path d="M0 0 C0.33 0 0.66 0 1 0 C1 26.4 1 52.8 1 80 C18.16 80 35.32 80 53 80 C53 80.33 53 80.66 53 81 C34.52 81.33 16.04 81.66 -3 82 C-2.34 81.01 -1.68 80.02 -1 79 C-0.78739179 76.43477996 -0.68876991 73.97437903 -0.68115234 71.4074707 C-0.67110672 70.63650055 -0.6610611 69.8655304 -0.65071106 69.07119751 C-0.61981895 66.52273301 -0.60282733 63.97437385 -0.5859375 61.42578125 C-0.56723068 59.65886017 -0.54765764 57.89194806 -0.5272522 56.12504578 C-0.47587354 51.47428678 -0.43627855 46.8234988 -0.39910889 42.17260742 C-0.35910515 37.4268473 -0.30799627 32.68120833 -0.2578125 27.93554688 C-0.16098534 18.62378296 -0.07660231 9.31195072 0 0 Z " fill="#005358" transform="translate(423,169)"/>
<path d="M0 0 C-0.66 0 -1.32 0 -2 0 C-2.33 0.99 -2.66 1.98 -3 3 C-16.0146785 3.71875936 -28.96532922 4.14323814 -42 4 C-42 3.67 -42 3.34 -42 3 C-41.24493164 2.9498877 -40.48986328 2.89977539 -39.71191406 2.84814453 C-36.22416973 2.61317734 -32.73711418 2.36913443 -29.25 2.125 C-28.06277344 2.04636719 -26.87554687 1.96773437 -25.65234375 1.88671875 C-18.80458424 1.40026589 -12.15547957 0.62673988 -5.41699219 -0.69970703 C-3 -1 -3 -1 0 0 Z " fill="#3EB5A1" transform="translate(256,754)"/>
<path d="M0 0 C0.66 0 1.32 0 2 0 C2.34207192 11.17434943 1.93465298 21.13479671 -1 32 C-1.33 32 -1.66 32 -2 32 C-2.06752656 28.15098631 -2.08705572 24.59778262 -1.53125 20.78125 C-0.93522413 16.53894825 -0.66094841 12.33732455 -0.4375 8.0625 C-0.39431641 7.28326172 -0.35113281 6.50402344 -0.30664062 5.70117188 C-0.20171923 3.80092883 -0.1004755 1.90048331 0 0 Z " fill="#22BBB4" transform="translate(530,430)"/>
<path d="M0 0 C0.99 0.66 1.98 1.32 3 2 C4.32 2 5.64 2 7 2 C7.33 2.99 7.66 3.98 8 5 C2.555 8.96 2.555 8.96 -3 13 C-4 11 -4 11 -3.22265625 8.3984375 C-2.83980469 7.40070313 -2.45695313 6.40296875 -2.0625 5.375 C-1.68222656 4.37210937 -1.30195312 3.36921875 -0.91015625 2.3359375 C-0.60980469 1.56507813 -0.30945313 0.79421875 0 0 Z " fill="#2ABCAC" transform="translate(565,478)"/>
<path d="M0 0 C5.49418248 6.59301897 10.24347157 13.76342821 14.9375 20.9375 C15.52402344 21.83339844 16.11054687 22.72929687 16.71484375 23.65234375 C18 26 18 26 18 29 C13.54599692 24.90459996 10.59430106 19.53148211 7.3125 14.5 C6.61060547 13.44167969 5.90871094 12.38335937 5.18554688 11.29296875 C4.52232422 10.27847656 3.85910156 9.26398438 3.17578125 8.21875 C2.26179565 6.8255957 2.26179565 6.8255957 1.3293457 5.40429688 C0 3 0 3 0 0 Z " fill="#F77D4B" transform="translate(841,421)"/>
<path d="M0 0 C0.66 0 1.32 0 2 0 C3.12933309 2.58133278 3.85020492 4.23653901 4 7 C2.70793099 9.95991904 0.97204527 12.4522234 -1 15 C-2.98 14.34 -4.96 13.68 -7 13 C-7 12.67 -7 12.34 -7 12 C-5.35 12 -3.7 12 -2 12 C-1.67 9.69 -1.34 7.38 -1 5 C-0.34 5 0.32 5 1 5 C0.67 3.35 0.34 1.7 0 0 Z " fill="#1AADAE" transform="translate(681,323)"/>
<path d="M0 0 C-1.32 0.33 -2.64 0.66 -4 1 C-4 1.99 -4 2.98 -4 4 C-6.40545638 5.20272819 -7.94996953 5.10071472 -10.625 5.0625 C-11.85089844 5.04896484 -11.85089844 5.04896484 -13.1015625 5.03515625 C-14.04128906 5.01775391 -14.04128906 5.01775391 -15 5 C-14 2 -14 2 -12.3125 0.875 C-8.09126175 -0.72222528 -4.33758888 -1.50147307 0 0 Z " fill="#19B7AC" transform="translate(268,752)"/>
<path d="M0 0 C0.33 0 0.66 0 1 0 C1.39373209 3.102091 1.76172314 6.20670709 2.125 9.3125 C2.23714844 10.19357422 2.34929687 11.07464844 2.46484375 11.98242188 C2.56152344 12.82998047 2.65820312 13.67753906 2.7578125 14.55078125 C2.8520752 15.33106689 2.94633789 16.11135254 3.04345703 16.9152832 C3 19 3 19 1 22 C-0.3416687 14.92030179 -1.35481489 8.21456935 -1 1 C-0.67 0.67 -0.34 0.34 0 0 Z " fill="#17BBB6" transform="translate(381,436)"/>
<path d="M0 0 C0.99 0.495 0.99 0.495 2 1 C3.74895368 6.44118923 5.04844363 12.28429118 4 18 C2.48046875 19.76171875 2.48046875 19.76171875 1 21 C1.01160156 20.08476562 1.02320313 19.16953125 1.03515625 18.2265625 C1.04417969 17.03804688 1.05320312 15.84953125 1.0625 14.625 C1.07410156 13.44164062 1.08570313 12.25828125 1.09765625 11.0390625 C1.21466593 8.08078479 1.21466593 8.08078479 0 6 C-0.039992 4.00039988 -0.04346799 1.99952758 0 0 Z " fill="#FC7B48" transform="translate(886,418)"/>
<path d="M0 0 C-0.33 1.32 -0.66 2.64 -1 4 C-7.96428571 6.27678571 -7.96428571 6.27678571 -12 5 C-10.37750059 4.16180842 -8.75191503 3.3295884 -7.125 2.5 C-6.22007812 2.0359375 -5.31515625 1.571875 -4.3828125 1.09375 C-2 0 -2 0 0 0 Z " fill="#1FB7AA" transform="translate(498,668)"/>
<path d="M0 0 C0 0.66 0 1.32 0 2 C-4.04141194 2.63394697 -7.9065307 3.12404452 -12 3 C-7.97869817 0.31913211 -4.73968522 -1.57989507 0 0 Z " fill="#1FB8A7" transform="translate(369,725)"/>
<path d="M0 0 C1.485 0.99 1.485 0.99 3 2 C4.32 2 5.64 2 7 2 C7.33 2.99 7.66 3.98 8 5 C4.71023192 6.09658936 3.28696233 5.79953138 0 5 C0 3.35 0 1.7 0 0 Z " fill="#19B8AB" transform="translate(565,478)"/>
<path d="M0 0 C2.64 0 5.28 0 8 0 C7.67 2.97 7.34 5.94 7 9 C6.67 9 6.34 9 6 9 C6 6.69 6 4.38 6 2 C4.35 2 2.7 2 1 2 C0.67 1.34 0.34 0.68 0 0 Z " fill="#005D60" transform="translate(677,786)"/>
<path d="M0 0 C4.98012761 1.50912958 8.24259942 4.55661849 12 8 C8.40941456 8 7.25212529 7.10368497 4.3125 5.125 C3.50425781 4.59132813 2.69601562 4.05765625 1.86328125 3.5078125 C1.24839844 3.01023437 0.63351562 2.51265625 0 2 C0 1.34 0 0.68 0 0 Z " fill="#FD7B46" transform="translate(701,281)"/>
<path d="M0 0 C-1.43554025 0.50559908 -2.8735202 1.0042749 -4.3125 1.5 C-5.51326172 1.91765625 -5.51326172 1.91765625 -6.73828125 2.34375 C-9 3 -9 3 -12 3 C-12 2.34 -12 1.68 -12 1 C-3.96428571 -1.27678571 -3.96428571 -1.27678571 0 0 Z " fill="#F1C241" transform="translate(287,738)"/>
<path d="M0 0 C-0.99 0.66 -1.98 1.32 -3 2 C-3.804375 2.556875 -4.60875 3.11375 -5.4375 3.6875 C-8.37491351 5.19202887 -8.99644179 4.95017022 -12 4 C-10.56988027 3.13353333 -9.13059381 2.28218171 -7.6875 1.4375 C-6.48673828 0.72400391 -6.48673828 0.72400391 -5.26171875 -0.00390625 C-3 -1 -3 -1 0 0 Z " fill="#2FBBAA" transform="translate(487,675)"/>
<path d="M0 0 C0.99 0.66 1.98 1.32 3 2 C1.37750059 2.83819158 -0.24808497 3.6704116 -1.875 4.5 C-3.23238281 5.19609375 -3.23238281 5.19609375 -4.6171875 5.90625 C-7 7 -7 7 -9 7 C-9 6.34 -9 5.68 -9 5 C-6.03 3.35 -3.06 1.7 0 0 Z " fill="#EFC346" transform="translate(455,672)"/>
<path d="M0 0 C0.33 0 0.66 0 1 0 C1.08167446 1.41569064 1.13949698 2.83276805 1.1875 4.25 C1.22230469 5.03890625 1.25710938 5.8278125 1.29296875 6.640625 C0.93578688 9.51712968 -0.11751718 10.84576769 -2 13 C-1.85915204 11.20793453 -1.71216299 9.41635083 -1.5625 7.625 C-1.48128906 6.62726563 -1.40007813 5.62953125 -1.31640625 4.6015625 C-1 2 -1 2 0 0 Z " fill="#2AB4A5" transform="translate(751,403)"/>
<path d="M0 0 C-4.61012242 2.95047835 -7.36529617 4.5497272 -13 4 C-10.96180154 1.96180154 -9.70582202 1.32158941 -7.0625 0.3125 C-6.37285156 0.04050781 -5.68320312 -0.23148438 -4.97265625 -0.51171875 C-3 -1 -3 -1 0 0 Z " fill="#28BAA9" transform="translate(415,708)"/>
<path d="M0 0 C0.99 0.66 1.98 1.32 3 2 C1.68775452 5.93673644 0.08089673 8.22719294 -3 11 C-2.11223998 7.30099992 -1.05418136 3.65449539 0 0 Z " fill="#F2C041" transform="translate(701,460)"/>
<path d="M0 0 C0.99 0.33 1.98 0.66 3 1 C1.35 2.98 -0.3 4.96 -2 7 C-2.99 6.34 -3.98 5.68 -5 5 C-3.35 3.35 -1.7 1.7 0 0 Z " fill="#0EB0A7" transform="translate(758,395)"/>
<path d="M0 0 C2.3828125 0.99609375 2.3828125 0.99609375 5.125 2.4375 C6.03507813 2.91058594 6.94515625 3.38367188 7.8828125 3.87109375 C8.58148437 4.24363281 9.28015625 4.61617188 10 5 C9.01 5.33 8.02 5.66 7 6 C6.01 5.34 5.02 4.68 4 4 C2.0103005 3.60986284 0.00980131 3.26797351 -2 3 C-2 2.34 -2 1.68 -2 1 C-1.34 0.67 -0.68 0.34 0 0 Z " fill="#11AEB6" transform="translate(627,357)"/>
<path d="M0 0 C0.66 0.66 1.32 1.32 2 2 C-1.72965139 4.03435531 -3.66905042 5 -8 5 C-8 4.34 -8 3.68 -8 3 C-6.865625 2.690625 -5.73125 2.38125 -4.5625 2.0625 C-1.21224901 1.37075469 -1.21224901 1.37075469 0 0 Z " fill="#147473" transform="translate(681,802)"/>
<path d="M0 0 C0.66 0 1.32 0 2 0 C2.6875 1.625 2.6875 1.625 3 4 C1.5625 7.25 1.5625 7.25 0 10 C-0.33 10 -0.66 10 -1 10 C-1 8.35 -1 6.7 -1 5 C-0.34 5 0.32 5 1 5 C0.67 3.35 0.34 1.7 0 0 Z " fill="#0EB0A6" transform="translate(681,323)"/>
<path d="M0 0 C3.53600465 1.91135386 5.78972846 3.62642766 8 7 C5 7 5 7 3.3125 5.625 C2 4 2 4 2 2 C1.34 2 0.68 2 0 2 C0 1.34 0 0.68 0 0 Z " fill="#21B0AA" transform="translate(616,261)"/>
<path d="M0 0 C-1.8125 1.5625 -1.8125 1.5625 -4 3 C-4.99 2.67 -5.98 2.34 -7 2 C-7.33 1.34 -7.66 0.68 -8 0 C-4.94736336 -0.98120464 -3.05263664 -0.98120464 0 0 Z " fill="#1EBBAB" transform="translate(345,733)"/>
<path d="M0 0 C3.82946843 1.45255699 5.12050295 3.42895561 7 7 C4.50638429 5.79618552 2.31856917 4.54571278 0 3 C0 2.01 0 1.02 0 0 Z " fill="#10B4AC" transform="translate(381,538)"/>
<path d="M0 0 C2.5 1.3125 2.5 1.3125 5 3 C5 3.99 5 4.98 5 6 C3.68 5.34 2.36 4.68 1 4 C1 3.34 1 2.68 1 2 C0.34 1.67 -0.32 1.34 -1 1 C-0.67 0.67 -0.34 0.34 0 0 Z " fill="#27B0A5" transform="translate(792,400)"/>
<path d="M0 0 C3.24208567 0.35049575 4.61527704 0.56221181 6.8125 3.0625 C7.204375 3.701875 7.59625 4.34125 8 5 C5 5 5 5 2.3125 2.5 C1.549375 1.675 0.78625 0.85 0 0 Z " fill="#11B4B3" transform="translate(530,350)"/>
<path d="M0 0 C0.66 0 1.32 0 2 0 C2.309375 0.78375 2.61875 1.5675 2.9375 2.375 C3.92875038 4.92330128 3.92875038 4.92330128 5 7 C1.125 6.125 1.125 6.125 0 5 C-0.04063832 3.33382885 -0.042721 1.66611905 0 0 Z " fill="#F97944" transform="translate(621,221)"/>
<path d="M0 0 C3 1 3 1 3 1 Z " fill="#07AEAC" transform="translate(373,248)"/>
<path d="M0 0 C2 1 2 1 2 1 Z " fill="#6EAB85" transform="translate(242,753)"/>
<path d="M0 0 C2 1 2 1 2 1 Z " fill="#70AC84" transform="translate(239,753)"/>
<path d="M0 0 C2 1 2 1 2 1 Z " fill="#72B18B" transform="translate(249,752)"/>
<path d="" fill="#22C2BE" transform="translate(0,0)"/>
<path d="" fill="#EAA075" transform="translate(0,0)"/>
<path d="M0 0 C2 1 2 1 2 1 Z " fill="#08B0AB" transform="translate(522,248)"/>
<path d="M0 0 C2 1 2 1 2 1 Z " fill="#06AAA8" transform="translate(502,248)"/>
<path d="M0 0 C2 1 2 1 2 1 Z " fill="#05ACAA" transform="translate(394,248)"/>
<path d="M0 0 C2 1 2 1 2 1 Z " fill="#F89B6A" transform="translate(717,224)"/>
<path d="" fill="#2B958F" transform="translate(0,0)"/>
<path d="" fill="#269188" transform="translate(0,0)"/>
<path d="" fill="#118C8A" transform="translate(0,0)"/>
<path d="" fill="#588A7A" transform="translate(0,0)"/>
<path d="" fill="#95A970" transform="translate(0,0)"/>
<path d="" fill="#E7C45E" transform="translate(0,0)"/>
<path d="" fill="#7FC298" transform="translate(0,0)"/>
<path d="" fill="#80C195" transform="translate(0,0)"/>
<path d="" fill="#AEC97D" transform="translate(0,0)"/>
<path d="" fill="#B0C57D" transform="translate(0,0)"/>
<path d="" fill="#B2C67D" transform="translate(0,0)"/>
<path d="" fill="#F4CC5D" transform="translate(0,0)"/>
<path d="" fill="#7CC798" transform="translate(0,0)"/>
<path d="" fill="#F7CD60" transform="translate(0,0)"/>
<path d="" fill="#0B9E9C" transform="translate(0,0)"/>
<path d="" fill="#0CA19E" transform="translate(0,0)"/>
<path d="" fill="#E7CB64" transform="translate(0,0)"/>
<path d="" fill="#B7C874" transform="translate(0,0)"/>
<path d="" fill="#46C7AE" transform="translate(0,0)"/>
<path d="" fill="#5AC9AC" transform="translate(0,0)"/>
<path d="" fill="#B5C171" transform="translate(0,0)"/>
<path d="" fill="#61CAAB" transform="translate(0,0)"/>
<path d="" fill="#58BC9E" transform="translate(0,0)"/>
<path d="" fill="#4EC8B3" transform="translate(0,0)"/>
<path d="" fill="#EDCD60" transform="translate(0,0)"/>
<path d="" fill="#EACF6B" transform="translate(0,0)"/>
<path d="" fill="#C3C16D" transform="translate(0,0)"/>
<path d="" fill="#19B7B4" transform="translate(0,0)"/>
<path d="" fill="#2FC5BD" transform="translate(0,0)"/>
<path d="" fill="#20C2C0" transform="translate(0,0)"/>
<path d="" fill="#EFCE66" transform="translate(0,0)"/>
<path d="" fill="#18BFBD" transform="translate(0,0)"/>
<path d="" fill="#29C3B9" transform="translate(0,0)"/>
<path d="" fill="#CE9D79" transform="translate(0,0)"/>
<path d="" fill="#F2CB5D" transform="translate(0,0)"/>
<path d="" fill="#89CA9A" transform="translate(0,0)"/>
<path d="" fill="#17C5C0" transform="translate(0,0)"/>
<path d="" fill="#17C1BC" transform="translate(0,0)"/>
<path d="" fill="#F19C6E" transform="translate(0,0)"/>
<path d="" fill="#D6A379" transform="translate(0,0)"/>
<path d="" fill="#CDC66D" transform="translate(0,0)"/>
<path d="" fill="#0EBEBD" transform="translate(0,0)"/>
<path d="" fill="#F0C95F" transform="translate(0,0)"/>
<path d="" fill="#07BABA" transform="translate(0,0)"/>
<path d="" fill="#85BA98" transform="translate(0,0)"/>
<path d="" fill="#FFB161" transform="translate(0,0)"/>
<path d="" fill="#FDBF57" transform="translate(0,0)"/>
<path d="" fill="#FFAB61" transform="translate(0,0)"/>
<path d="" fill="#29B6AE" transform="translate(0,0)"/>
<path d="" fill="#12B4AD" transform="translate(0,0)"/>
<path d="" fill="#0DB0AC" transform="translate(0,0)"/>
<path d="" fill="#0AAEAC" transform="translate(0,0)"/>
<path d="" fill="#06ABA7" transform="translate(0,0)"/>
<path d="" fill="#079D9A" transform="translate(0,0)"/>
<path d="" fill="#04A7A6" transform="translate(0,0)"/>
<path d="" fill="#06ABAA" transform="translate(0,0)"/>
<path d="" fill="#06AEAB" transform="translate(0,0)"/>
<path d="" fill="#05AFAA" transform="translate(0,0)"/>
<path d="" fill="#04B1AE" transform="translate(0,0)"/>
<path d="" fill="#07B1AD" transform="translate(0,0)"/>
<path d="" fill="#24BAB0" transform="translate(0,0)"/>
<path d="" fill="#DDA076" transform="translate(0,0)"/>
<path d="" fill="#FEA067" transform="translate(0,0)"/>
<path d="" fill="#FCC454" transform="translate(0,0)"/>
<path d="" fill="#CA9C78" transform="translate(0,0)"/>
<path d="" fill="#FB9F6A" transform="translate(0,0)"/>
<path d="" fill="#EA976A" transform="translate(0,0)"/>
<path d="" fill="#DC966C" transform="translate(0,0)"/>
<path d="" fill="#F9C65A" transform="translate(0,0)"/>
<path d="" fill="#F0C562" transform="translate(0,0)"/>
<path d="" fill="#507B76" transform="translate(0,0)"/>
<path d="" fill="#58837B" transform="translate(0,0)"/>
<path d="" fill="#417C77" transform="translate(0,0)"/>
</svg>
